SplineFontDB: 3.0
FontName: Asap-Italic
FullName: Asap Italic
FamilyName: Asap
Weight: Regular
Copyright: Copyright (c) 2011-2014, Omnibus-Type (www.omnibus-type.com omnibus.type@gmail.com) with Reserved Font Name 'Asap'
Version: 001.006
ItalicAngle: -6
UnderlinePosition: -50
UnderlineWidth: 50
Ascent: 800
Descent: 200
sfntRevision: 0x00010189
LayerCount: 2
Layer: 0 1 "Back"  1
Layer: 1 1 "Fore"  0
XUID: [1021 191 1600663927 440078]
FSType: 8
OS2Version: 3
OS2_WeightWidthSlopeOnly: 0
OS2_UseTypoMetrics: 1
CreationTime: 1410960463
ModificationTime: 1410988216
PfmFamily: 17
TTFWeight: 400
TTFWidth: 5
LineGap: 0
VLineGap: 0
Panose: 2 15 5 4 3 1 2 13 2 3
OS2TypoAscent: 999
OS2TypoAOffset: 0
OS2TypoDescent: -236
OS2TypoDOffset: 0
OS2TypoLinegap: 0
OS2WinAscent: 999
OS2WinAOffset: 0
OS2WinDescent: 236
OS2WinDOffset: 0
HheadAscent: 999
HheadAOffset: 0
HheadDescent: -236
HheadDOffset: 0
OS2SubXSize: 650
OS2SubYSize: 600
OS2SubXOff: -8
OS2SubYOff: 75
OS2SupXSize: 650
OS2SupYSize: 600
OS2SupXOff: 37
OS2SupYOff: 350
OS2StrikeYSize: 50
OS2StrikeYPos: 313
OS2Vendor: 'OMNI'
OS2CodePages: 20000193.00000000
OS2UnicodeRanges: 20000007.00000000.00000000.00000000
Lookup: 1 0 0 "'aalt' Access All Alternates lookup 0"  {"'aalt' Access All Alternates lookup 0 subtable"  } ['aalt' ('DFLT' <'dflt' > 'grek' <'dflt' > 'latn' <'AZE ' 'CAT ' 'CRT ' 'ESP ' 'KAZ ' 'MOL ' 'NLD ' 'PLK ' 'ROM ' 'TAT ' 'TRK ' 'dflt' > ) ]
Lookup: 6 0 0 "'locl' Localized Forms in Latin lookup 1"  {"'locl' Localized Forms in Latin lookup 1 contextual 0"  "'locl' Localized Forms in Latin lookup 1 contextual 1"  } ['locl' ('latn' <'AZE ' 'CAT ' 'CRT ' 'ESP ' 'KAZ ' 'MOL ' 'PLK ' 'ROM ' 'TAT ' 'TRK ' 'dflt' > ) ]
Lookup: 1 0 0 "'locl' Localized Forms in Latin lookup 2"  {"'locl' Localized Forms in Latin lookup 2 subtable"  } ['locl' ('latn' <'TRK ' > ) ]
Lookup: 1 0 0 "'locl' Localized Forms in Latin lookup 3"  {"'locl' Localized Forms in Latin lookup 3 subtable"  } ['locl' ('latn' <'AZE ' > ) ]

StartChar: .notdef
Encoding: 65536 -1 0
Width: 515
Flags: MW
HStem: 0 50<65 405 65 480> 650 50<128 468 128 128>
VStem: -20 574
LayerCount: 2
Fore
SplineSet
54 700 m 1,0,-1
 554 700 l 1,1,-1
 480 0 l 1,2,-1
 -20 0 l 1,3,-1
 54 700 l 1,0,-1
468 650 m 1,4,-1
 128 650 l 1,5,-1
 272 395 l 1,6,-1
 468 650 l 1,4,-1
39 95 m 1,7,-1
 237 350 l 1,8,-1
 93 605 l 1,9,-1
 39 95 l 1,7,-1
439 95 m 1,10,-1
 493 605 l 1,11,-1
 297 350 l 1,12,-1
 439 95 l 1,10,-1
405 50 m 1,13,-1
 261 305 l 1,14,-1
 65 50 l 1,15,-1
 405 50 l 1,13,-1
EndSplineSet
EndChar

StartChar: A
Encoding: 65 65 1
Width: 613
GlyphClass: 2
Flags: MW
HStem: 178 76<174 413 174 432 138 413> 610 92<332 334 332 332> 682 20G<328 357 357 367>
VStem: -23 588<12.5 16>
AnchorPoint: "Anchor-1" 342 700 basechar 0
AnchorPoint: "Anchor-0" 279 0 basechar 0
LayerCount: 2
Fore
SplineSet
328 702 m 2,0,-1
 357 702 l 2,1,2
 392 702 392 702 396 686 c 2,3,-1
 564 28 l 2,4,5
 565 24 565 24 565 18 c 0,6,7
 565 -2 565 -2 521 -2 c 2,8,-1
 513 -2 l 2,9,10
 478 -2 478 -2 474 14 c 2,11,-1
 432 178 l 1,12,-1
 138 178 l 1,13,-1
 64 14 l 2,14,15
 57 -2 57 -2 23 -2 c 2,16,-1
 18 -2 l 2,17,18
 -23 -2 -23 -2 -23 14 c 0,19,20
 -23 19 -23 19 -18 29 c 2,21,-1
 287 686 l 2,22,23
 294 702 294 702 328 702 c 2,0,-1
334 610 m 1,24,-1
 332 610 l 1,25,26
 320 573 320 573 311 552 c 2,27,-1
 174 254 l 1,28,-1
 413 254 l 1,29,-1
 340 552 l 2,30,31
 334 575 334 575 334 610 c 1,24,-1
EndSplineSet
Substitution2: "Single Substitution lookup 20 subtable" ordfeminine
Substitution2: "'aalt' Access All Alternates lookup 0 subtable" ordfeminine
Position2: "'cpsp' Capital Spacing lookup 0 subtable" dx=5 dy=0 dh=10 dv=0
EndChar

StartChar: Aacute
Encoding: 193 193 2
Width: 613
GlyphClass: 2
Flags: MW
HStem: 178 76<174 413 174 432 138 413> 610 92<332 334 332 332> 682 20G<328 357 357 367>
VStem: -23 588<12.5 16>
AnchorPoint: "Anchor-1" 387 877 basechar 0
AnchorPoint: "Anchor-0" 279 0 basechar 0
LayerCount: 2
Fore
SplineSet
438 909 m 128,-1,1
 485 909 485 909 485 897 c 0,2,3
 485 886 485 886 379 780 c 0,4,5
 361 762 361 762 332.5 762 c 128,-1,6
 304 762 304 762 304 771 c 0,7,8
 304 783 304 783 373 883 c 0,9,0
 391 909 391 909 438 909 c 128,-1,1
328 702 m 2,10,-1
 357 702 l 2,11,12
 392 702 392 702 396 686 c 2,13,-1
 564 28 l 2,14,15
 565 24 565 24 565 18 c 0,16,17
 565 -2 565 -2 521 -2 c 2,18,-1
 513 -2 l 2,19,20
 478 -2 478 -2 474 14 c 2,21,-1
 432 178 l 1,22,-1
 138 178 l 1,23,-1
 64 14 l 2,24,25
 57 -2 57 -2 23 -2 c 2,26,-1
 18 -2 l 2,27,28
 -23 -2 -23 -2 -23 14 c 0,29,30
 -23 19 -23 19 -18 29 c 2,31,-1
 287 686 l 2,32,33
 294 702 294 702 328 702 c 2,10,-1
334 610 m 1,34,-1
 332 610 l 1,35,36
 320 573 320 573 311 552 c 2,37,-1
 174 254 l 1,38,-1
 413 254 l 1,39,-1
 340 552 l 2,40,41
 334 575 334 575 334 610 c 1,34,-1
EndSplineSet
Position2: "'cpsp' Capital Spacing lookup 0 subtable" dx=5 dy=0 dh=10 dv=0
EndChar

StartChar: Abreve
Encoding: 258 258 3
Width: 613
GlyphClass: 2
Flags: MW
HStem: 178 76<174 413 174 432 138 413> 610 92<332 334 332 332> 682 20G<328 357 357 367> 762 66<329.5 378 329.5 380.5>
VStem: -23 588<12.5 16>
AnchorPoint: "Anchor-1" 361 848 basechar 0
AnchorPoint: "Anchor-0" 279 0 basechar 0
LayerCount: 2
Fore
SplineSet
489 892 m 0,0,1
 503 892 503 892 503 880 c 0,2,3
 503 825 503 825 453.5 793.5 c 128,-1,4
 404 762 404 762 348 762 c 128,-1,5
 292 762 292 762 252.5 789 c 128,-1,6
 213 816 213 816 213 865 c 0,7,8
 213 892 213 892 230 892 c 0,9,10
 241.4 892 241.4 892 243.2 887.5 c 128,-1,11
 245 883 245 883 246.5 877 c 0,12,13
 258.75 828 258.75 828 349.375 828 c 128,-1,14
 440 828 440 828 465 867 c 0,15,16
 468 872 468 872 471 880 c 128,-1,17
 474 888 474 888 477.5 890 c 128,-1,18
 481 892 481 892 489 892 c 0,0,1
328 702 m 2,19,-1
 357 702 l 2,20,21
 392 702 392 702 396 686 c 2,22,-1
 564 28 l 2,23,24
 565 24 565 24 565 18 c 0,25,26
 565 -2 565 -2 521 -2 c 2,27,-1
 513 -2 l 2,28,29
 478 -2 478 -2 474 14 c 2,30,-1
 432 178 l 1,31,-1
 138 178 l 1,32,-1
 64 14 l 2,33,34
 57 -2 57 -2 23 -2 c 2,35,-1
 18 -2 l 2,36,37
 -23 -2 -23 -2 -23 14 c 0,38,39
 -23 19 -23 19 -18 29 c 2,40,-1
 287 686 l 2,41,42
 294 702 294 702 328 702 c 2,19,-1
334 610 m 1,43,-1
 332 610 l 1,44,45
 320 573 320 573 311 552 c 2,46,-1
 174 254 l 1,47,-1
 413 254 l 1,48,-1
 340 552 l 2,49,50
 334 575 334 575 334 610 c 1,43,-1
EndSplineSet
Position2: "'cpsp' Capital Spacing lookup 0 subtable" dx=5 dy=0 dh=10 dv=0
EndChar

StartChar: Abreveacute
Encoding: 7854 7854 4
Width: 613
GlyphClass: 2
Flags: MW
HStem: 178 76<174 413 174 432 138 413> 610 92<332 334 332 332> 682 20G<328 357 357 367> 761 53<328.5 377 328.5 379.5>
VStem: -23 588<12.5 16>
AnchorPoint: "Anchor-1" 361 857 basechar 0
AnchorPoint: "Anchor-0" 279 0 basechar 0
LayerCount: 2
Fore
SplineSet
380 963 m 0,0,1
 396 989 396 989 436.5 989 c 128,-1,2
 477 989 477 989 477 977 c 0,3,4
 477 971 477 971 385 870 c 0,5,6
 370 852 370 852 347.5 852 c 128,-1,7
 325 852 325 852 325 861 c 0,8,9
 325 875 325 875 380 963 c 0,0,1
502 871 m 0,10,11
 502 822 502 822 452 791.5 c 128,-1,12
 402 761 402 761 346.5 761 c 128,-1,13
 291 761 291 761 251.5 786.5 c 128,-1,14
 212 812 212 812 212 856 c 0,15,16
 212 883 212 883 229 883 c 0,17,18
 237 883 237 883 239.5 880.5 c 128,-1,19
 242 878 242 878 244 870.5 c 0,20,21
 251.03030303 844.136363636 251.03030303 844.136363636 284.515151515 829.068181818 c 128,-1,22
 318 814 318 814 352 814 c 128,-1,23
 386 814 386 814 420 829 c 128,-1,24
 454 844 454 844 460.5 853.5 c 128,-1,25
 467 863 467 863 469.5 868.5 c 128,-1,26
 472 874 472 874 473.5 876.5 c 0,27,28
 477.4 883 477.4 883 489.7 883 c 128,-1,29
 502 883 502 883 502 871 c 0,10,11
328 702 m 2,30,-1
 357 702 l 2,31,32
 392 702 392 702 396 686 c 2,33,-1
 564 28 l 2,34,35
 565 24 565 24 565 18 c 0,36,37
 565 -2 565 -2 521 -2 c 2,38,-1
 513 -2 l 2,39,40
 478 -2 478 -2 474 14 c 2,41,-1
 432 178 l 1,42,-1
 138 178 l 1,43,-1
 64 14 l 2,44,45
 57 -2 57 -2 23 -2 c 2,46,-1
 18 -2 l 2,47,48
 -23 -2 -23 -2 -23 14 c 0,49,50
 -23 19 -23 19 -18 29 c 2,51,-1
 287 686 l 2,52,53
 294 702 294 702 328 702 c 2,30,-1
334 610 m 1,54,-1
 332 610 l 1,55,56
 320 573 320 573 311 552 c 2,57,-1
 174 254 l 1,58,-1
 413 254 l 1,59,-1
 340 552 l 2,60,61
 334 575 334 575 334 610 c 1,54,-1
EndSplineSet
Position2: "'cpsp' Capital Spacing lookup 0 subtable" dx=5 dy=0 dh=10 dv=0
EndChar

StartChar: Abrevedotbelow
Encoding: 7862 7862 5
Width: 613
GlyphClass: 2
Flags: MW
HStem: -175 95<255 273> 178 76<174 413 174 432 138 413> 610 92<332 334 332 332> 682 20G<328 357 357 367> 762 66<329.5 378 329.5 380.5>
VStem: 220 89<-160 -95>
AnchorPoint: "Anchor-1" 273 -82 basechar 0
AnchorPoint: "Anchor-0" 258 -203 basechar 0
LayerCount: 2
Fore
SplineSet
489 892 m 0,0,1
 503 892 503 892 503 880 c 0,2,3
 503 825 503 825 453.5 793.5 c 128,-1,4
 404 762 404 762 348 762 c 128,-1,5
 292 762 292 762 252.5 789 c 128,-1,6
 213 816 213 816 213 865 c 0,7,8
 213 892 213 892 230 892 c 0,9,10
 241.4 892 241.4 892 243.2 887.5 c 128,-1,11
 245 883 245 883 246.5 877 c 0,12,13
 258.75 828 258.75 828 349.375 828 c 128,-1,14
 440 828 440 828 465 867 c 0,15,16
 468 872 468 872 471 880 c 128,-1,17
 474 888 474 888 477.5 890 c 128,-1,18
 481 892 481 892 489 892 c 0,0,1
328 702 m 2,19,-1
 357 702 l 2,20,21
 392 702 392 702 396 686 c 2,22,-1
 564 28 l 2,23,24
 565 24 565 24 565 18 c 0,25,26
 565 -2 565 -2 521 -2 c 2,27,-1
 513 -2 l 2,28,29
 478 -2 478 -2 474 14 c 2,30,-1
 432 178 l 1,31,-1
 138 178 l 1,32,-1
 64 14 l 2,33,34
 57 -2 57 -2 23 -2 c 2,35,-1
 18 -2 l 2,36,37
 -23 -2 -23 -2 -23 14 c 0,38,39
 -23 19 -23 19 -18 29 c 2,40,-1
 287 686 l 2,41,42
 294 702 294 702 328 702 c 2,19,-1
334 610 m 1,43,-1
 332 610 l 1,44,45
 320 573 320 573 311 552 c 2,46,-1
 174 254 l 1,47,-1
 413 254 l 1,48,-1
 340 552 l 2,49,50
 334 575 334 575 334 610 c 1,43,-1
225 -102 m 2,51,52
 228 -80 228 -80 268.5 -80 c 128,-1,53
 309 -80 309 -80 309 -102 c 1,54,-1
 304 -153 l 2,55,56
 301 -175 301 -175 260.5 -175 c 128,-1,57
 220 -175 220 -175 220 -153 c 1,58,-1
 225 -102 l 2,51,52
EndSplineSet
Position2: "'cpsp' Capital Spacing lookup 0 subtable" dx=5 dy=0 dh=10 dv=0
EndChar

StartChar: Abrevegrave
Encoding: 7856 7856 6
Width: 613
GlyphClass: 2
Flags: MW
HStem: 178 76<174 413 174 432 138 413> 610 92<332 334 332 332> 682 20G<328 357 357 367> 761 53<328.5 377 328.5 379.5>
VStem: -23 588<12.5 16>
AnchorPoint: "Anchor-1" 361 857 basechar 0
AnchorPoint: "Anchor-0" 279 0 basechar 0
LayerCount: 2
Fore
SplineSet
282 980 m 0,0,1
 282 992 282 992 319.5 992 c 128,-1,2
 357 992 357 992 367 966 c 0,3,4
 404 876 404 876 404 861 c 0,5,6
 404 852 404 852 380 852 c 128,-1,7
 356 852 356 852 345 870 c 0,8,9
 283 966 283 966 282 980 c 0,0,1
502 871 m 0,10,11
 502 822 502 822 452 791.5 c 128,-1,12
 402 761 402 761 346.5 761 c 128,-1,13
 291 761 291 761 251.5 786.5 c 128,-1,14
 212 812 212 812 212 856 c 0,15,16
 212 883 212 883 229 883 c 0,17,18
 237 883 237 883 239.5 880.5 c 128,-1,19
 242 878 242 878 244 870.5 c 0,20,21
 251.03030303 844.136363636 251.03030303 844.136363636 284.515151515 829.068181818 c 128,-1,22
 318 814 318 814 352 814 c 128,-1,23
 386 814 386 814 420 829 c 128,-1,24
 454 844 454 844 460.5 853.5 c 128,-1,25
 467 863 467 863 469.5 868.5 c 128,-1,26
 472 874 472 874 473.5 876.5 c 0,27,28
 477.4 883 477.4 883 489.7 883 c 128,-1,29
 502 883 502 883 502 871 c 0,10,11
328 702 m 2,30,-1
 357 702 l 2,31,32
 392 702 392 702 396 686 c 2,33,-1
 564 28 l 2,34,35
 565 24 565 24 565 18 c 0,36,37
 565 -2 565 -2 521 -2 c 2,38,-1
 513 -2 l 2,39,40
 478 -2 478 -2 474 14 c 2,41,-1
 432 178 l 1,42,-1
 138 178 l 1,43,-1
 64 14 l 2,44,45
 57 -2 57 -2 23 -2 c 2,46,-1
 18 -2 l 2,47,48
 -23 -2 -23 -2 -23 14 c 0,49,50
 -23 19 -23 19 -18 29 c 2,51,-1
 287 686 l 2,52,53
 294 702 294 702 328 702 c 2,30,-1
334 610 m 1,54,-1
 332 610 l 1,55,56
 320 573 320 573 311 552 c 2,57,-1
 174 254 l 1,58,-1
 413 254 l 1,59,-1
 340 552 l 2,60,61
 334 575 334 575 334 610 c 1,54,-1
EndSplineSet
Position2: "'cpsp' Capital Spacing lookup 0 subtable" dx=5 dy=0 dh=10 dv=0
EndChar

StartChar: Abrevehookabove
Encoding: 7858 7858 7
Width: 613
GlyphClass: 2
Flags: MW
HStem: 178 76<174 413 174 432 138 413> 610 92<332 334 332 332> 682 20G<328 357 357 367> 761 53<328.5 377 328.5 379.5> 959 48<349.5 364>
VStem: 388 58<925 941>
AnchorPoint: "Anchor-1" 361 857 basechar 0
AnchorPoint: "Anchor-0" 279 0 basechar 0
LayerCount: 2
Fore
SplineSet
388 932 m 0,0,1
 388 959 388 959 354 959 c 0,2,3
 333 959 333 959 320 952.5 c 128,-1,4
 307 946 307 946 306 946 c 0,5,6
 300 946 300 946 293 958.5 c 128,-1,7
 286 971 286 971 286 980 c 128,-1,8
 286 989 286 989 313 998 c 128,-1,9
 340 1007 340 1007 369 1007 c 128,-1,10
 398 1007 398 1007 422 990.5 c 128,-1,11
 446 974 446 974 446 941 c 128,-1,12
 446 908 446 908 404 875 c 0,13,14
 377 853 377 853 361 853 c 128,-1,15
 345 853 345 853 335.5 859.5 c 128,-1,16
 326 866 326 866 326 873.5 c 128,-1,17
 326 881 326 881 357 897 c 128,-1,18
 388 913 388 913 388 932 c 0,0,1
502 871 m 0,19,20
 502 822 502 822 452 791.5 c 128,-1,21
 402 761 402 761 346.5 761 c 128,-1,22
 291 761 291 761 251.5 786.5 c 128,-1,23
 212 812 212 812 212 856 c 0,24,25
 212 883 212 883 229 883 c 0,26,27
 237 883 237 883 239.5 880.5 c 128,-1,28
 242 878 242 878 244 870.5 c 0,29,30
 251.03030303 844.136363636 251.03030303 844.136363636 284.515151515 829.068181818 c 128,-1,31
 318 814 318 814 352 814 c 128,-1,32
 386 814 386 814 420 829 c 128,-1,33
 454 844 454 844 460.5 853.5 c 128,-1,34
 467 863 467 863 469.5 868.5 c 128,-1,35
 472 874 472 874 473.5 876.5 c 0,36,37
 477.4 883 477.4 883 489.7 883 c 128,-1,38
 502 883 502 883 502 871 c 0,19,20
328 702 m 2,39,-1
 357 702 l 2,40,41
 392 702 392 702 396 686 c 2,42,-1
 564 28 l 2,43,44
 565 24 565 24 565 18 c 0,45,46
 565 -2 565 -2 521 -2 c 2,47,-1
 513 -2 l 2,48,49
 478 -2 478 -2 474 14 c 2,50,-1
 432 178 l 1,51,-1
 138 178 l 1,52,-1
 64 14 l 2,53,54
 57 -2 57 -2 23 -2 c 2,55,-1
 18 -2 l 2,56,57
 -23 -2 -23 -2 -23 14 c 0,58,59
 -23 19 -23 19 -18 29 c 2,60,-1
 287 686 l 2,61,62
 294 702 294 702 328 702 c 2,39,-1
334 610 m 1,63,-1
 332 610 l 1,64,65
 320 573 320 573 311 552 c 2,66,-1
 174 254 l 1,67,-1
 413 254 l 1,68,-1
 340 552 l 2,69,70
 334 575 334 575 334 610 c 1,63,-1
EndSplineSet
Position2: "'cpsp' Capital Spacing lookup 0 subtable" dx=5 dy=0 dh=10 dv=0
EndChar

StartChar: Abrevetilde
Encoding: 7860 7860 8
Width: 613
GlyphClass: 2
Flags: MW
HStem: 178 76<174 413 174 432 138 413> 610 92<332 334 332 332> 682 20G<328 357 357 367> 761 53<328.5 377 328.5 379.5> 903 64<422 435.5> 934 64<300.5 314>
VStem: -23 588<12.5 16>
AnchorPoint: "Anchor-1" 361 857 basechar 0
AnchorPoint: "Anchor-0" 279 0 basechar 0
LayerCount: 2
Fore
SplineSet
480 989 m 0,0,1
 499 1003 499 1003 515.5 984.5 c 128,-1,2
 532 966 532 966 513 947 c 0,3,4
 465 903 465 903 422.5 903 c 128,-1,5
 380 903 380 903 349 918.5 c 128,-1,6
 318 934 318 934 305.5 934 c 128,-1,7
 293 934 293 934 264 917.5 c 128,-1,8
 235 901 235 901 220 922.5 c 128,-1,9
 205 944 205 944 222 957 c 0,10,11
 273 998 273 998 319 998 c 0,12,13
 349 998 349 998 382.5 982.5 c 128,-1,14
 416 967 416 967 433.5 967 c 128,-1,15
 451 967 451 967 480 989 c 0,0,1
502 871 m 0,16,17
 502 822 502 822 452 791.5 c 128,-1,18
 402 761 402 761 346.5 761 c 128,-1,19
 291 761 291 761 251.5 786.5 c 128,-1,20
 212 812 212 812 212 856 c 0,21,22
 212 883 212 883 229 883 c 0,23,24
 237 883 237 883 239.5 880.5 c 128,-1,25
 242 878 242 878 244 870.5 c 0,26,27
 251.03030303 844.136363636 251.03030303 844.136363636 284.515151515 829.068181818 c 128,-1,28
 318 814 318 814 352 814 c 128,-1,29
 386 814 386 814 420 829 c 128,-1,30
 454 844 454 844 460.5 853.5 c 128,-1,31
 467 863 467 863 469.5 868.5 c 128,-1,32
 472 874 472 874 473.5 876.5 c 0,33,34
 477.4 883 477.4 883 489.7 883 c 128,-1,35
 502 883 502 883 502 871 c 0,16,17
328 702 m 2,36,-1
 357 702 l 2,37,38
 392 702 392 702 396 686 c 2,39,-1
 564 28 l 2,40,41
 565 24 565 24 565 18 c 0,42,43
 565 -2 565 -2 521 -2 c 2,44,-1
 513 -2 l 2,45,46
 478 -2 478 -2 474 14 c 2,47,-1
 432 178 l 1,48,-1
 138 178 l 1,49,-1
 64 14 l 2,50,51
 57 -2 57 -2 23 -2 c 2,52,-1
 18 -2 l 2,53,54
 -23 -2 -23 -2 -23 14 c 0,55,56
 -23 19 -23 19 -18 29 c 2,57,-1
 287 686 l 2,58,59
 294 702 294 702 328 702 c 2,36,-1
334 610 m 1,60,-1
 332 610 l 1,61,62
 320 573 320 573 311 552 c 2,63,-1
 174 254 l 1,64,-1
 413 254 l 1,65,-1
 340 552 l 2,66,67
 334 575 334 575 334 610 c 1,60,-1
EndSplineSet
Position2: "'cpsp' Capital Spacing lookup 0 subtable" dx=5 dy=0 dh=10 dv=0
EndChar

StartChar: Acircumflex
Encoding: 194 194 9
Width: 613
GlyphClass: 2
Flags: MW
HStem: 178 76<174 413 174 432 138 413> 610 92<332 334 332 332> 682 20G<328 357 357 367>
VStem: -23 588<12.5 16>
AnchorPoint: "Anchor-1" 527 793 basechar 0
AnchorPoint: "Anchor-0" 279 0 basechar 0
LayerCount: 2
Fore
SplineSet
342 895 m 2,0,-1
 367 895 l 2,1,2
 399 895 399 895 411 873 c 2,3,-1
 458 785 l 2,4,5
 463 777 463 777 462 765 c 0,6,7
 461 753 461 753 437 753 c 2,8,-1
 435 753 l 2,9,10
 416 753 416 753 403 766 c 1,11,-1
 348 840 l 1,12,-1
 279 766 l 1,13,14
 263 753 263 753 244 753 c 2,15,-1
 242 753 l 2,16,17
 221 753 221 753 221 765 c 0,18,19
 221 774 221 774 228 785 c 2,20,-1
 294 873 l 2,21,22
 310 895 310 895 342 895 c 2,0,-1
328 702 m 2,23,-1
 357 702 l 2,24,25
 392 702 392 702 396 686 c 2,26,-1
 564 28 l 2,27,28
 565 24 565 24 565 18 c 0,29,30
 565 -2 565 -2 521 -2 c 2,31,-1
 513 -2 l 2,32,33
 478 -2 478 -2 474 14 c 2,34,-1
 432 178 l 1,35,-1
 138 178 l 1,36,-1
 64 14 l 2,37,38
 57 -2 57 -2 23 -2 c 2,39,-1
 18 -2 l 2,40,41
 -23 -2 -23 -2 -23 14 c 0,42,43
 -23 19 -23 19 -18 29 c 2,44,-1
 287 686 l 2,45,46
 294 702 294 702 328 702 c 2,23,-1
334 610 m 1,47,-1
 332 610 l 1,48,49
 320 573 320 573 311 552 c 2,50,-1
 174 254 l 1,51,-1
 413 254 l 1,52,-1
 340 552 l 2,53,54
 334 575 334 575 334 610 c 1,47,-1
EndSplineSet
Position2: "'cpsp' Capital Spacing lookup 0 subtable" dx=5 dy=0 dh=10 dv=0
EndChar

StartChar: Acircumflexacute
Encoding: 7844 7844 10
Width: 613
GlyphClass: 2
Flags: MW
HStem: 178 76<174 413 174 432 138 413> 610 92<332 334 332 332> 682 20G<328 357 357 367> 753 142<243 375 250 375 350 428 350 430>
VStem: -23 628
AnchorPoint: "Anchor-1" 489 829 basechar 0
AnchorPoint: "Anchor-0" 279 0 basechar 0
LayerCount: 2
Fore
SplineSet
508 935 m 0,0,1
 524 961 524 961 564.5 961 c 128,-1,2
 605 961 605 961 605 949 c 0,3,4
 605 943 605 943 513 842 c 0,5,6
 498 824 498 824 475.5 824 c 128,-1,7
 453 824 453 824 453 833 c 0,8,9
 453 847 453 847 508 935 c 0,0,1
350 895 m 2,10,-1
 375 895 l 2,11,12
 399 895 399 895 409 873 c 2,13,-1
 451 785 l 1,14,15
 456 777 456 777 455 765 c 128,-1,16
 454 753 454 753 430 753 c 2,17,-1
 428 753 l 2,18,19
 403 753 403 753 396 766 c 2,20,-1
 356 840 l 1,21,-1
 287 766 l 1,22,23
 271 753 271 753 252 753 c 2,24,-1
 250 753 l 2,25,26
 229 753 229 753 229 765 c 0,27,28
 229 774 229 774 236 785 c 2,29,-1
 302 873 l 2,30,31
 318 895 318 895 350 895 c 2,10,-1
328 702 m 2,32,-1
 357 702 l 2,33,34
 392 702 392 702 396 686 c 2,35,-1
 564 28 l 2,36,37
 565 24 565 24 565 18 c 0,38,39
 565 -2 565 -2 521 -2 c 2,40,-1
 513 -2 l 2,41,42
 478 -2 478 -2 474 14 c 2,43,-1
 432 178 l 1,44,-1
 138 178 l 1,45,-1
 64 14 l 2,46,47
 57 -2 57 -2 23 -2 c 2,48,-1
 18 -2 l 2,49,50
 -23 -2 -23 -2 -23 14 c 0,51,52
 -23 19 -23 19 -18 29 c 2,53,-1
 287 686 l 2,54,55
 294 702 294 702 328 702 c 2,32,-1
334 610 m 1,56,-1
 332 610 l 1,57,58
 320 573 320 573 311 552 c 2,59,-1
 174 254 l 1,60,-1
 413 254 l 1,61,-1
 340 552 l 2,62,63
 334 575 334 575 334 610 c 1,56,-1
EndSplineSet
Position2: "'cpsp' Capital Spacing lookup 0 subtable" dx=5 dy=0 dh=10 dv=0
EndChar

StartChar: Acircumflexdotbelow
Encoding: 7852 7852 11
Width: 613
GlyphClass: 2
Flags: MW
HStem: -175 95<255 273> 178 76<174 413 174 432 138 413> 610 92<332 334 332 332> 682 20G<328 357 357 367>
VStem: 220 89<-160 -95>
AnchorPoint: "Anchor-1" 273 -82 basechar 0
AnchorPoint: "Anchor-0" 258 -203 basechar 0
LayerCount: 2
Fore
SplineSet
342 895 m 2,0,-1
 367 895 l 2,1,2
 399 895 399 895 411 873 c 2,3,-1
 458 785 l 2,4,5
 463 777 463 777 462 765 c 128,-1,6
 461 753 461 753 437 753 c 2,7,-1
 435 753 l 2,8,9
 416 753 416 753 403 766 c 1,10,-1
 348 840 l 1,11,-1
 279 766 l 1,12,13
 263 753 263 753 244 753 c 2,14,-1
 242 753 l 2,15,16
 221 753 221 753 221 765 c 0,17,18
 221 774 221 774 228 785 c 2,19,-1
 294 873 l 2,20,21
 310 895 310 895 342 895 c 2,0,-1
328 702 m 2,22,-1
 357 702 l 2,23,24
 392 702 392 702 396 686 c 2,25,-1
 564 28 l 2,26,27
 565 24 565 24 565 18 c 0,28,29
 565 -2 565 -2 521 -2 c 2,30,-1
 513 -2 l 2,31,32
 478 -2 478 -2 474 14 c 2,33,-1
 432 178 l 1,34,-1
 138 178 l 1,35,-1
 64 14 l 2,36,37
 57 -2 57 -2 23 -2 c 2,38,-1
 18 -2 l 2,39,40
 -23 -2 -23 -2 -23 14 c 0,41,42
 -23 19 -23 19 -18 29 c 2,43,-1
 287 686 l 2,44,45
 294 702 294 702 328 702 c 2,22,-1
334 610 m 1,46,-1
 332 610 l 1,47,48
 320 573 320 573 311 552 c 2,49,-1
 174 254 l 1,50,-1
 413 254 l 1,51,-1
 340 552 l 2,52,53
 334 575 334 575 334 610 c 1,46,-1
225 -102 m 2,54,55
 228 -80 228 -80 268.5 -80 c 128,-1,56
 309 -80 309 -80 309 -102 c 1,57,-1
 304 -153 l 2,58,59
 301 -175 301 -175 260.5 -175 c 128,-1,60
 220 -175 220 -175 220 -153 c 1,61,-1
 225 -102 l 2,54,55
EndSplineSet
Position2: "'cpsp' Capital Spacing lookup 0 subtable" dx=5 dy=0 dh=10 dv=0
EndChar

StartChar: Acircumflexgrave
Encoding: 7846 7846 12
Width: 613
GlyphClass: 2
Flags: MW
HStem: 178 76<174 413 174 432 138 413> 610 92<332 334 332 332> 682 20G<328 357 357 367> 753 142<243 375 250 375 350 428 350 430>
VStem: -23 588<12.5 16>
AnchorPoint: "Anchor-1" 489 829 basechar 0
AnchorPoint: "Anchor-0" 279 0 basechar 0
LayerCount: 2
Fore
SplineSet
410 952 m 0,0,1
 410 964 410 964 447.5 964 c 128,-1,2
 485 964 485 964 495 938 c 0,3,4
 532 848 532 848 532 833 c 0,5,6
 532 824 532 824 508 824 c 128,-1,7
 484 824 484 824 473 842 c 0,8,9
 411 938 411 938 410 952 c 0,0,1
350 895 m 2,10,-1
 375 895 l 2,11,12
 399 895 399 895 409 873 c 2,13,-1
 451 785 l 1,14,15
 456 777 456 777 455 765 c 128,-1,16
 454 753 454 753 430 753 c 2,17,-1
 428 753 l 2,18,19
 403 753 403 753 396 766 c 2,20,-1
 356 840 l 1,21,-1
 287 766 l 1,22,23
 271 753 271 753 252 753 c 2,24,-1
 250 753 l 2,25,26
 229 753 229 753 229 765 c 0,27,28
 229 774 229 774 236 785 c 2,29,-1
 302 873 l 2,30,31
 318 895 318 895 350 895 c 2,10,-1
328 702 m 2,32,-1
 357 702 l 2,33,34
 392 702 392 702 396 686 c 2,35,-1
 564 28 l 2,36,37
 565 24 565 24 565 18 c 0,38,39
 565 -2 565 -2 521 -2 c 2,40,-1
 513 -2 l 2,41,42
 478 -2 478 -2 474 14 c 2,43,-1
 432 178 l 1,44,-1
 138 178 l 1,45,-1
 64 14 l 2,46,47
 57 -2 57 -2 23 -2 c 2,48,-1
 18 -2 l 2,49,50
 -23 -2 -23 -2 -23 14 c 0,51,52
 -23 19 -23 19 -18 29 c 2,53,-1
 287 686 l 2,54,55
 294 702 294 702 328 702 c 2,32,-1
334 610 m 1,56,-1
 332 610 l 1,57,58
 320 573 320 573 311 552 c 2,59,-1
 174 254 l 1,60,-1
 413 254 l 1,61,-1
 340 552 l 2,62,63
 334 575 334 575 334 610 c 1,56,-1
EndSplineSet
Position2: "'cpsp' Capital Spacing lookup 0 subtable" dx=5 dy=0 dh=10 dv=0
EndChar

StartChar: Acircumflexhookabove
Encoding: 7848 7848 13
Width: 613
GlyphClass: 2
Flags: MW
HStem: 178 76<174 413 174 432 138 413> 610 92<332 334 332 332> 682 20G<328 357 357 367> 753 142<243 375 250 375 350 428 350 430> 931 48<477.5 492>
VStem: 516 58<897 913>
AnchorPoint: "Anchor-1" 489 829 basechar 0
AnchorPoint: "Anchor-0" 279 0 basechar 0
LayerCount: 2
Fore
SplineSet
516 904 m 0,0,1
 516 931 516 931 482 931 c 0,2,3
 461 931 461 931 448 924.5 c 128,-1,4
 435 918 435 918 434 918 c 0,5,6
 428 918 428 918 421 930.5 c 128,-1,7
 414 943 414 943 414 952 c 128,-1,8
 414 961 414 961 441 970 c 128,-1,9
 468 979 468 979 497 979 c 128,-1,10
 526 979 526 979 550 962.5 c 128,-1,11
 574 946 574 946 574 913 c 128,-1,12
 574 880 574 880 532 847 c 0,13,14
 504 825 504 825 488.5 825 c 128,-1,15
 473 825 473 825 463.5 831.5 c 128,-1,16
 454 838 454 838 454 845.5 c 128,-1,17
 454 853 454 853 485 869 c 128,-1,18
 516 885 516 885 516 904 c 0,0,1
350 895 m 2,19,-1
 375 895 l 2,20,21
 399 895 399 895 409 873 c 2,22,-1
 451 785 l 1,23,24
 456 777 456 777 455 765 c 128,-1,25
 454 753 454 753 430 753 c 2,26,-1
 428 753 l 2,27,28
 403 753 403 753 396 766 c 2,29,-1
 356 840 l 1,30,-1
 287 766 l 1,31,32
 271 753 271 753 252 753 c 2,33,-1
 250 753 l 2,34,35
 229 753 229 753 229 765 c 0,36,37
 229 774 229 774 236 785 c 2,38,-1
 302 873 l 2,39,40
 318 895 318 895 350 895 c 2,19,-1
328 702 m 2,41,-1
 357 702 l 2,42,43
 392 702 392 702 396 686 c 2,44,-1
 564 28 l 2,45,46
 565 24 565 24 565 18 c 0,47,48
 565 -2 565 -2 521 -2 c 2,49,-1
 513 -2 l 2,50,51
 478 -2 478 -2 474 14 c 2,52,-1
 432 178 l 1,53,-1
 138 178 l 1,54,-1
 64 14 l 2,55,56
 57 -2 57 -2 23 -2 c 2,57,-1
 18 -2 l 2,58,59
 -23 -2 -23 -2 -23 14 c 0,60,61
 -23 19 -23 19 -18 29 c 2,62,-1
 287 686 l 2,63,64
 294 702 294 702 328 702 c 2,41,-1
334 610 m 1,65,-1
 332 610 l 1,66,67
 320 573 320 573 311 552 c 2,68,-1
 174 254 l 1,69,-1
 413 254 l 1,70,-1
 340 552 l 2,71,72
 334 575 334 575 334 610 c 1,65,-1
EndSplineSet
Position2: "'cpsp' Capital Spacing lookup 0 subtable" dx=5 dy=0 dh=10 dv=0
EndChar

StartChar: Acircumflextilde
Encoding: 7850 7850 14
Width: 613
GlyphClass: 2
Flags: MW
HStem: 178 76<174 413 174 432 138 413> 610 92<332 334 332 332> 682 20G<328 357 357 367> 754 117<237 370 244 370 345 437 345 439> 903 64<421 434.5> 934 64<299.5 313>
VStem: -23 588<12.5 16>
AnchorPoint: "Anchor-1" 366 877 basechar 0
AnchorPoint: "Anchor-0" 279 0 basechar 0
LayerCount: 2
Fore
SplineSet
479 989 m 0,0,1
 498 1003 498 1003 514.5 984.5 c 0,2,3
 531 966 531 966 512 947 c 0,4,5
 464 903 464 903 421.5 903 c 0,6,7
 379 903 379 903 348 918.5 c 0,8,9
 317 934 317 934 304.5 934 c 0,10,11
 292 934 292 934 263 917.5 c 0,12,13
 234 901 234 901 219 922.5 c 0,14,15
 204 944 204 944 221 957 c 0,16,17
 272 998 272 998 318 998 c 0,18,19
 348 998 348 998 381.5 982.5 c 0,20,21
 415 967 415 967 432.5 967 c 0,22,23
 450 967 450 967 479 989 c 0,0,1
345 871 m 2,24,-1
 370 871 l 2,25,26
 394 871 394 871 414 849 c 1,27,-1
 460 786 l 2,28,29
 465 778 465 778 464 766 c 0,30,31
 463 754 463 754 439 754 c 2,32,-1
 437 754 l 2,33,34
 422 754 422 754 405 767 c 1,35,-1
 351 816 l 1,36,-1
 281 767 l 1,37,38
 259 754 259 754 246 754 c 2,39,-1
 244 754 l 2,40,41
 223 754 223 754 223 766 c 0,42,43
 223 775 223 775 230 786 c 1,44,-1
 297 849 l 1,45,46
 324 871 324 871 345 871 c 2,24,-1
328 702 m 2,47,-1
 357 702 l 2,48,49
 392 702 392 702 396 686 c 2,50,-1
 564 28 l 2,51,52
 565 24 565 24 565 18 c 0,53,54
 565 -2 565 -2 521 -2 c 2,55,-1
 513 -2 l 2,56,57
 478 -2 478 -2 474 14 c 2,58,-1
 432 178 l 1,59,-1
 138 178 l 1,60,-1
 64 14 l 2,61,62
 57 -2 57 -2 23 -2 c 2,63,-1
 18 -2 l 2,64,65
 -23 -2 -23 -2 -23 14 c 0,66,67
 -23 19 -23 19 -18 29 c 2,68,-1
 287 686 l 2,69,70
 294 702 294 702 328 702 c 2,47,-1
334 610 m 1,71,-1
 332 610 l 1,72,73
 320 573 320 573 311 552 c 2,74,-1
 174 254 l 1,75,-1
 413 254 l 1,76,-1
 340 552 l 2,77,78
 334 575 334 575 334 610 c 1,71,-1
EndSplineSet
Position2: "'cpsp' Capital Spacing lookup 0 subtable" dx=5 dy=0 dh=10 dv=0
EndChar

StartChar: Adieresis
Encoding: 196 196 15
Width: 613
GlyphClass: 2
Flags: MW
HStem: 178 76<174 413 174 432 138 413> 610 92<332 334 332 332> 682 20G<328 357 357 367> 784 95<271 289 415 433>
VStem: 236 89<799 864> 380 89<799 864>
AnchorPoint: "Anchor-1" 362 877 basechar 0
AnchorPoint: "Anchor-0" 279 0 basechar 0
LayerCount: 2
Fore
SplineSet
241 857 m 2,0,1
 244 879 244 879 284.5 879 c 128,-1,2
 325 879 325 879 325 857 c 1,3,-1
 320 806 l 2,4,5
 317 784 317 784 276.5 784 c 128,-1,6
 236 784 236 784 236 806 c 1,7,-1
 241 857 l 2,0,1
385 857 m 2,8,9
 387 879 387 879 428 879 c 128,-1,10
 469 879 469 879 469 857 c 1,11,-1
 464 806 l 2,12,13
 461 784 461 784 420.5 784 c 128,-1,14
 380 784 380 784 380 806 c 1,15,-1
 385 857 l 2,8,9
328 702 m 2,16,-1
 357 702 l 2,17,18
 392 702 392 702 396 686 c 2,19,-1
 564 28 l 2,20,21
 565 24 565 24 565 18 c 0,22,23
 565 -2 565 -2 521 -2 c 2,24,-1
 513 -2 l 2,25,26
 478 -2 478 -2 474 14 c 2,27,-1
 432 178 l 1,28,-1
 138 178 l 1,29,-1
 64 14 l 2,30,31
 57 -2 57 -2 23 -2 c 2,32,-1
 18 -2 l 2,33,34
 -23 -2 -23 -2 -23 14 c 0,35,36
 -23 19 -23 19 -18 29 c 2,37,-1
 287 686 l 2,38,39
 294 702 294 702 328 702 c 2,16,-1
334 610 m 1,40,-1
 332 610 l 1,41,42
 320 573 320 573 311 552 c 2,43,-1
 174 254 l 1,44,-1
 413 254 l 1,45,-1
 340 552 l 2,46,47
 334 575 334 575 334 610 c 1,40,-1
EndSplineSet
Position2: "'cpsp' Capital Spacing lookup 0 subtable" dx=5 dy=0 dh=10 dv=0
EndChar

StartChar: Adotbelow
Encoding: 7840 7840 16
Width: 613
GlyphClass: 2
Flags: MW
HStem: -175 95<255 273> 178 76<174 413 174 432 138 413> 610 92<332 334 332 332> 682 20G<328 357 357 367>
VStem: 220 89<-160 -95>
AnchorPoint: "Anchor-1" 273 -82 basechar 0
AnchorPoint: "Anchor-0" 258 -203 basechar 0
LayerCount: 2
Fore
SplineSet
328 702 m 2,0,-1
 357 702 l 2,1,2
 392 702 392 702 396 686 c 2,3,-1
 564 28 l 2,4,5
 565 24 565 24 565 18 c 0,6,7
 565 -2 565 -2 521 -2 c 2,8,-1
 513 -2 l 2,9,10
 478 -2 478 -2 474 14 c 2,11,-1
 432 178 l 1,12,-1
 138 178 l 1,13,-1
 64 14 l 2,14,15
 57 -2 57 -2 23 -2 c 2,16,-1
 18 -2 l 2,17,18
 -23 -2 -23 -2 -23 14 c 0,19,20
 -23 19 -23 19 -18 29 c 2,21,-1
 287 686 l 2,22,23
 294 702 294 702 328 702 c 2,0,-1
334 610 m 1,24,-1
 332 610 l 1,25,26
 320 573 320 573 311 552 c 2,27,-1
 174 254 l 1,28,-1
 413 254 l 1,29,-1
 340 552 l 2,30,31
 334 575 334 575 334 610 c 1,24,-1
225 -102 m 2,32,33
 228 -80 228 -80 268.5 -80 c 128,-1,34
 309 -80 309 -80 309 -102 c 1,35,-1
 304 -153 l 2,36,37
 301 -175 301 -175 260.5 -175 c 128,-1,38
 220 -175 220 -175 220 -153 c 1,39,-1
 225 -102 l 2,32,33
EndSplineSet
Position2: "'cpsp' Capital Spacing lookup 0 subtable" dx=5 dy=0 dh=10 dv=0
EndChar

StartChar: Agrave
Encoding: 192 192 17
Width: 613
GlyphClass: 2
Flags: MW
HStem: 178 76<174 413 174 432 138 413> 610 92<332 334 332 332> 682 20G<328 357 357 367>
VStem: -23 588<12.5 16>
AnchorPoint: "Anchor-1" 363 877 basechar 0
AnchorPoint: "Anchor-0" 279 0 basechar 0
LayerCount: 2
Fore
SplineSet
271 909 m 128,-1,1
 318 909 318 909 333 883 c 0,2,3
 391 784 391 784 391 771 c 0,4,5
 391 762 391 762 361.5 762 c 0,6,7
 332 762 332 762 317 780 c 0,8,9
 229.202524971 880.192412681 229.202524971 880.192412681 226.101262485 886.478755556 c 0,10,11
 223 892.765098432 223 892.765098432 223 897 c 0,12,0
 224 909 224 909 271 909 c 128,-1,1
328 702 m 2,13,-1
 357 702 l 2,14,15
 392 702 392 702 396 686 c 2,16,-1
 564 28 l 2,17,18
 565 24 565 24 565 18 c 0,19,20
 565 -2 565 -2 521 -2 c 2,21,-1
 513 -2 l 2,22,23
 478 -2 478 -2 474 14 c 2,24,-1
 432 178 l 1,25,-1
 138 178 l 1,26,-1
 64 14 l 2,27,28
 57 -2 57 -2 23 -2 c 2,29,-1
 18 -2 l 2,30,31
 -23 -2 -23 -2 -23 14 c 0,32,33
 -23 19 -23 19 -18 29 c 2,34,-1
 287 686 l 2,35,36
 294 702 294 702 328 702 c 2,13,-1
334 610 m 1,37,-1
 332 610 l 1,38,39
 320 573 320 573 311 552 c 2,40,-1
 174 254 l 1,41,-1
 413 254 l 1,42,-1
 340 552 l 2,43,44
 334 575 334 575 334 610 c 1,37,-1
EndSplineSet
Position2: "'cpsp' Capital Spacing lookup 0 subtable" dx=5 dy=0 dh=10 dv=0
EndChar

StartChar: Ahookabove
Encoding: 7842 7842 18
Width: 613
GlyphClass: 2
Flags: MW
HStem: 178 76<174 413 174 432 138 413> 610 92<332 334 332 332> 682 20G<328 357 357 367> 876 51<347.5 362>
VStem: 386 66<825 859>
AnchorPoint: "Anchor-1" 361 877 basechar 0
AnchorPoint: "Anchor-0" 279 0 basechar 0
LayerCount: 2
Fore
SplineSet
386 851 m 0,0,1
 386 876 386 876 352 876 c 0,2,3
 327.285714286 876 327.285714286 876 316.142857143 869.5 c 128,-1,4
 305 863 305 863 304 863 c 0,5,6
 298 863 298 863 291 875.5 c 128,-1,7
 284 888 284 888 284 897 c 128,-1,8
 284 906 284 906 311.5 916.5 c 128,-1,9
 339 927 339 927 368 927 c 128,-1,10
 397 927 397 927 424.5 910 c 128,-1,11
 452 893 452 893 452 863 c 128,-1,12
 452 833 452 833 438 809.5 c 128,-1,13
 424 786 424 786 406 772 c 0,14,15
 364.857142857 740 364.857142857 740 350.928571429 740 c 128,-1,16
 337 740 337 740 325.5 745 c 128,-1,17
 314 750 314 750 314 759 c 128,-1,18
 314 768 314 768 332 780.5 c 0,19,20
 386 818 386 818 386 851 c 0,0,1
328 702 m 2,21,-1
 357 702 l 2,22,23
 392 702 392 702 396 686 c 2,24,-1
 564 28 l 2,25,26
 565 24 565 24 565 18 c 0,27,28
 565 -2 565 -2 521 -2 c 2,29,-1
 513 -2 l 2,30,31
 478 -2 478 -2 474 14 c 2,32,-1
 432 178 l 1,33,-1
 138 178 l 1,34,-1
 64 14 l 2,35,36
 57 -2 57 -2 23 -2 c 2,37,-1
 18 -2 l 2,38,39
 -23 -2 -23 -2 -23 14 c 0,40,41
 -23 19 -23 19 -18 29 c 2,42,-1
 287 686 l 2,43,44
 294 702 294 702 328 702 c 2,21,-1
334 610 m 1,45,-1
 332 610 l 1,46,47
 320 573 320 573 311 552 c 2,48,-1
 174 254 l 1,49,-1
 413 254 l 1,50,-1
 340 552 l 2,51,52
 334 575 334 575 334 610 c 1,45,-1
EndSplineSet
Position2: "'cpsp' Capital Spacing lookup 0 subtable" dx=5 dy=0 dh=10 dv=0
EndChar

StartChar: Amacron
Encoding: 256 256 19
Width: 613
GlyphClass: 2
Flags: MW
HStem: 178 76<174 413 174 432 138 413> 610 92<332 334 332 332> 682 20G<328 357 357 367> 789 71<218 459 233 451>
VStem: -23 588<12.5 16>
AnchorPoint: "Anchor-1" 357 877 basechar 0
AnchorPoint: "Anchor-0" 279 0 basechar 0
LayerCount: 2
Fore
SplineSet
233 860 m 2,0,-1
 459 860 l 2,1,2
 476 860 476 860 476 834 c 0,3,4
 476 789 476 789 451 789 c 2,5,-1
 225 789 l 2,6,7
 208 789 208 789 208 816 c 0,8,9
 208 860 208 860 233 860 c 2,0,-1
328 702 m 2,10,-1
 357 702 l 2,11,12
 392 702 392 702 396 686 c 2,13,-1
 564 28 l 2,14,15
 565 24 565 24 565 18 c 0,16,17
 565 -2 565 -2 521 -2 c 2,18,-1
 513 -2 l 2,19,20
 478 -2 478 -2 474 14 c 2,21,-1
 432 178 l 1,22,-1
 138 178 l 1,23,-1
 64 14 l 2,24,25
 57 -2 57 -2 23 -2 c 2,26,-1
 18 -2 l 2,27,28
 -23 -2 -23 -2 -23 14 c 0,29,30
 -23 19 -23 19 -18 29 c 2,31,-1
 287 686 l 2,32,33
 294 702 294 702 328 702 c 2,10,-1
334 610 m 1,34,-1
 332 610 l 1,35,36
 320 573 320 573 311 552 c 2,37,-1
 174 254 l 1,38,-1
 413 254 l 1,39,-1
 340 552 l 2,40,41
 334 575 334 575 334 610 c 1,34,-1
EndSplineSet
Position2: "'cpsp' Capital Spacing lookup 0 subtable" dx=5 dy=0 dh=10 dv=0
EndChar

StartChar: Aogonek
Encoding: 260 260 20
Width: 613
GlyphClass: 2
Flags: MW
HStem: -183 70<567 580.5> 178 76<174 413 174 432 138 413> 610 92<332 334 332 332> 682 20G<328 357 357 367>
VStem: 451 69<-90 -85>
AnchorPoint: "Anchor-1" 342 700 basechar 0
AnchorPoint: "Anchor-0" 504 -203 basechar 0
LayerCount: 2
Fore
SplineSet
642 -95 m 0,0,1
 648 -95 648 -95 648 -108 c 0,2,3
 648 -183 648 -183 559 -183 c 0,4,5
 497 -183 497 -183 474 -156 c 128,-1,6
 451 -129 451 -129 451 -101.5 c 0,7,8
 451 -74 451 -74 460 -44.5 c 128,-1,9
 469 -15 469 -15 488 1 c 1,10,11
 477 6 477 6 474 14 c 2,12,-1
 432 178 l 1,13,-1
 138 178 l 1,14,-1
 64 14 l 2,15,16
 57 -2 57 -2 23 -2 c 2,17,-1
 18 -2 l 2,18,19
 -23 -2 -23 -2 -23 14 c 0,20,21
 -23 19 -23 19 -18 29 c 2,22,-1
 287 686 l 2,23,24
 294 702 294 702 328 702 c 2,25,-1
 357 702 l 2,26,27
 392 702 392 702 396 686 c 2,28,-1
 564 28 l 2,29,30
 565 24 565 24 565 18 c 0,31,32
 565 3 565 3 539 -1 c 1,33,34
 538 -6 538 -6 529 -30.5 c 128,-1,35
 520 -55 520 -55 520 -70 c 0,36,37
 520 -113 520 -113 578 -113 c 0,38,39
 596 -113 596 -113 618 -104 c 128,-1,40
 640 -95 640 -95 642 -95 c 0,0,1
413 254 m 1,41,-1
 340 552 l 2,42,43
 334 575 334 575 334 610 c 1,44,-1
 332 610 l 1,45,46
 320 573 320 573 311 552 c 2,47,-1
 174 254 l 1,48,-1
 413 254 l 1,41,-1
EndSplineSet
Position2: "'cpsp' Capital Spacing lookup 0 subtable" dx=5 dy=0 dh=10 dv=0
EndChar

StartChar: Aring
Encoding: 197 197 21
Width: 613
GlyphClass: 2
Flags: MW
HStem: 178 76<174 413 174 432 138 413> 610 92<332 334 332 332> 682 20G<328 357 357 367> 741 35<323.5 352.5 323.5 359> 875 35<333.5 361>
VStem: 258 35<808 836 808 842.5> 392 35<815.5 843.5>
AnchorPoint: "Anchor-1" 363 877 basechar 0
AnchorPoint: "Anchor-0" 279 0 basechar 0
LayerCount: 2
Fore
SplineSet
286 882.5 m 128,-1,1
 314 910 314 910 349 910 c 128,-1,2
 384 910 384 910 405.5 888 c 128,-1,3
 427 866 427 866 427 831 c 128,-1,4
 427 796 427 796 399.5 768.5 c 128,-1,5
 372 741 372 741 336.5 741 c 128,-1,6
 301 741 301 741 279.5 762.5 c 128,-1,7
 258 784 258 784 258 819.5 c 128,-1,0
 258 855 258 855 286 882.5 c 128,-1,1
379.5 862.5 m 128,-1,9
 367 875 367 875 346.5 875 c 128,-1,10
 326 875 326 875 309.5 859 c 128,-1,11
 293 843 293 843 293 822 c 128,-1,12
 293 801 293 801 305 788.5 c 128,-1,13
 317 776 317 776 338.5 776 c 128,-1,14
 360 776 360 776 376 792 c 128,-1,15
 392 808 392 808 392 829 c 128,-1,8
 392 850 392 850 379.5 862.5 c 128,-1,9
328 702 m 2,16,-1
 357 702 l 2,17,18
 392 702 392 702 396 686 c 2,19,-1
 564 28 l 2,20,21
 565 24 565 24 565 18 c 0,22,23
 565 -2 565 -2 521 -2 c 2,24,-1
 513 -2 l 2,25,26
 478 -2 478 -2 474 14 c 2,27,-1
 432 178 l 1,28,-1
 138 178 l 1,29,-1
 64 14 l 2,30,31
 57 -2 57 -2 23 -2 c 2,32,-1
 18 -2 l 2,33,34
 -23 -2 -23 -2 -23 14 c 0,35,36
 -23 19 -23 19 -18 29 c 2,37,-1
 287 686 l 2,38,39
 294 702 294 702 328 702 c 2,16,-1
334 610 m 1,40,-1
 332 610 l 1,41,42
 320 573 320 573 311 552 c 2,43,-1
 174 254 l 1,44,-1
 413 254 l 1,45,-1
 340 552 l 2,46,47
 334 575 334 575 334 610 c 1,40,-1
EndSplineSet
Position2: "'cpsp' Capital Spacing lookup 0 subtable" dx=5 dy=0 dh=10 dv=0
EndChar

StartChar: Aringacute
Encoding: 506 506 22
Width: 613
GlyphClass: 2
Flags: MW
HStem: 178 76<174 413 174 432 138 413> 758 35<338.5 366> 822 107<345 457>
VStem: 263 35<692.5 719 691 725.5> 397 35<704.5 726.5>
AnchorPoint: "Anchor-1" 368 760 basechar 0
AnchorPoint: "Anchor-0" 0 0 basechar 0
LayerCount: 2
Fore
SplineSet
376 903 m 0,0,1
 393 929 393 929 440 929 c 128,-1,2
 487 929 487 929 487 916 c 0,3,4
 487 911 487 911 469 895.5 c 128,-1,5
 451 880 451 880 445.5 875 c 128,-1,6
 440 870 440 870 428.5 860 c 128,-1,7
 417 850 417 850 406 840 c 0,8,9
 388 822 388 822 359.5 822 c 128,-1,10
 331 822 331 822 331 832 c 1,11,12
 335 839 335 839 376 903 c 0,0,1
405 652 m 1,13,-1
 564 28 l 2,14,15
 565 24 565 24 565 18 c 0,16,17
 565 -2 565 -2 521 -2 c 2,18,-1
 513 -2 l 2,19,20
 478 -2 478 -2 474 14 c 2,21,-1
 432 178 l 1,22,-1
 138 178 l 1,23,-1
 64 14 l 2,24,25
 57 -2 57 -2 23 -2 c 2,26,-1
 18 -2 l 2,27,28
 -23 -2 -23 -2 -23 14 c 0,29,30
 -23 19 -23 19 -18 29 c 2,31,-1
 274 659 l 1,32,33
 263 676 263 676 263 707 c 128,-1,34
 263 738 263 738 291 765.5 c 128,-1,35
 319 793 319 793 354 793 c 128,-1,36
 389 793 389 793 410.5 771 c 128,-1,37
 432 749 432 749 432 715 c 128,-1,38
 432 681 432 681 405 652 c 1,13,-1
384.5 745.5 m 128,-1,40
 372 758 372 758 351.5 758 c 128,-1,41
 331 758 331 758 314.5 742 c 128,-1,42
 298 726 298 726 298 705 c 128,-1,43
 298 684 298 684 310 671.5 c 128,-1,44
 322 659 322 659 343.5 659 c 128,-1,45
 365 659 365 659 381 675 c 128,-1,46
 397 691 397 691 397 712 c 128,-1,39
 397 733 397 733 384.5 745.5 c 128,-1,40
413 254 m 1,47,-1
 340 552 l 2,48,49
 334 575 334 575 334 610 c 1,50,-1
 332 610 l 1,51,52
 320 573 320 573 311 552 c 2,53,-1
 174 254 l 1,54,-1
 413 254 l 1,47,-1
EndSplineSet
Position2: "'cpsp' Capital Spacing lookup 0 subtable" dx=5 dy=0 dh=10 dv=0
EndChar

StartChar: Atilde
Encoding: 195 195 23
Width: 613
GlyphClass: 2
Flags: MW
HStem: 178 76<174 413 174 432 138 413> 610 92<332 334 332 332> 682 20G<328 357 357 367> 762 64<420 434.5> 793 64<286.5 301.5>
VStem: -23 588<12.5 16>
AnchorPoint: "Anchor-1" 377 877 basechar 0
AnchorPoint: "Anchor-0" 279 0 basechar 0
LayerCount: 2
Fore
SplineSet
484 848 m 0,0,1
 505 862 505 862 523 844 c 0,2,3
 541 826 541 826 520 806 c 0,4,5
 467 762 467 762 420 762 c 0,6,7
 373 762 373 762 339 777.5 c 0,8,9
 305 793 305 793 291 793 c 0,10,11
 277 793 277 793 245.5 776.5 c 0,12,13
 214 760 214 760 198 781.5 c 0,14,15
 182 803 182 803 200 816 c 0,16,17
 257 857 257 857 307 857 c 0,18,19
 338 857 338 857 375.5 841.5 c 0,20,21
 413 826 413 826 432 826 c 0,22,23
 451 826 451 826 484 848 c 0,0,1
328 702 m 2,24,-1
 357 702 l 2,25,26
 392 702 392 702 396 686 c 2,27,-1
 564 28 l 2,28,29
 565 24 565 24 565 18 c 0,30,31
 565 -2 565 -2 521 -2 c 2,32,-1
 513 -2 l 2,33,34
 478 -2 478 -2 474 14 c 2,35,-1
 432 178 l 1,36,-1
 138 178 l 1,37,-1
 64 14 l 2,38,39
 57 -2 57 -2 23 -2 c 2,40,-1
 18 -2 l 2,41,42
 -23 -2 -23 -2 -23 14 c 0,43,44
 -23 19 -23 19 -18 29 c 2,45,-1
 287 686 l 2,46,47
 294 702 294 702 328 702 c 2,24,-1
334 610 m 1,48,-1
 332 610 l 1,49,50
 320 573 320 573 311 552 c 2,51,-1
 174 254 l 1,52,-1
 413 254 l 1,53,-1
 340 552 l 2,54,55
 334 575 334 575 334 610 c 1,48,-1
EndSplineSet
Position2: "'cpsp' Capital Spacing lookup 0 subtable" dx=5 dy=0 dh=10 dv=0
EndChar

StartChar: AE
Encoding: 198 198 24
Width: 915
GlyphClass: 2
Flags: MW
HStem: 0 76<467.5 778 530 770> 178 75<180 419 180 429 134 419> 320 76<502 771 502 502> 624 76<468 834 468 468>
VStem: -47 906<8 685.5>
AnchorPoint: "Anchor-1" 458 700 basechar 0
AnchorPoint: "Anchor-0" 0 0 basechar 0
LayerCount: 2
Fore
SplineSet
392 700 m 2,0,-1
 842 700 l 2,1,2
 859 700 859 700 859 678 c 0,3,4
 859 624 859 624 834 624 c 2,5,-1
 468 624 l 1,6,-1
 494 396 l 1,7,-1
 779 396 l 2,8,9
 796 396 796 396 796 374 c 0,10,11
 796 320 796 320 771 320 c 2,12,-1
 502 320 l 1,13,-1
 530 76 l 1,14,-1
 778 76 l 2,15,16
 795 76 795 76 795 54 c 0,17,18
 795 0 795 0 770 0 c 2,19,-1
 478 0 l 2,20,21
 448 0 448 0 445 29 c 2,22,-1
 429 178 l 1,23,-1
 134 178 l 1,24,-1
 37 14 l 2,25,26
 27 -2 27 -2 -4 -2 c 2,27,-1
 -9 -2 l 2,28,29
 -47 -2 -47 -2 -47 13 c 0,30,31
 -47 20 -47 20 -41 31 c 2,32,-1
 347 673 l 2,33,34
 363 700 363 700 392 700 c 2,0,-1
387 610 m 1,35,-1
 360 552 l 1,36,-1
 180 253 l 1,37,-1
 419 253 l 1,38,-1
 389 552 l 1,39,-1
 389 610 l 1,40,-1
 387 610 l 1,35,-1
EndSplineSet
Position2: "'cpsp' Capital Spacing lookup 0 subtable" dx=5 dy=0 dh=10 dv=0
EndChar

StartChar: AEacute
Encoding: 508 508 25
Width: 915
GlyphClass: 2
Flags: MW
HStem: 0 76<467.5 778 530 770> 178 75<180 419 180 429 134 419> 320 76<502 771 502 502> 624 76<468 834 468 468>
VStem: -47 906<8 685.5>
AnchorPoint: "Anchor-1" 503 877 basechar 0
AnchorPoint: "Anchor-0" 0 0 basechar 0
LayerCount: 2
Fore
SplineSet
554 909 m 128,-1,1
 601 909 601 909 601 897 c 0,2,3
 601 886 601 886 495 780 c 0,4,5
 477 762 477 762 448.5 762 c 128,-1,6
 420 762 420 762 420 771 c 0,7,8
 420 783 420 783 489 883 c 0,9,0
 507 909 507 909 554 909 c 128,-1,1
392 700 m 2,10,-1
 842 700 l 2,11,12
 859 700 859 700 859 678 c 0,13,14
 859 624 859 624 834 624 c 2,15,-1
 468 624 l 1,16,-1
 494 396 l 1,17,-1
 779 396 l 2,18,19
 796 396 796 396 796 374 c 0,20,21
 796 320 796 320 771 320 c 2,22,-1
 502 320 l 1,23,-1
 530 76 l 1,24,-1
 778 76 l 2,25,26
 795 76 795 76 795 54 c 0,27,28
 795 0 795 0 770 0 c 2,29,-1
 478 0 l 2,30,31
 448 0 448 0 445 29 c 2,32,-1
 429 178 l 1,33,-1
 134 178 l 1,34,-1
 37 14 l 2,35,36
 27 -2 27 -2 -4 -2 c 2,37,-1
 -9 -2 l 2,38,39
 -47 -2 -47 -2 -47 13 c 0,40,41
 -47 20 -47 20 -41 31 c 2,42,-1
 347 673 l 2,43,44
 363 700 363 700 392 700 c 2,10,-1
387 610 m 1,45,-1
 360 552 l 1,46,-1
 180 253 l 1,47,-1
 419 253 l 1,48,-1
 389 552 l 1,49,-1
 389 610 l 1,50,-1
 387 610 l 1,45,-1
EndSplineSet
Position2: "'cpsp' Capital Spacing lookup 0 subtable" dx=5 dy=0 dh=10 dv=0
EndChar

StartChar: B
Encoding: 66 66 26
Width: 593
GlyphClass: 2
Flags: MW
HStem: 0 76<68.5 295 144 255> 322 76<170 299 178 299 299 304> 624 76<201 201 201 318>
VStem: 450 91<176 252> 453 92<506.5 563>
LayerCount: 2
Fore
SplineSet
151 700 m 2,0,-1
 335 700 l 2,1,2
 437 700 437 700 491 658 c 128,-1,3
 545 616 545 616 545 544 c 0,4,5
 545 488 545 488 505.5 436.5 c 128,-1,6
 466 385 466 385 415 371 c 1,7,-1
 414 367 l 1,8,9
 427.943661972 364.211267606 427.943661972 364.211267606 453.971830986 350.605633803 c 128,-1,10
 480 337 480 337 497 322 c 128,-1,11
 514 307 514 307 527.5 279.5 c 128,-1,12
 541 252 541 252 541 219 c 0,13,14
 541 109 541 109 464 54.5 c 128,-1,15
 387 0 387 0 255 0 c 2,16,-1
 78 0 l 2,17,18
 51 0 51 0 51 24 c 0,19,20
 51 28 51 28 118 670 c 0,21,22
 121 700 121 700 151 700 c 2,0,-1
201 624 m 1,23,-1
 178 398 l 1,24,-1
 299 398 l 2,25,26
 365 398 365 398 409 437 c 128,-1,27
 453 476 453 476 453 532 c 0,28,29
 453 624 453 624 318 624 c 2,30,-1
 201 624 l 1,23,-1
170 322 m 1,31,-1
 144 76 l 1,32,-1
 295 76 l 2,33,34
 365 76 365 76 407.5 115 c 128,-1,35
 450 154 450 154 450 220 c 0,36,37
 450 269 450 269 412.5 295.5 c 128,-1,38
 375 322 375 322 304 322 c 2,39,-1
 170 322 l 1,31,-1
EndSplineSet
Position2: "'cpsp' Capital Spacing lookup 0 subtable" dx=5 dy=0 dh=10 dv=0
EndChar

StartChar: C
Encoding: 67 67 27
Width: 619
GlyphClass: 2
Flags: MW
HStem: -6 76<264.5 366.5> 630 76<296 440>
VStem: 38 90<212 383.5 212 387.5>
AnchorPoint: "Anchor-1" 389 700 basechar 0
AnchorPoint: "Anchor-0" 310 0 basechar 0
LayerCount: 2
Fore
SplineSet
231 671 m 128,-1,1
 305 706 305 706 391 706 c 128,-1,2
 477 706 477 706 533.5 686 c 128,-1,3
 590 666 590 666 590 645 c 0,4,5
 590 633 590 633 574.5 609.5 c 128,-1,6
 559 586 559 586 550 586 c 0,7,8
 548 586 548 586 528 597 c 128,-1,9
 508 608 508 608 471 619 c 128,-1,10
 434 630 434 630 392 630 c 0,11,12
 299 630 299 630 238.5 583.5 c 128,-1,13
 178 537 178 537 153 462.5 c 128,-1,14
 128 388 128 388 128 281.5 c 128,-1,15
 128 175 128 175 178.5 122.5 c 128,-1,16
 229 70 229 70 334 70 c 0,17,18
 382 70 382 70 426 82 c 128,-1,19
 470 94 470 94 494 106 c 128,-1,20
 518 118 518 118 519 118 c 0,21,22
 526 118 526 118 526 101 c 128,-1,23
 526 84 526 84 519 52 c 0,24,25
 513 25 513 25 453.5 9.5 c 128,-1,26
 394 -6 394 -6 326 -6 c 0,27,28
 179 -6 179 -6 108.5 62.5 c 128,-1,29
 38 131 38 131 38 274 c 0,30,31
 38 456.048780488 38 456.048780488 116 574 c 0,32,0
 157 636 157 636 231 671 c 128,-1,1
EndSplineSet
Position2: "'cpsp' Capital Spacing lookup 0 subtable" dx=5 dy=0 dh=10 dv=0
EndChar

StartChar: Cacute
Encoding: 262 262 28
Width: 619
GlyphClass: 2
Flags: MW
HStem: -6 76<264.5 366.5> 630 76<296 440>
VStem: 38 90<212 383.5 212 387.5>
AnchorPoint: "Anchor-1" 434 877 basechar 0
AnchorPoint: "Anchor-0" 310 0 basechar 0
LayerCount: 2
Fore
SplineSet
485 909 m 128,-1,1
 532 909 532 909 532 897 c 0,2,3
 532 886 532 886 426 780 c 0,4,5
 408 762 408 762 379.5 762 c 128,-1,6
 351 762 351 762 351 771 c 0,7,8
 351 783 351 783 420 883 c 0,9,0
 438 909 438 909 485 909 c 128,-1,1
231 671 m 128,-1,11
 305 706 305 706 391 706 c 128,-1,12
 477 706 477 706 533.5 686 c 128,-1,13
 590 666 590 666 590 645 c 0,14,15
 590 633 590 633 574.5 609.5 c 128,-1,16
 559 586 559 586 550 586 c 0,17,18
 548 586 548 586 528 597 c 128,-1,19
 508 608 508 608 471 619 c 128,-1,20
 434 630 434 630 392 630 c 0,21,22
 299 630 299 630 238.5 583.5 c 128,-1,23
 178 537 178 537 153 462.5 c 128,-1,24
 128 388 128 388 128 281.5 c 128,-1,25
 128 175 128 175 178.5 122.5 c 128,-1,26
 229 70 229 70 334 70 c 0,27,28
 382 70 382 70 426 82 c 128,-1,29
 470 94 470 94 494 106 c 128,-1,30
 518 118 518 118 519 118 c 0,31,32
 526 118 526 118 526 101 c 128,-1,33
 526 84 526 84 519 52 c 0,34,35
 513 25 513 25 453.5 9.5 c 128,-1,36
 394 -6 394 -6 326 -6 c 0,37,38
 179 -6 179 -6 108.5 62.5 c 128,-1,39
 38 131 38 131 38 274 c 0,40,41
 38 456.048780488 38 456.048780488 116 574 c 0,42,10
 157 636 157 636 231 671 c 128,-1,11
EndSplineSet
Substitution2: "'locl' Localized Forms in Latin lookup 11 subtable" Cacute.loclPLK
Substitution2: "'aalt' Access All Alternates lookup 0 subtable" Cacute.loclPLK
Position2: "'cpsp' Capital Spacing lookup 0 subtable" dx=5 dy=0 dh=10 dv=0
EndChar

StartChar: Ccaron
Encoding: 268 268 29
Width: 619
GlyphClass: 2
Flags: MW
HStem: -6 76<264.5 366.5> 630 76<296 440>
VStem: 38 90<212 383.5 212 387.5>
AnchorPoint: "Anchor-1" 407 877 basechar 0
AnchorPoint: "Anchor-0" 310 0 basechar 0
LayerCount: 2
Fore
SplineSet
505 901 m 2,0,-1
 507 901 l 2,1,2
 529 901 529 901 529 887 c 0,3,4
 529 879 529 879 522 869 c 2,5,-1
 455 781 l 2,6,7
 439 759 439 759 407 759 c 2,8,-1
 382 759 l 2,9,10
 350 759 350 759 338 781 c 2,11,-1
 292 869 l 2,12,13
 287 878 287 878 288 889.5 c 128,-1,14
 289 901 289 901 312 901 c 2,15,-1
 314 901 l 2,16,17
 334 901 334 901 347 888 c 1,18,-1
 400 814 l 1,19,-1
 471 888 l 1,20,21
 487 901 487 901 505 901 c 2,0,-1
231 671 m 128,-1,23
 305 706 305 706 391 706 c 128,-1,24
 477 706 477 706 533.5 686 c 128,-1,25
 590 666 590 666 590 645 c 0,26,27
 590 633 590 633 574.5 609.5 c 128,-1,28
 559 586 559 586 550 586 c 0,29,30
 548 586 548 586 528 597 c 128,-1,31
 508 608 508 608 471 619 c 128,-1,32
 434 630 434 630 392 630 c 0,33,34
 299 630 299 630 238.5 583.5 c 128,-1,35
 178 537 178 537 153 462.5 c 128,-1,36
 128 388 128 388 128 281.5 c 128,-1,37
 128 175 128 175 178.5 122.5 c 128,-1,38
 229 70 229 70 334 70 c 0,39,40
 382 70 382 70 426 82 c 128,-1,41
 470 94 470 94 494 106 c 128,-1,42
 518 118 518 118 519 118 c 0,43,44
 526 118 526 118 526 101 c 128,-1,45
 526 84 526 84 519 52 c 0,46,47
 513 25 513 25 453.5 9.5 c 128,-1,48
 394 -6 394 -6 326 -6 c 0,49,50
 179 -6 179 -6 108.5 62.5 c 128,-1,51
 38 131 38 131 38 274 c 0,52,53
 38 456.048780488 38 456.048780488 116 574 c 0,54,22
 157 636 157 636 231 671 c 128,-1,23
EndSplineSet
Position2: "'cpsp' Capital Spacing lookup 0 subtable" dx=5 dy=0 dh=10 dv=0
EndChar

StartChar: Ccedilla
Encoding: 199 199 30
Width: 619
GlyphClass: 2
Flags: MW
HStem: -210 49<257 274.5 238.5 293.5> -6 76<330 330> 630 76<296 440>
VStem: 38 90<212 383.5 212 387.5> 322 72<-139 -102>
AnchorPoint: "Anchor-1" 389 700 basechar 0
AnchorPoint: "Anchor-0" 267 -203 basechar 0
LayerCount: 2
Fore
SplineSet
231 671 m 128,-1,1
 305 706 305 706 391 706 c 128,-1,2
 477 706 477 706 533.5 686 c 128,-1,3
 590 666 590 666 590 645 c 0,4,5
 590 633 590 633 574.5 609.5 c 128,-1,6
 559 586 559 586 550 586 c 0,7,8
 548 586 548 586 528 597 c 128,-1,9
 508 608 508 608 471 619 c 128,-1,10
 434 630 434 630 392 630 c 0,11,12
 299 630 299 630 238.5 583.5 c 128,-1,13
 178 537 178 537 153 462.5 c 128,-1,14
 128 388 128 388 128 281.5 c 128,-1,15
 128 175 128 175 178.5 122.5 c 128,-1,16
 229 70 229 70 334 70 c 0,17,18
 382 70 382 70 426 82 c 128,-1,19
 470 94 470 94 494 106 c 128,-1,20
 518 118 518 118 519 118 c 0,21,22
 526 118 526 118 526 101 c 128,-1,23
 526 84 526 84 519 52 c 0,24,25
 513 26 513 26 455 10.5 c 128,-1,26
 397 -5 397 -5 330 -6 c 1,27,-1
 312 -49 l 1,28,-1
 316 -49 l 2,29,30
 331 -49 331 -49 346 -52 c 128,-1,31
 361 -55 361 -55 377.5 -70.5 c 128,-1,32
 394 -86 394 -86 394 -111 c 0,33,34
 394 -210 394 -210 269 -210 c 0,35,36
 209.882352941 -210 209.882352941 -210 183.5 -190.5 c 0,37,38
 172 -182 172 -182 172 -169 c 0,39,40
 172 -136 172 -136 184 -136 c 1,41,-1
 194 -142 l 2,42,43
 225.666666667 -161 225.666666667 -161 262 -161 c 0,44,45
 322 -161 322 -161 322 -121 c 0,46,47
 322 -108 322 -108 312.5 -100.5 c 128,-1,48
 303 -93 303 -93 292 -90.5 c 0,49,50
 262 -83.6818181818 262 -83.6818181818 262 -69 c 1,51,52
 268 -52 268 -52 287 -5 c 1,53,54
 161 4 161 4 99.5 72.5 c 128,-1,55
 38 141 38 141 38 274 c 0,56,57
 38 456.048780488 38 456.048780488 116 574 c 0,58,0
 157 636 157 636 231 671 c 128,-1,1
EndSplineSet
Position2: "'cpsp' Capital Spacing lookup 0 subtable" dx=5 dy=0 dh=10 dv=0
EndChar

StartChar: Ccircumflex
Encoding: 264 264 31
Width: 619
GlyphClass: 2
Flags: MW
HStem: -6 76<264.5 366.5> 630 76<296 440>
VStem: 38 90<212 383.5 212 387.5>
AnchorPoint: "Anchor-1" 574 793 basechar 0
AnchorPoint: "Anchor-0" 310 0 basechar 0
LayerCount: 2
Fore
SplineSet
389 895 m 2,0,-1
 414 895 l 2,1,2
 446 895 446 895 458 873 c 2,3,-1
 505 785 l 2,4,5
 510 777 510 777 509 765 c 128,-1,6
 508 753 508 753 484 753 c 2,7,-1
 482 753 l 2,8,9
 463 753 463 753 450 766 c 1,10,-1
 395 840 l 1,11,-1
 326 766 l 1,12,13
 310 753 310 753 291 753 c 2,14,-1
 289 753 l 2,15,16
 268 753 268 753 268 765 c 0,17,18
 268 774 268 774 275 785 c 2,19,-1
 341 873 l 2,20,21
 357 895 357 895 389 895 c 2,0,-1
231 671 m 128,-1,23
 305 706 305 706 391 706 c 128,-1,24
 477 706 477 706 533.5 686 c 128,-1,25
 590 666 590 666 590 645 c 0,26,27
 590 633 590 633 574.5 609.5 c 128,-1,28
 559 586 559 586 550 586 c 0,29,30
 548 586 548 586 528 597 c 128,-1,31
 508 608 508 608 471 619 c 128,-1,32
 434 630 434 630 392 630 c 0,33,34
 299 630 299 630 238.5 583.5 c 128,-1,35
 178 537 178 537 153 462.5 c 128,-1,36
 128 388 128 388 128 281.5 c 128,-1,37
 128 175 128 175 178.5 122.5 c 128,-1,38
 229 70 229 70 334 70 c 0,39,40
 382 70 382 70 426 82 c 128,-1,41
 470 94 470 94 494 106 c 128,-1,42
 518 118 518 118 519 118 c 0,43,44
 526 118 526 118 526 101 c 128,-1,45
 526 84 526 84 519 52 c 0,46,47
 513 25 513 25 453.5 9.5 c 128,-1,48
 394 -6 394 -6 326 -6 c 0,49,50
 179 -6 179 -6 108.5 62.5 c 128,-1,51
 38 131 38 131 38 274 c 0,52,53
 38 456.048780488 38 456.048780488 116 574 c 0,54,22
 157 636 157 636 231 671 c 128,-1,23
EndSplineSet
Position2: "'cpsp' Capital Spacing lookup 0 subtable" dx=5 dy=0 dh=10 dv=0
EndChar

StartChar: Cdotaccent
Encoding: 266 266 32
Width: 619
GlyphClass: 2
Flags: MW
HStem: -6 76<264.5 366.5> 630 76<296 440> 784 95<390 408>
VStem: 38 90<212 383.5 212 387.5> 355 89<799 864>
AnchorPoint: "Anchor-1" 408 877 basechar 0
AnchorPoint: "Anchor-0" 310 0 basechar 0
LayerCount: 2
Fore
SplineSet
360 857 m 2,0,1
 363 879 363 879 403.5 879 c 128,-1,2
 444 879 444 879 444 857 c 1,3,-1
 439 806 l 2,4,5
 436 784 436 784 395.5 784 c 128,-1,6
 355 784 355 784 355 806 c 1,7,-1
 360 857 l 2,0,1
231 671 m 128,-1,9
 305 706 305 706 391 706 c 128,-1,10
 477 706 477 706 533.5 686 c 128,-1,11
 590 666 590 666 590 645 c 0,12,13
 590 633 590 633 574.5 609.5 c 128,-1,14
 559 586 559 586 550 586 c 0,15,16
 548 586 548 586 528 597 c 128,-1,17
 508 608 508 608 471 619 c 128,-1,18
 434 630 434 630 392 630 c 0,19,20
 299 630 299 630 238.5 583.5 c 128,-1,21
 178 537 178 537 153 462.5 c 128,-1,22
 128 388 128 388 128 281.5 c 128,-1,23
 128 175 128 175 178.5 122.5 c 128,-1,24
 229 70 229 70 334 70 c 0,25,26
 382 70 382 70 426 82 c 128,-1,27
 470 94 470 94 494 106 c 128,-1,28
 518 118 518 118 519 118 c 0,29,30
 526 118 526 118 526 101 c 128,-1,31
 526 84 526 84 519 52 c 0,32,33
 513 25 513 25 453.5 9.5 c 128,-1,34
 394 -6 394 -6 326 -6 c 0,35,36
 179 -6 179 -6 108.5 62.5 c 128,-1,37
 38 131 38 131 38 274 c 0,38,39
 38 456.048780488 38 456.048780488 116 574 c 0,40,8
 157 636 157 636 231 671 c 128,-1,9
EndSplineSet
Position2: "'cpsp' Capital Spacing lookup 0 subtable" dx=5 dy=0 dh=10 dv=0
EndChar

StartChar: D
Encoding: 68 68 33
Width: 695
GlyphClass: 2
Flags: MW
HStem: 0 76<67.5 293 143 292> 624 76<200 200 200 350>
VStem: 552 91<282 484>
AnchorPoint: "Anchor-1" 348 700 basechar 0
AnchorPoint: "Anchor-0" 291 0 basechar 0
LayerCount: 2
Fore
SplineSet
150 700 m 2,0,-1
 365 700 l 2,1,2
 492 700 492 700 567.5 631.5 c 128,-1,3
 643 563 643 563 643 415 c 0,4,5
 643 303 643 303 614 220 c 128,-1,6
 585 137 585 137 534 90.5 c 0,7,8
 434.741935484 7.1054273576e-15 434.741935484 7.1054273576e-15 292 0 c 2,9,-1
 77 0 l 2,10,11
 50 0 50 0 50 24 c 0,12,13
 50 36.3333333333 50 36.3333333333 79.5 311.666666667 c 128,-1,14
 109 587 109 587 117 670 c 0,15,16
 120 700 120 700 150 700 c 2,0,-1
200 624 m 1,17,-1
 143 76 l 1,18,-1
 293 76 l 2,19,20
 402 76 402 76 477 155.5 c 128,-1,21
 552 235 552 235 552 401 c 0,22,23
 552 519 552 519 497.5 571.5 c 128,-1,24
 443 624 443 624 350 624 c 2,25,-1
 200 624 l 1,17,-1
EndSplineSet
Position2: "'cpsp' Capital Spacing lookup 0 subtable" dx=5 dy=0 dh=10 dv=0
EndChar

StartChar: DZ
Encoding: 497 497 34
Width: 1311
GlyphClass: 2
Flags: MW
HStem: 0 76<67.5 293 143 292 824 1208> 624 76<200 200 200 350 821 1174>
VStem: 552 91<282 484>
AnchorPoint: "Anchor-1" 1033 700 basechar 0
AnchorPoint: "Anchor-0" 980 0 basechar 0
LayerCount: 2
Fore
SplineSet
150 700 m 2,0,-1
 365 700 l 2,1,2
 492 700 492 700 567.5 631.5 c 128,-1,3
 643 563 643 563 643 415 c 0,4,5
 643 303 643 303 614 220 c 128,-1,6
 585 137 585 137 534 90.5 c 0,7,8
 434.741935484 7.1054273576e-15 434.741935484 7.1054273576e-15 292 0 c 2,9,-1
 77 0 l 2,10,11
 50 0 50 0 50 24 c 0,12,13
 50 36.3333333333 50 36.3333333333 79.5 311.666666667 c 128,-1,14
 109 587 109 587 117 670 c 0,15,16
 120 700 120 700 150 700 c 2,0,-1
821 700 m 2,17,-1
 1280 700 l 2,18,19
 1285 700 1285 700 1291 683.5 c 128,-1,20
 1297 667 1297 667 1297 653.5 c 128,-1,21
 1297 640 1297 640 1292 635 c 2,22,-1
 824 76 l 1,23,-1
 1216 76 l 2,24,25
 1233 76 1233 76 1233 54 c 0,26,27
 1233 0 1233 0 1208 0 c 2,28,-1
 720 0 l 2,29,30
 713 0 713 0 707 16.5 c 128,-1,31
 701 33 701 33 701 46.5 c 128,-1,32
 701 60 701 60 706 65 c 2,33,-1
 1174 624 l 1,34,-1
 813 624 l 2,35,36
 796 624 796 624 796 646 c 0,37,38
 796 700 796 700 821 700 c 2,17,-1
200 624 m 1,39,-1
 143 76 l 1,40,-1
 293 76 l 2,41,42
 402 76 402 76 477 155.5 c 128,-1,43
 552 235 552 235 552 401 c 0,44,45
 552 519 552 519 497.5 571.5 c 128,-1,46
 443 624 443 624 350 624 c 2,47,-1
 200 624 l 1,39,-1
EndSplineSet
Position2: "'cpsp' Capital Spacing lookup 0 subtable" dx=5 dy=0 dh=10 dv=0
EndChar

StartChar: DZcaron
Encoding: 452 452 35
Width: 1311
GlyphClass: 2
Flags: MW
HStem: 0 76<67.5 293 143 292 824 1208> 624 76<200 200 200 350 821 1174>
VStem: 552 91<282 484>
AnchorPoint: "Anchor-1" 1051 877 basechar 0
AnchorPoint: "Anchor-0" 980 0 basechar 0
LayerCount: 2
Fore
SplineSet
1149 901 m 2,0,-1
 1151 901 l 2,1,2
 1173 901 1173 901 1173 887 c 0,3,4
 1173 879 1173 879 1166 869 c 2,5,-1
 1099 781 l 2,6,7
 1083 759 1083 759 1051 759 c 2,8,-1
 1026 759 l 2,9,10
 994 759 994 759 982 781 c 2,11,-1
 936 869 l 2,12,13
 931 878 931 878 932 889.5 c 128,-1,14
 933 901 933 901 956 901 c 2,15,-1
 958 901 l 2,16,17
 978 901 978 901 991 888 c 1,18,-1
 1044 814 l 1,19,-1
 1115 888 l 1,20,21
 1131 901 1131 901 1149 901 c 2,0,-1
150 700 m 2,22,-1
 365 700 l 2,23,24
 492 700 492 700 567.5 631.5 c 128,-1,25
 643 563 643 563 643 415 c 0,26,27
 643 303 643 303 614 220 c 128,-1,28
 585 137 585 137 534 90.5 c 0,29,30
 434.741935484 7.1054273576e-15 434.741935484 7.1054273576e-15 292 0 c 2,31,-1
 77 0 l 2,32,33
 50 0 50 0 50 24 c 0,34,35
 50 36.3333333333 50 36.3333333333 79.5 311.666666667 c 128,-1,36
 109 587 109 587 117 670 c 0,37,38
 120 700 120 700 150 700 c 2,22,-1
821 700 m 2,39,-1
 1280 700 l 2,40,41
 1285 700 1285 700 1291 683.5 c 128,-1,42
 1297 667 1297 667 1297 653.5 c 128,-1,43
 1297 640 1297 640 1292 635 c 2,44,-1
 824 76 l 1,45,-1
 1216 76 l 2,46,47
 1233 76 1233 76 1233 54 c 0,48,49
 1233 0 1233 0 1208 0 c 2,50,-1
 720 0 l 2,51,52
 713 0 713 0 707 16.5 c 128,-1,53
 701 33 701 33 701 46.5 c 128,-1,54
 701 60 701 60 706 65 c 2,55,-1
 1174 624 l 1,56,-1
 813 624 l 2,57,58
 796 624 796 624 796 646 c 0,59,60
 796 700 796 700 821 700 c 2,39,-1
200 624 m 1,61,-1
 143 76 l 1,62,-1
 293 76 l 2,63,64
 402 76 402 76 477 155.5 c 128,-1,65
 552 235 552 235 552 401 c 0,66,67
 552 519 552 519 497.5 571.5 c 128,-1,68
 443 624 443 624 350 624 c 2,69,-1
 200 624 l 1,61,-1
EndSplineSet
Position2: "'cpsp' Capital Spacing lookup 0 subtable" dx=5 dy=0 dh=10 dv=0
EndChar

StartChar: Eth
Encoding: 208 208 36
Width: 696
GlyphClass: 2
Flags: MW
HStem: 0 76<67.5 293 143 292> 320 76<10 88 24 80 176 280> 624 76<200 350 200 200>
VStem: 552 91<282 484>
AnchorPoint: "Anchor-1" 348 700 basechar 0
AnchorPoint: "Anchor-0" 291 0 basechar 0
LayerCount: 2
Fore
SplineSet
150 700 m 2,0,-1
 365 700 l 2,1,2
 492 700 492 700 567.5 631.5 c 128,-1,3
 643 563 643 563 643 415 c 0,4,5
 643 303 643 303 614 220 c 128,-1,6
 585 137 585 137 534 90.5 c 0,7,8
 434.741935484 7.1054273576e-15 434.741935484 7.1054273576e-15 292 0 c 2,9,-1
 77 0 l 2,10,11
 50 0 50 0 50 24 c 0,12,13
 50 31 50 31 80 320 c 1,14,-1
 16 320 l 2,15,16
 -1 320 -1 320 -1 342 c 0,17,18
 -1 396 -1 396 24 396 c 2,19,-1
 88 396 l 1,20,-1
 117 670 l 2,21,22
 120 700 120 700 150 700 c 2,0,-1
143 76 m 1,23,-1
 293 76 l 2,24,25
 402 76 402 76 477 155.5 c 128,-1,26
 552 235 552 235 552 401 c 0,27,28
 552 519 552 519 497.5 571.5 c 128,-1,29
 443 624 443 624 350 624 c 2,30,-1
 200 624 l 1,31,-1
 176 396 l 1,32,-1
 288 396 l 2,33,34
 305 396 305 396 305 374 c 0,35,36
 305 320 305 320 280 320 c 2,37,-1
 168 320 l 1,38,-1
 143 76 l 1,23,-1
EndSplineSet
Position2: "'cpsp' Capital Spacing lookup 0 subtable" dx=5 dy=0 dh=10 dv=0
EndChar

StartChar: Dcaron
Encoding: 270 270 37
Width: 695
GlyphClass: 2
Flags: MW
HStem: 0 76<67.5 293 143 292> 624 76<200 200 200 350>
VStem: 552 91<282 484>
AnchorPoint: "Anchor-1" 366 877 basechar 0
AnchorPoint: "Anchor-0" 291 0 basechar 0
LayerCount: 2
Fore
SplineSet
464 901 m 2,0,-1
 466 901 l 2,1,2
 488 901 488 901 488 887 c 0,3,4
 488 879 488 879 481 869 c 2,5,-1
 414 781 l 2,6,7
 398 759 398 759 366 759 c 2,8,-1
 341 759 l 2,9,10
 309 759 309 759 297 781 c 2,11,-1
 251 869 l 2,12,13
 246 878 246 878 247 889.5 c 128,-1,14
 248 901 248 901 271 901 c 2,15,-1
 273 901 l 2,16,17
 293 901 293 901 306 888 c 1,18,-1
 359 814 l 1,19,-1
 430 888 l 1,20,21
 446 901 446 901 464 901 c 2,0,-1
150 700 m 2,22,-1
 365 700 l 2,23,24
 492 700 492 700 567.5 631.5 c 128,-1,25
 643 563 643 563 643 415 c 0,26,27
 643 303 643 303 614 220 c 128,-1,28
 585 137 585 137 534 90.5 c 0,29,30
 434.741935484 7.1054273576e-15 434.741935484 7.1054273576e-15 292 0 c 2,31,-1
 77 0 l 2,32,33
 50 0 50 0 50 24 c 0,34,35
 50 36.3333333333 50 36.3333333333 79.5 311.666666667 c 128,-1,36
 109 587 109 587 117 670 c 0,37,38
 120 700 120 700 150 700 c 2,22,-1
200 624 m 1,39,-1
 143 76 l 1,40,-1
 293 76 l 2,41,42
 402 76 402 76 477 155.5 c 128,-1,43
 552 235 552 235 552 401 c 0,44,45
 552 519 552 519 497.5 571.5 c 128,-1,46
 443 624 443 624 350 624 c 2,47,-1
 200 624 l 1,39,-1
EndSplineSet
Position2: "'cpsp' Capital Spacing lookup 0 subtable" dx=5 dy=0 dh=10 dv=0
EndChar

StartChar: Dcroat
Encoding: 272 272 38
Width: 696
GlyphClass: 2
Flags: MW
HStem: 0 76<67.5 293 143 292> 320 76<10 88 24 80 176 280> 624 76<200 350 200 200>
VStem: 552 91<282 484>
AnchorPoint: "Anchor-1" 348 700 basechar 0
AnchorPoint: "Anchor-0" 291 0 basechar 0
LayerCount: 2
Fore
SplineSet
150 700 m 2,0,-1
 365 700 l 2,1,2
 492 700 492 700 567.5 631.5 c 128,-1,3
 643 563 643 563 643 415 c 0,4,5
 643 303 643 303 614 220 c 128,-1,6
 585 137 585 137 534 90.5 c 0,7,8
 434.741935484 7.1054273576e-15 434.741935484 7.1054273576e-15 292 0 c 2,9,-1
 77 0 l 2,10,11
 50 0 50 0 50 24 c 0,12,13
 50 31 50 31 80 320 c 1,14,-1
 16 320 l 2,15,16
 -1 320 -1 320 -1 342 c 0,17,18
 -1 396 -1 396 24 396 c 2,19,-1
 88 396 l 1,20,-1
 117 670 l 2,21,22
 120 700 120 700 150 700 c 2,0,-1
143 76 m 1,23,-1
 293 76 l 2,24,25
 402 76 402 76 477 155.5 c 128,-1,26
 552 235 552 235 552 401 c 0,27,28
 552 519 552 519 497.5 571.5 c 128,-1,29
 443 624 443 624 350 624 c 2,30,-1
 200 624 l 1,31,-1
 176 396 l 1,32,-1
 288 396 l 2,33,34
 305 396 305 396 305 374 c 0,35,36
 305 320 305 320 280 320 c 2,37,-1
 168 320 l 1,38,-1
 143 76 l 1,23,-1
EndSplineSet
Position2: "'cpsp' Capital Spacing lookup 0 subtable" dx=5 dy=0 dh=10 dv=0
EndChar

StartChar: Ddotbelow
Encoding: 7692 7692 39
Width: 695
GlyphClass: 2
Flags: MW
HStem: -175 95<267 285> 0 76<67.5 293 143 292> 624 76<200 200 200 350>
VStem: 232 89<-160 -95> 552 91<282 484>
AnchorPoint: "Anchor-1" 285 -82 basechar 0
AnchorPoint: "Anchor-0" 270 -203 basechar 0
LayerCount: 2
Fore
SplineSet
150 700 m 2,0,-1
 365 700 l 2,1,2
 492 700 492 700 567.5 631.5 c 128,-1,3
 643 563 643 563 643 415 c 0,4,5
 643 303 643 303 614 220 c 128,-1,6
 585 137 585 137 534 90.5 c 0,7,8
 434.741935484 7.1054273576e-15 434.741935484 7.1054273576e-15 292 0 c 2,9,-1
 77 0 l 2,10,11
 50 0 50 0 50 24 c 0,12,13
 50 36.3333333333 50 36.3333333333 79.5 311.666666667 c 128,-1,14
 109 587 109 587 117 670 c 0,15,16
 120 700 120 700 150 700 c 2,0,-1
200 624 m 1,17,-1
 143 76 l 1,18,-1
 293 76 l 2,19,20
 402 76 402 76 477 155.5 c 128,-1,21
 552 235 552 235 552 401 c 0,22,23
 552 519 552 519 497.5 571.5 c 128,-1,24
 443 624 443 624 350 624 c 2,25,-1
 200 624 l 1,17,-1
237 -102 m 2,26,27
 240 -80 240 -80 280.5 -80 c 128,-1,28
 321 -80 321 -80 321 -102 c 1,29,-1
 316 -153 l 2,30,31
 313 -175 313 -175 272.5 -175 c 128,-1,32
 232 -175 232 -175 232 -153 c 1,33,-1
 237 -102 l 2,26,27
EndSplineSet
Position2: "'cpsp' Capital Spacing lookup 0 subtable" dx=5 dy=0 dh=10 dv=0
EndChar

StartChar: Dz
Encoding: 498 498 40
Width: 1184
GlyphClass: 2
Flags: MW
HStem: 0 72<829 1096> 451 72<784 1150 799 1047> 624 76<200 200 200 350>
VStem: 552 91<282 484>
AnchorPoint: "Anchor-1" 970 523 basechar 0
AnchorPoint: "Anchor-0" 926 0 basechar 0
LayerCount: 2
Fore
SplineSet
150 700 m 2,0,-1
 365 700 l 2,1,2
 492 700 492 700 567.5 631.5 c 128,-1,3
 643 563 643 563 643 415 c 0,4,5
 643 303 643 303 614 220 c 128,-1,6
 585 137 585 137 534 90.5 c 0,7,8
 434.741935484 7.1054273576e-15 434.741935484 7.1054273576e-15 292 0 c 2,9,-1
 77 0 l 2,10,11
 50 0 50 0 50 24 c 0,12,13
 50 36.3333333333 50 36.3333333333 79.5 311.666666667 c 128,-1,14
 109 587 109 587 117 670 c 0,15,16
 120 700 120 700 150 700 c 2,0,-1
200 624 m 1,17,-1
 143 76 l 1,18,-1
 293 76 l 2,19,20
 402 76 402 76 477 155.5 c 128,-1,21
 552 235 552 235 552 401 c 0,22,23
 552 519 552 519 497.5 571.5 c 128,-1,24
 443 624 443 624 350 624 c 2,25,-1
 200 624 l 1,17,-1
799 523 m 2,26,-1
 1150 523 l 2,27,28
 1156 523 1156 523 1160.5 507 c 128,-1,29
 1165 491 1165 491 1165 478 c 128,-1,30
 1165 465 1165 465 1161 461 c 2,31,-1
 829 72 l 1,32,-1
 1104 72 l 2,33,34
 1121 72 1121 72 1121 45 c 0,35,36
 1121 0 1121 0 1096 0 c 2,37,-1
 726 0 l 2,38,39
 721 0 721 0 715 15.5 c 128,-1,40
 709 31 709 31 709 44 c 128,-1,41
 709 57 709 57 714 62 c 2,42,-1
 1047 451 l 1,43,-1
 791 451 l 2,44,45
 774 451 774 451 774 478 c 0,46,47
 774 523 774 523 799 523 c 2,26,-1
EndSplineSet
Position2: "'cpsp' Capital Spacing lookup 0 subtable" dx=5 dy=0 dh=10 dv=0
EndChar

StartChar: Dzcaron
Encoding: 453 453 41
Width: 1184
GlyphClass: 2
Flags: MW
HStem: 0 72<829 1096> 451 72<784 1150 799 1047> 624 76<200 200 200 350>
VStem: 552 91<282 484>
AnchorPoint: "Anchor-1" 988 700 basechar 0
AnchorPoint: "Anchor-0" 926 0 basechar 0
LayerCount: 2
Fore
SplineSet
1086 724 m 2,0,-1
 1088 724 l 2,1,2
 1110 724 1110 724 1110 710 c 0,3,4
 1110 702 1110 702 1103 692 c 2,5,-1
 1036 604 l 2,6,7
 1020 582 1020 582 988 582 c 2,8,-1
 963 582 l 2,9,10
 931 582 931 582 919 604 c 2,11,-1
 873 692 l 2,12,13
 868 701 868 701 869 712.5 c 128,-1,14
 870 724 870 724 893 724 c 2,15,-1
 895 724 l 2,16,17
 915 724 915 724 928 711 c 1,18,-1
 981 637 l 1,19,-1
 1052 711 l 1,20,21
 1068 724 1068 724 1086 724 c 2,0,-1
150 700 m 2,22,-1
 365 700 l 2,23,24
 492 700 492 700 567.5 631.5 c 128,-1,25
 643 563 643 563 643 415 c 0,26,27
 643 303 643 303 614 220 c 128,-1,28
 585 137 585 137 534 90.5 c 0,29,30
 434.741935484 7.1054273576e-15 434.741935484 7.1054273576e-15 292 0 c 2,31,-1
 77 0 l 2,32,33
 50 0 50 0 50 24 c 0,34,35
 50 36.3333333333 50 36.3333333333 79.5 311.666666667 c 128,-1,36
 109 587 109 587 117 670 c 0,37,38
 120 700 120 700 150 700 c 2,22,-1
200 624 m 1,39,-1
 143 76 l 1,40,-1
 293 76 l 2,41,42
 402 76 402 76 477 155.5 c 128,-1,43
 552 235 552 235 552 401 c 0,44,45
 552 519 552 519 497.5 571.5 c 128,-1,46
 443 624 443 624 350 624 c 2,47,-1
 200 624 l 1,39,-1
799 523 m 2,48,-1
 1150 523 l 2,49,50
 1156 523 1156 523 1160.5 507 c 128,-1,51
 1165 491 1165 491 1165 478 c 128,-1,52
 1165 465 1165 465 1161 461 c 2,53,-1
 829 72 l 1,54,-1
 1104 72 l 2,55,56
 1121 72 1121 72 1121 45 c 0,57,58
 1121 0 1121 0 1096 0 c 2,59,-1
 726 0 l 2,60,61
 721 0 721 0 715 15.5 c 128,-1,62
 709 31 709 31 709 44 c 128,-1,63
 709 57 709 57 714 62 c 2,64,-1
 1047 451 l 1,65,-1
 791 451 l 2,66,67
 774 451 774 451 774 478 c 0,68,69
 774 523 774 523 799 523 c 2,48,-1
EndSplineSet
Position2: "'cpsp' Capital Spacing lookup 0 subtable" dx=5 dy=0 dh=10 dv=0
EndChar

StartChar: E
Encoding: 69 69 42
Width: 546
GlyphClass: 2
Flags: MW
HStem: 0 76<62.5 434 138 426> 320 76<171 427 163 435> 624 76<195 490 195 195>
VStem: 45 470
AnchorPoint: "Anchor-1" 323 700 basechar 0
AnchorPoint: "Anchor-0" 251 0 basechar 0
LayerCount: 2
Fore
SplineSet
145 700 m 2,0,-1
 498 700 l 2,1,2
 515 700 515 700 515 678 c 0,3,4
 515 624 515 624 490 624 c 2,5,-1
 195 624 l 1,6,-1
 171 396 l 1,7,-1
 435 396 l 2,8,9
 452 396 452 396 452 374 c 0,10,11
 452 320 452 320 427 320 c 2,12,-1
 163 320 l 1,13,-1
 138 76 l 1,14,-1
 434 76 l 2,15,16
 451 76 451 76 451 54 c 0,17,18
 451 0 451 0 426 0 c 2,19,-1
 72 0 l 2,20,21
 45 0 45 0 45 24 c 0,22,23
 45 28 45 28 112 670 c 0,24,25
 115 700 115 700 145 700 c 2,0,-1
EndSplineSet
Position2: "'cpsp' Capital Spacing lookup 0 subtable" dx=5 dy=0 dh=10 dv=0
EndChar

StartChar: Eacute
Encoding: 201 201 43
Width: 546
GlyphClass: 2
Flags: MW
HStem: 0 76<62.5 434 138 426> 320 76<171 427 163 435> 624 76<195 490 195 195>
VStem: 45 470
AnchorPoint: "Anchor-1" 368 877 basechar 0
AnchorPoint: "Anchor-0" 251 0 basechar 0
LayerCount: 2
Fore
SplineSet
419 909 m 128,-1,1
 466 909 466 909 466 897 c 0,2,3
 466 886 466 886 360 780 c 0,4,5
 342 762 342 762 313.5 762 c 128,-1,6
 285 762 285 762 285 771 c 0,7,8
 285 783 285 783 354 883 c 0,9,0
 372 909 372 909 419 909 c 128,-1,1
145 700 m 2,10,-1
 498 700 l 2,11,12
 515 700 515 700 515 678 c 0,13,14
 515 624 515 624 490 624 c 2,15,-1
 195 624 l 1,16,-1
 171 396 l 1,17,-1
 435 396 l 2,18,19
 452 396 452 396 452 374 c 0,20,21
 452 320 452 320 427 320 c 2,22,-1
 163 320 l 1,23,-1
 138 76 l 1,24,-1
 434 76 l 2,25,26
 451 76 451 76 451 54 c 0,27,28
 451 0 451 0 426 0 c 2,29,-1
 72 0 l 2,30,31
 45 0 45 0 45 24 c 0,32,33
 45 28 45 28 112 670 c 0,34,35
 115 700 115 700 145 700 c 2,10,-1
EndSplineSet
Position2: "'cpsp' Capital Spacing lookup 0 subtable" dx=5 dy=0 dh=10 dv=0
EndChar

StartChar: Ebreve
Encoding: 276 276 44
Width: 546
GlyphClass: 2
Flags: MW
HStem: 0 76<62.5 434 138 426> 320 76<171 427 163 435> 624 76<195 490 195 195> 762 66<310.5 359 310.5 361.5>
VStem: 45 470
AnchorPoint: "Anchor-1" 342 848 basechar 0
AnchorPoint: "Anchor-0" 251 0 basechar 0
LayerCount: 2
Fore
SplineSet
470 892 m 0,0,1
 484 892 484 892 484 880 c 0,2,3
 484 825 484 825 434.5 793.5 c 128,-1,4
 385 762 385 762 329 762 c 128,-1,5
 273 762 273 762 233.5 789 c 128,-1,6
 194 816 194 816 194 865 c 0,7,8
 194 892 194 892 211 892 c 0,9,10
 222.4 892 222.4 892 224.2 887.5 c 128,-1,11
 226 883 226 883 227.5 877 c 0,12,13
 239.75 828 239.75 828 330.375 828 c 128,-1,14
 421 828 421 828 446 867 c 0,15,16
 449 872 449 872 452 880 c 128,-1,17
 455 888 455 888 458.5 890 c 128,-1,18
 462 892 462 892 470 892 c 0,0,1
145 700 m 2,19,-1
 498 700 l 2,20,21
 515 700 515 700 515 678 c 0,22,23
 515 624 515 624 490 624 c 2,24,-1
 195 624 l 1,25,-1
 171 396 l 1,26,-1
 435 396 l 2,27,28
 452 396 452 396 452 374 c 0,29,30
 452 320 452 320 427 320 c 2,31,-1
 163 320 l 1,32,-1
 138 76 l 1,33,-1
 434 76 l 2,34,35
 451 76 451 76 451 54 c 0,36,37
 451 0 451 0 426 0 c 2,38,-1
 72 0 l 2,39,40
 45 0 45 0 45 24 c 0,41,42
 45 28 45 28 112 670 c 0,43,44
 115 700 115 700 145 700 c 2,19,-1
EndSplineSet
Position2: "'cpsp' Capital Spacing lookup 0 subtable" dx=5 dy=0 dh=10 dv=0
EndChar

StartChar: Ecaron
Encoding: 282 282 45
Width: 546
GlyphClass: 2
Flags: MW
HStem: 0 76<62.5 434 138 426> 320 76<171 427 163 435> 624 76<195 490 195 195>
VStem: 45 470
AnchorPoint: "Anchor-1" 341 877 basechar 0
AnchorPoint: "Anchor-0" 251 0 basechar 0
LayerCount: 2
Fore
SplineSet
439 901 m 2,0,-1
 441 901 l 2,1,2
 463 901 463 901 463 887 c 0,3,4
 463 879 463 879 456 869 c 2,5,-1
 389 781 l 2,6,7
 373 759 373 759 341 759 c 2,8,-1
 316 759 l 2,9,10
 284 759 284 759 272 781 c 2,11,-1
 226 869 l 2,12,13
 221 878 221 878 222 889.5 c 0,14,15
 223 901 223 901 246 901 c 2,16,-1
 248 901 l 2,17,18
 268 901 268 901 281 888 c 1,19,-1
 334 814 l 1,20,-1
 405 888 l 1,21,22
 421 901 421 901 439 901 c 2,0,-1
145 700 m 2,23,-1
 498 700 l 2,24,25
 515 700 515 700 515 678 c 0,26,27
 515 624 515 624 490 624 c 2,28,-1
 195 624 l 1,29,-1
 171 396 l 1,30,-1
 435 396 l 2,31,32
 452 396 452 396 452 374 c 0,33,34
 452 320 452 320 427 320 c 2,35,-1
 163 320 l 1,36,-1
 138 76 l 1,37,-1
 434 76 l 2,38,39
 451 76 451 76 451 54 c 0,40,41
 451 0 451 0 426 0 c 2,42,-1
 72 0 l 2,43,44
 45 0 45 0 45 24 c 0,45,46
 45 28 45 28 112 670 c 0,47,48
 115 700 115 700 145 700 c 2,23,-1
EndSplineSet
Position2: "'cpsp' Capital Spacing lookup 0 subtable" dx=5 dy=0 dh=10 dv=0
EndChar

StartChar: Ecircumflex
Encoding: 202 202 46
Width: 546
GlyphClass: 2
Flags: MW
HStem: 0 76<62.5 434 138 426> 320 76<171 427 163 435> 624 76<195 490 195 195>
VStem: 45 470
AnchorPoint: "Anchor-1" 508 793 basechar 0
AnchorPoint: "Anchor-0" 251 0 basechar 0
LayerCount: 2
Fore
SplineSet
323 895 m 2,0,-1
 348 895 l 2,1,2
 380 895 380 895 392 873 c 2,3,-1
 439 785 l 2,4,5
 444 777 444 777 443 765 c 0,6,7
 442 753 442 753 418 753 c 2,8,-1
 416 753 l 2,9,10
 397 753 397 753 384 766 c 1,11,-1
 329 840 l 1,12,-1
 260 766 l 1,13,14
 244 753 244 753 225 753 c 2,15,-1
 223 753 l 2,16,17
 202 753 202 753 202 765 c 0,18,19
 202 774 202 774 209 785 c 2,20,-1
 275 873 l 2,21,22
 291 895 291 895 323 895 c 2,0,-1
145 700 m 2,23,-1
 498 700 l 2,24,25
 515 700 515 700 515 678 c 0,26,27
 515 624 515 624 490 624 c 2,28,-1
 195 624 l 1,29,-1
 171 396 l 1,30,-1
 435 396 l 2,31,32
 452 396 452 396 452 374 c 0,33,34
 452 320 452 320 427 320 c 2,35,-1
 163 320 l 1,36,-1
 138 76 l 1,37,-1
 434 76 l 2,38,39
 451 76 451 76 451 54 c 0,40,41
 451 0 451 0 426 0 c 2,42,-1
 72 0 l 2,43,44
 45 0 45 0 45 24 c 0,45,46
 45 28 45 28 112 670 c 0,47,48
 115 700 115 700 145 700 c 2,23,-1
EndSplineSet
Position2: "'cpsp' Capital Spacing lookup 0 subtable" dx=5 dy=0 dh=10 dv=0
EndChar

StartChar: Ecircumflexacute
Encoding: 7870 7870 47
Width: 546
GlyphClass: 2
Flags: MW
HStem: 0 76<62.5 434 138 426> 320 76<171 427 163 435> 624 76<195 490 195 195> 753 142<224 356 231 356 331 409 331 411>
VStem: 45 541
AnchorPoint: "Anchor-1" 470 829 basechar 0
AnchorPoint: "Anchor-0" 251 0 basechar 0
LayerCount: 2
Fore
SplineSet
489 935 m 0,0,1
 505 961 505 961 545.5 961 c 128,-1,2
 586 961 586 961 586 949 c 0,3,4
 586 943 586 943 494 842 c 0,5,6
 479 824 479 824 456.5 824 c 128,-1,7
 434 824 434 824 434 833 c 0,8,9
 434 847 434 847 489 935 c 0,0,1
331 895 m 2,10,-1
 356 895 l 2,11,12
 380 895 380 895 390 873 c 2,13,-1
 432 785 l 1,14,15
 437 777 437 777 436 765 c 128,-1,16
 435 753 435 753 411 753 c 2,17,-1
 409 753 l 2,18,19
 384 753 384 753 377 766 c 2,20,-1
 337 840 l 1,21,-1
 268 766 l 1,22,23
 252 753 252 753 233 753 c 2,24,-1
 231 753 l 2,25,26
 210 753 210 753 210 765 c 0,27,28
 210 774 210 774 217 785 c 2,29,-1
 283 873 l 2,30,31
 299 895 299 895 331 895 c 2,10,-1
145 700 m 2,32,-1
 498 700 l 2,33,34
 515 700 515 700 515 678 c 0,35,36
 515 624 515 624 490 624 c 2,37,-1
 195 624 l 1,38,-1
 171 396 l 1,39,-1
 435 396 l 2,40,41
 452 396 452 396 452 374 c 0,42,43
 452 320 452 320 427 320 c 2,44,-1
 163 320 l 1,45,-1
 138 76 l 1,46,-1
 434 76 l 2,47,48
 451 76 451 76 451 54 c 0,49,50
 451 0 451 0 426 0 c 2,51,-1
 72 0 l 2,52,53
 45 0 45 0 45 24 c 0,54,55
 45 28 45 28 112 670 c 0,56,57
 115 700 115 700 145 700 c 2,32,-1
EndSplineSet
Position2: "'cpsp' Capital Spacing lookup 0 subtable" dx=5 dy=0 dh=10 dv=0
EndChar

StartChar: Ecircumflexdotbelow
Encoding: 7878 7878 48
Width: 546
GlyphClass: 2
Flags: MW
HStem: -175 95<227 245> 0 76<62.5 434 138 426> 320 76<171 427 163 435> 624 76<195 490 195 195>
VStem: 192 89<-160 -95>
AnchorPoint: "Anchor-1" 245 -82 basechar 0
AnchorPoint: "Anchor-0" 230 -203 basechar 0
LayerCount: 2
Fore
SplineSet
323 895 m 2,0,-1
 348 895 l 2,1,2
 380 895 380 895 392 873 c 2,3,-1
 439 785 l 2,4,5
 444 777 444 777 443 765 c 128,-1,6
 442 753 442 753 418 753 c 2,7,-1
 416 753 l 2,8,9
 397 753 397 753 384 766 c 1,10,-1
 329 840 l 1,11,-1
 260 766 l 1,12,13
 244 753 244 753 225 753 c 2,14,-1
 223 753 l 2,15,16
 202 753 202 753 202 765 c 0,17,18
 202 774 202 774 209 785 c 2,19,-1
 275 873 l 2,20,21
 291 895 291 895 323 895 c 2,0,-1
145 700 m 2,22,-1
 498 700 l 2,23,24
 515 700 515 700 515 678 c 0,25,26
 515 624 515 624 490 624 c 2,27,-1
 195 624 l 1,28,-1
 171 396 l 1,29,-1
 435 396 l 2,30,31
 452 396 452 396 452 374 c 0,32,33
 452 320 452 320 427 320 c 2,34,-1
 163 320 l 1,35,-1
 138 76 l 1,36,-1
 434 76 l 2,37,38
 451 76 451 76 451 54 c 0,39,40
 451 0 451 0 426 0 c 2,41,-1
 72 0 l 2,42,43
 45 0 45 0 45 24 c 0,44,45
 45 28 45 28 112 670 c 0,46,47
 115 700 115 700 145 700 c 2,22,-1
197 -102 m 2,48,49
 200 -80 200 -80 240.5 -80 c 128,-1,50
 281 -80 281 -80 281 -102 c 1,51,-1
 276 -153 l 2,52,53
 273 -175 273 -175 232.5 -175 c 128,-1,54
 192 -175 192 -175 192 -153 c 1,55,-1
 197 -102 l 2,48,49
EndSplineSet
Position2: "'cpsp' Capital Spacing lookup 0 subtable" dx=5 dy=0 dh=10 dv=0
EndChar

StartChar: Ecircumflexgrave
Encoding: 7872 7872 49
Width: 546
GlyphClass: 2
Flags: MW
HStem: 0 76<62.5 434 138 426> 320 76<171 427 163 435> 624 76<195 490 195 195> 753 142<224 356 231 356 331 409 331 411>
VStem: 45 470
AnchorPoint: "Anchor-1" 470 829 basechar 0
AnchorPoint: "Anchor-0" 251 0 basechar 0
LayerCount: 2
Fore
SplineSet
391 952 m 0,0,1
 391 964 391 964 428.5 964 c 128,-1,2
 466 964 466 964 476 938 c 0,3,4
 513 848 513 848 513 833 c 0,5,6
 513 824 513 824 488.5 824 c 128,-1,7
 464 824 464 824 454 842 c 0,8,9
 392 938 392 938 391 952 c 0,0,1
331 895 m 2,10,-1
 356 895 l 2,11,12
 380 895 380 895 390 873 c 2,13,-1
 432 785 l 1,14,15
 437 777 437 777 436 765 c 128,-1,16
 435 753 435 753 411 753 c 2,17,-1
 409 753 l 2,18,19
 384 753 384 753 377 766 c 2,20,-1
 337 840 l 1,21,-1
 268 766 l 1,22,23
 252 753 252 753 233 753 c 2,24,-1
 231 753 l 2,25,26
 210 753 210 753 210 765 c 0,27,28
 210 774 210 774 217 785 c 2,29,-1
 283 873 l 2,30,31
 299 895 299 895 331 895 c 2,10,-1
145 700 m 2,32,-1
 498 700 l 2,33,34
 515 700 515 700 515 678 c 0,35,36
 515 624 515 624 490 624 c 2,37,-1
 195 624 l 1,38,-1
 171 396 l 1,39,-1
 435 396 l 2,40,41
 452 396 452 396 452 374 c 0,42,43
 452 320 452 320 427 320 c 2,44,-1
 163 320 l 1,45,-1
 138 76 l 1,46,-1
 434 76 l 2,47,48
 451 76 451 76 451 54 c 0,49,50
 451 0 451 0 426 0 c 2,51,-1
 72 0 l 2,52,53
 45 0 45 0 45 24 c 0,54,55
 45 28 45 28 112 670 c 0,56,57
 115 700 115 700 145 700 c 2,32,-1
EndSplineSet
Position2: "'cpsp' Capital Spacing lookup 0 subtable" dx=5 dy=0 dh=10 dv=0
EndChar

StartChar: Ecircumflexhookabove
Encoding: 7874 7874 50
Width: 546
GlyphClass: 2
Flags: MW
HStem: 0 76<62.5 434 138 426> 320 76<171 427 163 435> 624 76<195 490 195 195> 753 142<224 356 231 356 331 409 331 411> 931 48<458.5 473>
VStem: 497 58<897 913>
AnchorPoint: "Anchor-1" 470 829 basechar 0
AnchorPoint: "Anchor-0" 251 0 basechar 0
LayerCount: 2
Fore
SplineSet
497 904 m 0,0,1
 497 931 497 931 463 931 c 0,2,3
 442 931 442 931 429 924.5 c 128,-1,4
 416 918 416 918 415 918 c 0,5,6
 409 918 409 918 402 930.5 c 128,-1,7
 395 943 395 943 395 952 c 128,-1,8
 395 961 395 961 422 970 c 128,-1,9
 449 979 449 979 478 979 c 128,-1,10
 507 979 507 979 531 962.5 c 128,-1,11
 555 946 555 946 555 913 c 128,-1,12
 555 880 555 880 513 847 c 0,13,14
 486 825 486 825 470 825 c 128,-1,15
 454 825 454 825 444.5 831.5 c 128,-1,16
 435 838 435 838 435 845.5 c 128,-1,17
 435 853 435 853 466 869 c 128,-1,18
 497 885 497 885 497 904 c 0,0,1
331 895 m 2,19,-1
 356 895 l 2,20,21
 380 895 380 895 390 873 c 2,22,-1
 432 785 l 1,23,24
 437 777 437 777 436 765 c 128,-1,25
 435 753 435 753 411 753 c 2,26,-1
 409 753 l 2,27,28
 384 753 384 753 377 766 c 2,29,-1
 337 840 l 1,30,-1
 268 766 l 1,31,32
 252 753 252 753 233 753 c 2,33,-1
 231 753 l 2,34,35
 210 753 210 753 210 765 c 0,36,37
 210 774 210 774 217 785 c 2,38,-1
 283 873 l 2,39,40
 299 895 299 895 331 895 c 2,19,-1
145 700 m 2,41,-1
 498 700 l 2,42,43
 515 700 515 700 515 678 c 0,44,45
 515 624 515 624 490 624 c 2,46,-1
 195 624 l 1,47,-1
 171 396 l 1,48,-1
 435 396 l 2,49,50
 452 396 452 396 452 374 c 0,51,52
 452 320 452 320 427 320 c 2,53,-1
 163 320 l 1,54,-1
 138 76 l 1,55,-1
 434 76 l 2,56,57
 451 76 451 76 451 54 c 0,58,59
 451 0 451 0 426 0 c 2,60,-1
 72 0 l 2,61,62
 45 0 45 0 45 24 c 0,63,64
 45 28 45 28 112 670 c 0,65,66
 115 700 115 700 145 700 c 2,41,-1
EndSplineSet
Position2: "'cpsp' Capital Spacing lookup 0 subtable" dx=5 dy=0 dh=10 dv=0
EndChar

StartChar: Ecircumflextilde
Encoding: 7876 7876 51
Width: 546
GlyphClass: 2
Flags: MW
HStem: 0 76<62.5 434 138 426> 320 76<171 427 163 435> 624 76<195 490 195 195> 754 117<218 351 225 351 326 418 326 420> 903 64<402 415.5> 934 64<280.5 294>
VStem: 45 470
AnchorPoint: "Anchor-1" 347 877 basechar 0
AnchorPoint: "Anchor-0" 251 0 basechar 0
LayerCount: 2
Fore
SplineSet
460 989 m 0,0,1
 479 1003 479 1003 495.5 984.5 c 0,2,3
 512 966 512 966 493 947 c 0,4,5
 445 903 445 903 402.5 903 c 0,6,7
 360 903 360 903 329 918.5 c 0,8,9
 298 934 298 934 285.5 934 c 0,10,11
 273 934 273 934 244 917.5 c 0,12,13
 215 901 215 901 200 922.5 c 0,14,15
 185 944 185 944 202 957 c 0,16,17
 253 998 253 998 299 998 c 0,18,19
 329 998 329 998 362.5 982.5 c 0,20,21
 396 967 396 967 413.5 967 c 0,22,23
 431 967 431 967 460 989 c 0,0,1
326 871 m 2,24,-1
 351 871 l 2,25,26
 375 871 375 871 395 849 c 1,27,-1
 441 786 l 2,28,29
 446 778 446 778 445 766 c 0,30,31
 444 754 444 754 420 754 c 2,32,-1
 418 754 l 2,33,34
 403 754 403 754 386 767 c 1,35,-1
 332 816 l 1,36,-1
 262 767 l 1,37,38
 240 754 240 754 227 754 c 2,39,-1
 225 754 l 2,40,41
 204 754 204 754 204 766 c 0,42,43
 204 775 204 775 211 786 c 1,44,-1
 278 849 l 1,45,46
 305 871 305 871 326 871 c 2,24,-1
145 700 m 2,47,-1
 498 700 l 2,48,49
 515 700 515 700 515 678 c 0,50,51
 515 624 515 624 490 624 c 2,52,-1
 195 624 l 1,53,-1
 171 396 l 1,54,-1
 435 396 l 2,55,56
 452 396 452 396 452 374 c 0,57,58
 452 320 452 320 427 320 c 2,59,-1
 163 320 l 1,60,-1
 138 76 l 1,61,-1
 434 76 l 2,62,63
 451 76 451 76 451 54 c 0,64,65
 451 0 451 0 426 0 c 2,66,-1
 72 0 l 2,67,68
 45 0 45 0 45 24 c 0,69,70
 45 28 45 28 112 670 c 0,71,72
 115 700 115 700 145 700 c 2,47,-1
EndSplineSet
Position2: "'cpsp' Capital Spacing lookup 0 subtable" dx=5 dy=0 dh=10 dv=0
EndChar

StartChar: Edieresis
Encoding: 203 203 52
Width: 546
GlyphClass: 2
Flags: MW
HStem: 0 76<62.5 434 138 426> 320 76<171 427 163 435> 624 76<195 490 195 195> 784 95<252 270 396 414>
VStem: 217 89<799 864> 361 89<799 864>
AnchorPoint: "Anchor-1" 343 877 basechar 0
AnchorPoint: "Anchor-0" 251 0 basechar 0
LayerCount: 2
Fore
SplineSet
222 857 m 2,0,1
 225 879 225 879 265.5 879 c 128,-1,2
 306 879 306 879 306 857 c 1,3,-1
 301 806 l 2,4,5
 298 784 298 784 257.5 784 c 128,-1,6
 217 784 217 784 217 806 c 1,7,-1
 222 857 l 2,0,1
366 857 m 2,8,9
 368 879 368 879 409 879 c 128,-1,10
 450 879 450 879 450 857 c 1,11,-1
 445 806 l 2,12,13
 442 784 442 784 401.5 784 c 128,-1,14
 361 784 361 784 361 806 c 1,15,-1
 366 857 l 2,8,9
145 700 m 2,16,-1
 498 700 l 2,17,18
 515 700 515 700 515 678 c 0,19,20
 515 624 515 624 490 624 c 2,21,-1
 195 624 l 1,22,-1
 171 396 l 1,23,-1
 435 396 l 2,24,25
 452 396 452 396 452 374 c 0,26,27
 452 320 452 320 427 320 c 2,28,-1
 163 320 l 1,29,-1
 138 76 l 1,30,-1
 434 76 l 2,31,32
 451 76 451 76 451 54 c 0,33,34
 451 0 451 0 426 0 c 2,35,-1
 72 0 l 2,36,37
 45 0 45 0 45 24 c 0,38,39
 45 28 45 28 112 670 c 0,40,41
 115 700 115 700 145 700 c 2,16,-1
EndSplineSet
Position2: "'cpsp' Capital Spacing lookup 0 subtable" dx=5 dy=0 dh=10 dv=0
EndChar

StartChar: Edotaccent
Encoding: 278 278 53
Width: 546
GlyphClass: 2
Flags: MW
HStem: 0 76<62.5 434 138 426> 320 76<171 427 163 435> 624 76<195 490 195 195> 784 95<324 342>
VStem: 289 89<799 864>
AnchorPoint: "Anchor-1" 342 877 basechar 0
AnchorPoint: "Anchor-0" 251 0 basechar 0
LayerCount: 2
Fore
SplineSet
294 857 m 2,0,1
 297 879 297 879 337.5 879 c 128,-1,2
 378 879 378 879 378 857 c 1,3,-1
 373 806 l 2,4,5
 370 784 370 784 329.5 784 c 128,-1,6
 289 784 289 784 289 806 c 1,7,-1
 294 857 l 2,0,1
145 700 m 2,8,-1
 498 700 l 2,9,10
 515 700 515 700 515 678 c 0,11,12
 515 624 515 624 490 624 c 2,13,-1
 195 624 l 1,14,-1
 171 396 l 1,15,-1
 435 396 l 2,16,17
 452 396 452 396 452 374 c 0,18,19
 452 320 452 320 427 320 c 2,20,-1
 163 320 l 1,21,-1
 138 76 l 1,22,-1
 434 76 l 2,23,24
 451 76 451 76 451 54 c 0,25,26
 451 0 451 0 426 0 c 2,27,-1
 72 0 l 2,28,29
 45 0 45 0 45 24 c 0,30,31
 45 28 45 28 112 670 c 0,32,33
 115 700 115 700 145 700 c 2,8,-1
EndSplineSet
Position2: "'cpsp' Capital Spacing lookup 0 subtable" dx=5 dy=0 dh=10 dv=0
EndChar

StartChar: Edotbelow
Encoding: 7864 7864 54
Width: 546
GlyphClass: 2
Flags: MW
HStem: -175 95<227 245> 0 76<62.5 434 138 426> 320 76<171 427 163 435> 624 76<195 490 195 195>
VStem: 192 89<-160 -95>
AnchorPoint: "Anchor-1" 245 -82 basechar 0
AnchorPoint: "Anchor-0" 230 -203 basechar 0
LayerCount: 2
Fore
SplineSet
145 700 m 2,0,-1
 498 700 l 2,1,2
 515 700 515 700 515 678 c 0,3,4
 515 624 515 624 490 624 c 2,5,-1
 195 624 l 1,6,-1
 171 396 l 1,7,-1
 435 396 l 2,8,9
 452 396 452 396 452 374 c 0,10,11
 452 320 452 320 427 320 c 2,12,-1
 163 320 l 1,13,-1
 138 76 l 1,14,-1
 434 76 l 2,15,16
 451 76 451 76 451 54 c 0,17,18
 451 0 451 0 426 0 c 2,19,-1
 72 0 l 2,20,21
 45 0 45 0 45 24 c 0,22,23
 45 28 45 28 112 670 c 0,24,25
 115 700 115 700 145 700 c 2,0,-1
197 -102 m 2,26,27
 200 -80 200 -80 240.5 -80 c 128,-1,28
 281 -80 281 -80 281 -102 c 1,29,-1
 276 -153 l 2,30,31
 273 -175 273 -175 232.5 -175 c 128,-1,32
 192 -175 192 -175 192 -153 c 1,33,-1
 197 -102 l 2,26,27
EndSplineSet
Position2: "'cpsp' Capital Spacing lookup 0 subtable" dx=5 dy=0 dh=10 dv=0
EndChar

StartChar: Egrave
Encoding: 200 200 55
Width: 546
GlyphClass: 2
Flags: MW
HStem: 0 76<62.5 434 138 426> 320 76<171 427 163 435> 624 76<195 490 195 195>
VStem: 45 470
AnchorPoint: "Anchor-1" 344 877 basechar 0
AnchorPoint: "Anchor-0" 251 0 basechar 0
LayerCount: 2
Fore
SplineSet
252 909 m 128,-1,1
 299 909 299 909 314 883 c 0,2,3
 372 784 372 784 372 771 c 0,4,5
 372 762 372 762 342.5 762 c 0,6,7
 313 762 313 762 298 780 c 0,8,9
 210.202524971 880.192412681 210.202524971 880.192412681 207.101262485 886.478755556 c 0,10,11
 204 892.765098432 204 892.765098432 204 897 c 0,12,0
 205 909 205 909 252 909 c 128,-1,1
145 700 m 2,13,-1
 498 700 l 2,14,15
 515 700 515 700 515 678 c 0,16,17
 515 624 515 624 490 624 c 2,18,-1
 195 624 l 1,19,-1
 171 396 l 1,20,-1
 435 396 l 2,21,22
 452 396 452 396 452 374 c 0,23,24
 452 320 452 320 427 320 c 2,25,-1
 163 320 l 1,26,-1
 138 76 l 1,27,-1
 434 76 l 2,28,29
 451 76 451 76 451 54 c 0,30,31
 451 0 451 0 426 0 c 2,32,-1
 72 0 l 2,33,34
 45 0 45 0 45 24 c 0,35,36
 45 28 45 28 112 670 c 0,37,38
 115 700 115 700 145 700 c 2,13,-1
EndSplineSet
Position2: "'cpsp' Capital Spacing lookup 0 subtable" dx=5 dy=0 dh=10 dv=0
EndChar

StartChar: Ehookabove
Encoding: 7866 7866 56
Width: 546
GlyphClass: 2
Flags: MW
HStem: 0 76<62.5 434 138 426> 320 76<171 427 163 435> 624 76<195 490 195 195> 876 51<328.5 343>
VStem: 367 66<825 859>
AnchorPoint: "Anchor-1" 342 877 basechar 0
AnchorPoint: "Anchor-0" 251 0 basechar 0
LayerCount: 2
Fore
SplineSet
367 851 m 0,0,1
 367 876 367 876 333 876 c 0,2,3
 308.285714286 876 308.285714286 876 297.142857143 869.5 c 128,-1,4
 286 863 286 863 285 863 c 0,5,6
 279 863 279 863 272 875.5 c 128,-1,7
 265 888 265 888 265 897 c 128,-1,8
 265 906 265 906 292.5 916.5 c 128,-1,9
 320 927 320 927 349 927 c 128,-1,10
 378 927 378 927 405.5 910 c 128,-1,11
 433 893 433 893 433 863 c 128,-1,12
 433 833 433 833 419 809.5 c 128,-1,13
 405 786 405 786 387 772 c 0,14,15
 345.857142857 740 345.857142857 740 331.928571429 740 c 128,-1,16
 318 740 318 740 306.5 745 c 128,-1,17
 295 750 295 750 295 759 c 128,-1,18
 295 768 295 768 313 780.5 c 0,19,20
 367 818 367 818 367 851 c 0,0,1
145 700 m 2,21,-1
 498 700 l 2,22,23
 515 700 515 700 515 678 c 0,24,25
 515 624 515 624 490 624 c 2,26,-1
 195 624 l 1,27,-1
 171 396 l 1,28,-1
 435 396 l 2,29,30
 452 396 452 396 452 374 c 0,31,32
 452 320 452 320 427 320 c 2,33,-1
 163 320 l 1,34,-1
 138 76 l 1,35,-1
 434 76 l 2,36,37
 451 76 451 76 451 54 c 0,38,39
 451 0 451 0 426 0 c 2,40,-1
 72 0 l 2,41,42
 45 0 45 0 45 24 c 0,43,44
 45 28 45 28 112 670 c 0,45,46
 115 700 115 700 145 700 c 2,21,-1
EndSplineSet
Position2: "'cpsp' Capital Spacing lookup 0 subtable" dx=5 dy=0 dh=10 dv=0
EndChar

StartChar: Emacron
Encoding: 274 274 57
Width: 546
GlyphClass: 2
Flags: MW
HStem: 0 76<62.5 434 138 426> 320 76<171 427 163 435> 624 76<195 490 195 195> 789 71<199 440 214 432>
VStem: 45 470
AnchorPoint: "Anchor-1" 338 877 basechar 0
AnchorPoint: "Anchor-0" 251 0 basechar 0
LayerCount: 2
Fore
SplineSet
214 860 m 2,0,-1
 440 860 l 2,1,2
 457 860 457 860 457 834 c 0,3,4
 457 789 457 789 432 789 c 2,5,-1
 206 789 l 2,6,7
 189 789 189 789 189 816 c 0,8,9
 189 860 189 860 214 860 c 2,0,-1
145 700 m 2,10,-1
 498 700 l 2,11,12
 515 700 515 700 515 678 c 0,13,14
 515 624 515 624 490 624 c 2,15,-1
 195 624 l 1,16,-1
 171 396 l 1,17,-1
 435 396 l 2,18,19
 452 396 452 396 452 374 c 0,20,21
 452 320 452 320 427 320 c 2,22,-1
 163 320 l 1,23,-1
 138 76 l 1,24,-1
 434 76 l 2,25,26
 451 76 451 76 451 54 c 0,27,28
 451 0 451 0 426 0 c 2,29,-1
 72 0 l 2,30,31
 45 0 45 0 45 24 c 0,32,33
 45 28 45 28 112 670 c 0,34,35
 115 700 115 700 145 700 c 2,10,-1
EndSplineSet
Position2: "'cpsp' Capital Spacing lookup 0 subtable" dx=5 dy=0 dh=10 dv=0
EndChar

StartChar: Eogonek
Encoding: 280 280 58
Width: 546
GlyphClass: 2
Flags: MW
HStem: -183 70<454 467.5> 0 76<62.5 434 138 374 426 434 434 438.5> 320 76<171 427 163 435> 624 76<195 490 195 195>
VStem: 338 69<-90 -85>
AnchorPoint: "Anchor-1" 323 700 basechar 0
AnchorPoint: "Anchor-0" 391 -203 basechar 0
LayerCount: 2
Fore
SplineSet
529 -95 m 0,0,1
 535 -95 535 -95 535 -108 c 0,2,3
 535 -183 535 -183 446 -183 c 0,4,5
 384 -183 384 -183 361 -156 c 128,-1,6
 338 -129 338 -129 338 -101.5 c 0,7,8
 338 -74 338 -74 347 -45 c 128,-1,9
 356 -16 356 -16 374 0 c 1,10,-1
 72 0 l 2,11,12
 45 0 45 0 45 24 c 0,13,14
 45 28 45 28 112 670 c 0,15,16
 115 700 115 700 145 700 c 2,17,-1
 498 700 l 2,18,19
 515 700 515 700 515 678 c 0,20,21
 515 624 515 624 490 624 c 2,22,-1
 195 624 l 1,23,-1
 171 396 l 1,24,-1
 435 396 l 2,25,26
 452 396 452 396 452 374 c 0,27,28
 452 320 452 320 427 320 c 2,29,-1
 163 320 l 1,30,-1
 138 76 l 1,31,-1
 434 76 l 2,32,33
 451 76 451 76 451 54 c 0,34,35
 451 0 451 0 426 0 c 1,36,37
 425 -5 425 -5 416 -29.5 c 128,-1,38
 407 -54 407 -54 407 -70 c 0,39,40
 407 -113 407 -113 465 -113 c 0,41,42
 483 -113 483 -113 505 -104 c 128,-1,43
 527 -95 527 -95 529 -95 c 0,0,1
EndSplineSet
Position2: "'cpsp' Capital Spacing lookup 0 subtable" dx=5 dy=0 dh=10 dv=0
EndChar

StartChar: Etilde
Encoding: 7868 7868 59
Width: 546
GlyphClass: 2
Flags: MW
HStem: 0 76<62.5 434 138 426> 320 76<171 427 163 435> 624 76<195 490 195 195> 762 64<401 415.5> 793 64<267.5 282.5>
VStem: 45 470
AnchorPoint: "Anchor-1" 358 877 basechar 0
AnchorPoint: "Anchor-0" 251 0 basechar 0
LayerCount: 2
Fore
SplineSet
465 848 m 0,0,1
 486 862 486 862 504 844 c 0,2,3
 522 826 522 826 501 806 c 0,4,5
 448 762 448 762 401 762 c 0,6,7
 354 762 354 762 320 777.5 c 0,8,9
 286 793 286 793 272 793 c 0,10,11
 258 793 258 793 226.5 776.5 c 0,12,13
 195 760 195 760 179 781.5 c 0,14,15
 163 803 163 803 181 816 c 0,16,17
 238 857 238 857 288 857 c 0,18,19
 319 857 319 857 356.5 841.5 c 0,20,21
 394 826 394 826 413 826 c 0,22,23
 432 826 432 826 465 848 c 0,0,1
145 700 m 2,24,-1
 498 700 l 2,25,26
 515 700 515 700 515 678 c 0,27,28
 515 624 515 624 490 624 c 2,29,-1
 195 624 l 1,30,-1
 171 396 l 1,31,-1
 435 396 l 2,32,33
 452 396 452 396 452 374 c 0,34,35
 452 320 452 320 427 320 c 2,36,-1
 163 320 l 1,37,-1
 138 76 l 1,38,-1
 434 76 l 2,39,40
 451 76 451 76 451 54 c 0,41,42
 451 0 451 0 426 0 c 2,43,-1
 72 0 l 2,44,45
 45 0 45 0 45 24 c 0,46,47
 45 28 45 28 112 670 c 0,48,49
 115 700 115 700 145 700 c 2,24,-1
EndSplineSet
Position2: "'cpsp' Capital Spacing lookup 0 subtable" dx=5 dy=0 dh=10 dv=0
EndChar

StartChar: F
Encoding: 70 70 60
Width: 503
GlyphClass: 2
Flags: MW
HStem: 320 76<176 419 168 427> 624 76<200 459 200 200>
VStem: 49 435
LayerCount: 2
Fore
SplineSet
150 700 m 2,0,-1
 467 700 l 2,1,2
 484 700 484 700 484 678 c 0,3,4
 484 624 484 624 459 624 c 2,5,-1
 200 624 l 1,6,-1
 176 396 l 1,7,-1
 427 396 l 2,8,9
 444 396 444 396 444 374 c 0,10,11
 444 320 444 320 419 320 c 2,12,-1
 168 320 l 1,13,-1
 137 20 l 2,14,15
 134 -2 134 -2 95 -2 c 2,16,-1
 87 -2 l 2,17,18
 49 -2 49 -2 49 20 c 1,19,-1
 117 670 l 2,20,21
 120 700 120 700 150 700 c 2,0,-1
EndSplineSet
Position2: "'cpsp' Capital Spacing lookup 0 subtable" dx=5 dy=0 dh=10 dv=0
EndChar

StartChar: G
Encoding: 71 71 61
Width: 672
GlyphClass: 2
Flags: MW
HStem: -6 76<266 368 266 385> 285 76<370 560 384 494> 630 76<316 455>
VStem: 52 92<226.5 394.5 226.5 423.5>
AnchorPoint: "Anchor-1" 396 700 basechar 0
AnchorPoint: "Anchor-0" 336 0 basechar 0
LayerCount: 2
Fore
SplineSet
418 706 m 0,0,1
 488 706 488 706 545 686 c 128,-1,2
 602 666 602 666 602 645 c 0,3,4
 602 633 602 633 586.5 609.5 c 128,-1,5
 571 586 571 586 562 586 c 0,6,7
 560 586 560 586 541 597 c 128,-1,8
 522 608 522 608 485.5 619 c 128,-1,9
 449 630 449 630 404 630 c 0,10,11
 275 630 275 630 209.5 540.5 c 128,-1,12
 144 451 144 451 144 288 c 0,13,14
 144 70 144 70 342 70 c 0,15,16
 422 70 422 70 472 83 c 1,17,-1
 494 285 l 1,18,-1
 376 285 l 2,19,20
 359 285 359 285 359 307 c 0,21,22
 359 361 359 361 384 361 c 2,23,-1
 560 361 l 2,24,25
 587 361 587 361 587 337 c 0,26,27
 587 330 587 330 582 284 c 2,28,-1
 569.5 169 l 2,29,30
 562 100 562 100 559 66 c 0,31,32
 551 -6 551 -6 328 -6 c 0,33,34
 52 -6 52 -6 52 275 c 0,35,36
 52 491 52 491 149 598.5 c 128,-1,37
 246 706 246 706 418 706 c 0,0,1
EndSplineSet
Position2: "'cpsp' Capital Spacing lookup 0 subtable" dx=5 dy=0 dh=10 dv=0
EndChar

StartChar: Gbreve
Encoding: 286 286 62
Width: 672
GlyphClass: 2
Flags: MW
HStem: -6 76<266 368 266 385> 285 76<370 560 384 494> 630 76<316 455> 762 66<383.5 432 383.5 434.5>
VStem: 52 92<226.5 394.5 226.5 423.5>
AnchorPoint: "Anchor-1" 415 848 basechar 0
AnchorPoint: "Anchor-0" 336 0 basechar 0
LayerCount: 2
Fore
SplineSet
543 892 m 0,0,1
 557 892 557 892 557 880 c 0,2,3
 557 825 557 825 507.5 793.5 c 128,-1,4
 458 762 458 762 402 762 c 128,-1,5
 346 762 346 762 306.5 789 c 128,-1,6
 267 816 267 816 267 865 c 0,7,8
 267 892 267 892 284 892 c 0,9,10
 295.4 892 295.4 892 297.2 887.5 c 128,-1,11
 299 883 299 883 300.5 877 c 0,12,13
 312.75 828 312.75 828 403.375 828 c 128,-1,14
 494 828 494 828 519 867 c 0,15,16
 522 872 522 872 525 880 c 128,-1,17
 528 888 528 888 531.5 890 c 128,-1,18
 535 892 535 892 543 892 c 0,0,1
418 706 m 0,19,20
 488 706 488 706 545 686 c 128,-1,21
 602 666 602 666 602 645 c 0,22,23
 602 633 602 633 586.5 609.5 c 128,-1,24
 571 586 571 586 562 586 c 0,25,26
 560 586 560 586 541 597 c 128,-1,27
 522 608 522 608 485.5 619 c 128,-1,28
 449 630 449 630 404 630 c 0,29,30
 275 630 275 630 209.5 540.5 c 128,-1,31
 144 451 144 451 144 288 c 0,32,33
 144 70 144 70 342 70 c 0,34,35
 422 70 422 70 472 83 c 1,36,-1
 494 285 l 1,37,-1
 376 285 l 2,38,39
 359 285 359 285 359 307 c 0,40,41
 359 361 359 361 384 361 c 2,42,-1
 560 361 l 2,43,44
 587 361 587 361 587 337 c 0,45,46
 587 330 587 330 582 284 c 2,47,-1
 569.5 169 l 2,48,49
 562 100 562 100 559 66 c 0,50,51
 551 -6 551 -6 328 -6 c 0,52,53
 52 -6 52 -6 52 275 c 0,54,55
 52 491 52 491 149 598.5 c 128,-1,56
 246 706 246 706 418 706 c 0,19,20
EndSplineSet
Position2: "'cpsp' Capital Spacing lookup 0 subtable" dx=5 dy=0 dh=10 dv=0
EndChar

StartChar: Gcircumflex
Encoding: 284 284 63
Width: 672
GlyphClass: 2
Flags: MW
HStem: -6 76<266 368 266 385> 285 76<370 560 384 494> 630 76<316 455>
VStem: 52 92<226.5 394.5 226.5 423.5>
AnchorPoint: "Anchor-1" 581 793 basechar 0
AnchorPoint: "Anchor-0" 336 0 basechar 0
LayerCount: 2
Fore
SplineSet
396 895 m 2,0,-1
 421 895 l 2,1,2
 453 895 453 895 465 873 c 2,3,-1
 512 785 l 2,4,5
 517 777 517 777 516 765 c 128,-1,6
 515 753 515 753 491 753 c 2,7,-1
 489 753 l 2,8,9
 470 753 470 753 457 766 c 1,10,-1
 402 840 l 1,11,-1
 333 766 l 1,12,13
 317 753 317 753 298 753 c 2,14,-1
 296 753 l 2,15,16
 275 753 275 753 275 765 c 0,17,18
 275 774 275 774 282 785 c 2,19,-1
 348 873 l 2,20,21
 364 895 364 895 396 895 c 2,0,-1
418 706 m 0,22,23
 488 706 488 706 545 686 c 128,-1,24
 602 666 602 666 602 645 c 0,25,26
 602 633 602 633 586.5 609.5 c 128,-1,27
 571 586 571 586 562 586 c 0,28,29
 560 586 560 586 541 597 c 128,-1,30
 522 608 522 608 485.5 619 c 128,-1,31
 449 630 449 630 404 630 c 0,32,33
 275 630 275 630 209.5 540.5 c 128,-1,34
 144 451 144 451 144 288 c 0,35,36
 144 70 144 70 342 70 c 0,37,38
 422 70 422 70 472 83 c 1,39,-1
 494 285 l 1,40,-1
 376 285 l 2,41,42
 359 285 359 285 359 307 c 0,43,44
 359 361 359 361 384 361 c 2,45,-1
 560 361 l 2,46,47
 587 361 587 361 587 337 c 0,48,49
 587 330 587 330 582 284 c 2,50,51
 569.5 169 l 2,52,53
 562 100 562 100 559 66 c 0,54,55
 551 -6 551 -6 328 -6 c 0,56,57
 52 -6 52 -6 52 275 c 0,58,59
 52 491 52 491 149 598.5 c 128,-1,60
 246 706 246 706 418 706 c 0,22,23
EndSplineSet
Position2: "'cpsp' Capital Spacing lookup 0 subtable" dx=5 dy=0 dh=10 dv=0
EndChar

StartChar: Gcommaaccent
Encoding: 290 290 64
Width: 672
GlyphClass: 2
Flags: MW
HStem: -6 76<266 368 266 385> 285 76<370 560 384 494> 630 76<316 455>
VStem: 52 92<226.5 394.5 226.5 423.5> 286 90<-108 -73.5>
AnchorPoint: "Anchor-1" 396 700 basechar 0
AnchorPoint: "Anchor-0" 314 -203 basechar 0
LayerCount: 2
Fore
SplineSet
418 706 m 0,0,1
 488 706 488 706 545 686 c 128,-1,2
 602 666 602 666 602 645 c 0,3,4
 602 633 602 633 586.5 609.5 c 128,-1,5
 571 586 571 586 562 586 c 0,6,7
 560 586 560 586 541 597 c 128,-1,8
 522 608 522 608 485.5 619 c 128,-1,9
 449 630 449 630 404 630 c 0,10,11
 275 630 275 630 209.5 540.5 c 128,-1,12
 144 451 144 451 144 288 c 0,13,14
 144 70 144 70 342 70 c 0,15,16
 422 70 422 70 472 83 c 1,17,-1
 494 285 l 1,18,-1
 376 285 l 2,19,20
 359 285 359 285 359 307 c 0,21,22
 359 361 359 361 384 361 c 2,23,-1
 560 361 l 2,24,25
 587 361 587 361 587 337 c 0,26,27
 587 330 587 330 582 284 c 2,28,-1
 569.5 169 l 2,29,30
 562 100 562 100 559 66 c 0,31,32
 551 -6 551 -6 328 -6 c 0,33,34
 52 -6 52 -6 52 275 c 0,35,36
 52 491 52 491 149 598.5 c 128,-1,37
 246 706 246 706 418 706 c 0,0,1
330 -51 m 2,38,-1
 339 -51 l 2,39,40
 376 -51 376 -51 376 -79 c 0,41,42
 376 -120 376 -120 329.5 -177.5 c 128,-1,43
 283 -235 283 -235 256 -235 c 128,-1,44
 229 -235 229 -235 229 -220 c 0,45,46
 229 -209 229 -209 257.5 -164 c 128,-1,47
 286 -119 286 -119 286 -83 c 0,48,49
 286 -69 286 -69 298 -60 c 128,-1,50
 310 -51 310 -51 330 -51 c 2,38,-1
EndSplineSet
Position2: "'cpsp' Capital Spacing lookup 0 subtable" dx=5 dy=0 dh=10 dv=0
EndChar

StartChar: Gdotaccent
Encoding: 288 288 65
Width: 672
GlyphClass: 2
Flags: MW
HStem: -6 76<266 368 266 385> 285 76<370 560 384 494> 630 76<316 455> 784 95<397 415>
VStem: 52 92<226.5 394.5 226.5 423.5> 362 89<799 864>
AnchorPoint: "Anchor-1" 415 877 basechar 0
AnchorPoint: "Anchor-0" 336 0 basechar 0
LayerCount: 2
Fore
SplineSet
367 857 m 2,0,1
 370 879 370 879 410.5 879 c 128,-1,2
 451 879 451 879 451 857 c 1,3,-1
 446 806 l 2,4,5
 443 784 443 784 402.5 784 c 128,-1,6
 362 784 362 784 362 806 c 1,7,-1
 367 857 l 2,0,1
418 706 m 0,8,9
 488 706 488 706 545 686 c 128,-1,10
 602 666 602 666 602 645 c 0,11,12
 602 633 602 633 586.5 609.5 c 128,-1,13
 571 586 571 586 562 586 c 0,14,15
 560 586 560 586 541 597 c 128,-1,16
 522 608 522 608 485.5 619 c 128,-1,17
 449 630 449 630 404 630 c 0,18,19
 275 630 275 630 209.5 540.5 c 128,-1,20
 144 451 144 451 144 288 c 0,21,22
 144 70 144 70 342 70 c 0,23,24
 422 70 422 70 472 83 c 1,25,-1
 494 285 l 1,26,-1
 376 285 l 2,27,28
 359 285 359 285 359 307 c 0,29,30
 359 361 359 361 384 361 c 2,31,-1
 560 361 l 2,32,33
 587 361 587 361 587 337 c 0,34,35
 587 330 587 330 582 284 c 2,36,-1
 569.5 169 l 2,37,38
 562 100 562 100 559 66 c 0,39,40
 551 -6 551 -6 328 -6 c 0,41,42
 52 -6 52 -6 52 275 c 0,43,44
 52 491 52 491 149 598.5 c 128,-1,45
 246 706 246 706 418 706 c 0,8,9
EndSplineSet
Position2: "'cpsp' Capital Spacing lookup 0 subtable" dx=5 dy=0 dh=10 dv=0
EndChar

StartChar: H
Encoding: 72 72 66
Width: 733
GlyphClass: 2
Flags: MW
HStem: 321 76<189 543 181 551> 682 20G<173 181 181 195.5 623 631 631 645.5>
VStem: 62 607
AnchorPoint: "Anchor-1" 405 700 basechar 0
AnchorPoint: "Anchor-0" 349 2 basechar 0
LayerCount: 2
Fore
SplineSet
623 702 m 2,0,-1
 631 702 l 2,1,2
 669 702 669 702 669 680 c 1,3,-1
 600 20 l 2,4,5
 597 -2 597 -2 558 -2 c 2,6,-1
 550 -2 l 2,7,8
 512 -2 512 -2 512 20 c 1,9,-1
 543 321 l 1,10,-1
 181 321 l 1,11,-1
 150 20 l 2,12,13
 147 -2 147 -2 108 -2 c 2,14,-1
 100 -2 l 2,15,16
 62 -2 62 -2 62 20 c 1,17,-1
 131 680 l 2,18,19
 133 702 133 702 173 702 c 2,20,-1
 181 702 l 2,21,22
 219 702 219 702 219 680 c 1,23,-1
 189 397 l 1,24,-1
 551 397 l 1,25,-1
 581 680 l 2,26,27
 583 702 583 702 623 702 c 2,0,-1
EndSplineSet
Position2: "'cpsp' Capital Spacing lookup 0 subtable" dx=5 dy=0 dh=10 dv=0
EndChar

StartChar: Hbar
Encoding: 294 294 67
Width: 733
GlyphClass: 2
Flags: MW
HStem: 321 76<189 543 181 551> 490 71<69 119 84 111 206 561 657 672> 682 20G<173 181 181 195.5 623 631 631 645.5>
VStem: 59 135 125 94 574.5 94.5
AnchorPoint: "Anchor-1" 405 700 basechar 0
AnchorPoint: "Anchor-0" 349 2 basechar 0
LayerCount: 2
Fore
SplineSet
657 561 m 1,0,-1
 680 561 l 2,1,2
 697 561 697 561 697 535 c 0,3,4
 697 490 697 490 672 490 c 2,5,-1
 649 490 l 1,6,-1
 600 20 l 2,7,8
 597 -2 597 -2 558 -2 c 2,9,-1
 550 -2 l 2,10,11
 512 -2 512 -2 512 20 c 1,12,-1
 543 321 l 1,13,-1
 181 321 l 1,14,-1
 150 20 l 2,15,16
 147 -2 147 -2 108 -2 c 2,17,-1
 100 -2 l 2,18,19
 62 -2 62 -2 62 20 c 1,20,-1
 111 490 l 1,21,-1
 76 490 l 2,22,23
 59 490 59 490 59 517 c 0,24,25
 59 561 59 561 84 561 c 2,26,-1
 119 561 l 1,27,-1
 131 680 l 2,28,29
 133 702 133 702 173 702 c 2,30,-1
 181 702 l 2,31,32
 219 702 219 702 219 680 c 1,33,-1
 206 561 l 1,34,-1
 568 561 l 1,35,-1
 581 680 l 2,36,37
 583 702 583 702 623 702 c 2,38,-1
 631 702 l 2,39,40
 669 702 669 702 669 680 c 1,41,-1
 657 561 l 1,0,-1
561 490 m 1,42,-1
 199 490 l 1,43,-1
 189 397 l 1,44,-1
 551 397 l 1,45,-1
 561 490 l 1,42,-1
EndSplineSet
Position2: "'cpsp' Capital Spacing lookup 0 subtable" dx=5 dy=0 dh=10 dv=0
EndChar

StartChar: Hcircumflex
Encoding: 292 292 68
Width: 733
GlyphClass: 2
Flags: MW
HStem: 321 76<189 543 181 551> 682 20G<173 181 181 195.5 623 631 631 645.5>
VStem: 62 607
AnchorPoint: "Anchor-1" 590 793 basechar 0
AnchorPoint: "Anchor-0" 349 2 basechar 0
LayerCount: 2
Fore
SplineSet
405 895 m 2,0,-1
 430 895 l 2,1,2
 462 895 462 895 474 873 c 2,3,-1
 521 785 l 2,4,5
 526 777 526 777 525 765 c 0,6,7
 524 753 524 753 500 753 c 2,8,-1
 498 753 l 2,9,10
 479 753 479 753 466 766 c 1,11,-1
 411 840 l 1,12,-1
 342 766 l 1,13,14
 326 753 326 753 307 753 c 2,15,-1
 305 753 l 2,16,17
 284 753 284 753 284 765 c 0,18,19
 284 774 284 774 291 785 c 2,20,-1
 357 873 l 2,21,22
 373 895 373 895 405 895 c 2,0,-1
623 702 m 2,23,-1
 631 702 l 2,24,25
 669 702 669 702 669 680 c 1,26,-1
 600 20 l 2,27,28
 597 -2 597 -2 558 -2 c 2,29,-1
 550 -2 l 2,30,31
 512 -2 512 -2 512 20 c 1,32,-1
 543 321 l 1,33,-1
 181 321 l 1,34,-1
 150 20 l 2,35,36
 147 -2 147 -2 108 -2 c 2,37,-1
 100 -2 l 2,38,39
 62 -2 62 -2 62 20 c 1,40,-1
 131 680 l 2,41,42
 133 702 133 702 173 702 c 2,43,-1
 181 702 l 2,44,45
 219 702 219 702 219 680 c 1,46,-1
 189 397 l 1,47,-1
 551 397 l 1,48,-1
 581 680 l 2,49,50
 583 702 583 702 623 702 c 2,23,-1
EndSplineSet
Position2: "'cpsp' Capital Spacing lookup 0 subtable" dx=5 dy=0 dh=10 dv=0
EndChar

StartChar: Hdotbelow
Encoding: 7716 7716 69
Width: 733
GlyphClass: 2
Flags: MW
HStem: -173 95<325 343> 321 76<189 543 181 551> 682 20G<173 181 181 195.5 623 631 631 645.5>
VStem: 290 89<-158 -93>
AnchorPoint: "Anchor-1" 343 -80 basechar 0
AnchorPoint: "Anchor-0" 328 -201 basechar 0
LayerCount: 2
Fore
SplineSet
623 702 m 2,0,-1
 631 702 l 2,1,2
 669 702 669 702 669 680 c 1,3,-1
 600 20 l 2,4,5
 597 -2 597 -2 558 -2 c 2,6,-1
 550 -2 l 2,7,8
 512 -2 512 -2 512 20 c 1,9,-1
 543 321 l 1,10,-1
 181 321 l 1,11,-1
 150 20 l 2,12,13
 147 -2 147 -2 108 -2 c 2,14,-1
 100 -2 l 2,15,16
 62 -2 62 -2 62 20 c 1,17,-1
 131 680 l 2,18,19
 133 702 133 702 173 702 c 2,20,-1
 181 702 l 2,21,22
 219 702 219 702 219 680 c 1,23,-1
 189 397 l 1,24,-1
 551 397 l 1,25,-1
 581 680 l 2,26,27
 583 702 583 702 623 702 c 2,0,-1
295 -100 m 2,28,29
 298 -78 298 -78 338.5 -78 c 128,-1,30
 379 -78 379 -78 379 -100 c 1,31,-1
 374 -151 l 2,32,33
 371 -173 371 -173 330.5 -173 c 128,-1,34
 290 -173 290 -173 290 -151 c 1,35,-1
 295 -100 l 2,28,29
EndSplineSet
Position2: "'cpsp' Capital Spacing lookup 0 subtable" dx=5 dy=0 dh=10 dv=0
EndChar

StartChar: I
Encoding: 73 73 70
Width: 282
GlyphClass: 2
Flags: MW
HStem: 682 20G<173 181 181 195.5>
VStem: 62 157
AnchorPoint: "Anchor-1" 180 700 basechar 0
AnchorPoint: "Anchor-0" 101 0 basechar 0
LayerCount: 2
Fore
SplineSet
173 702 m 2,0,-1
 181 702 l 2,1,2
 219 702 219 702 219 680 c 1,3,-1
 150 20 l 2,4,5
 147 -2 147 -2 108 -2 c 2,6,-1
 100 -2 l 2,7,8
 62 -2 62 -2 62 20 c 1,9,-1
 131 680 l 2,10,11
 133 702 133 702 173 702 c 2,0,-1
EndSplineSet
Position2: "'cpsp' Capital Spacing lookup 0 subtable" dx=5 dy=0 dh=10 dv=0
EndChar

StartChar: IJ
Encoding: 306 306 71
Width: 684
GlyphClass: 2
Flags: MW
HStem: -6 82<337.5 398.5 332 432.5> 682 20G<173 181 181 195.5 590 598 598 612.5>
VStem: 62 574
AnchorPoint: "Anchor-1" 590 702 basechar 0
AnchorPoint: "Anchor-0" 101 0 basechar 0
LayerCount: 2
Fore
SplineSet
173 702 m 2,0,-1
 181 702 l 2,1,2
 219 702 219 702 219 680 c 1,3,-1
 150 20 l 2,4,5
 147 -2 147 -2 108 -2 c 2,6,-1
 100 -2 l 2,7,8
 62 -2 62 -2 62 20 c 1,9,-1
 131 680 l 2,10,11
 133 702 133 702 173 702 c 2,0,-1
590 702 m 2,12,-1
 598 702 l 2,13,14
 636 702 636 702 636 680 c 1,15,-1
 586 205 l 2,16,17
 564 -6 564 -6 359 -6 c 0,18,19
 271 -6 271 -6 271 26 c 0,20,21
 271 85 271 85 286 85 c 0,22,23
 287 85 287 85 307.5 80.5 c 128,-1,24
 328 76 328 76 352 76 c 0,25,26
 421 76 421 76 455.5 106 c 128,-1,27
 490 136 490 136 497 201 c 2,28,-1
 548 680 l 2,29,30
 550 702 550 702 590 702 c 2,12,-1
EndSplineSet
Position2: "'cpsp' Capital Spacing lookup 0 subtable" dx=5 dy=0 dh=10 dv=0
EndChar

StartChar: Iacute
Encoding: 205 205 72
Width: 282
GlyphClass: 2
Flags: MW
HStem: 682 20G<173 181 181 195.5>
VStem: 62 261
AnchorPoint: "Anchor-1" 225 877 basechar 0
AnchorPoint: "Anchor-0" 101 0 basechar 0
LayerCount: 2
Fore
SplineSet
276 909 m 128,-1,1
 323 909 323 909 323 897 c 0,2,3
 323 886 323 886 217 780 c 0,4,5
 199 762 199 762 170.5 762 c 128,-1,6
 142 762 142 762 142 771 c 0,7,8
 142 783 142 783 211 883 c 0,9,0
 229 909 229 909 276 909 c 128,-1,1
173 702 m 2,10,-1
 181 702 l 2,11,12
 219 702 219 702 219 680 c 1,13,-1
 150 20 l 2,14,15
 147 -2 147 -2 108 -2 c 2,16,-1
 100 -2 l 2,17,18
 62 -2 62 -2 62 20 c 1,19,-1
 131 680 l 2,20,21
 133 702 133 702 173 702 c 2,10,-1
EndSplineSet
Position2: "'cpsp' Capital Spacing lookup 0 subtable" dx=5 dy=0 dh=10 dv=0
EndChar

StartChar: Ibreve
Encoding: 300 300 73
Width: 282
GlyphClass: 2
Flags: MW
HStem: 682 20G<173 181 181 195.5> 762 66<167.5 216 167.5 218.5>
VStem: 51 290<840.5 873.5>
AnchorPoint: "Anchor-1" 199 848 basechar 0
AnchorPoint: "Anchor-0" 101 0 basechar 0
LayerCount: 2
Fore
SplineSet
327 892 m 0,0,1
 341 892 341 892 341 880 c 0,2,3
 341 825 341 825 291.5 793.5 c 128,-1,4
 242 762 242 762 186 762 c 128,-1,5
 130 762 130 762 90.5 789 c 128,-1,6
 51 816 51 816 51 865 c 0,7,8
 51 892 51 892 68 892 c 0,9,10
 79.4 892 79.4 892 81.2 887.5 c 128,-1,11
 83 883 83 883 84.5 877 c 0,12,13
 96.75 828 96.75 828 187.375 828 c 128,-1,14
 278 828 278 828 303 867 c 0,15,16
 306 872 306 872 309 880 c 128,-1,17
 312 888 312 888 315.5 890 c 128,-1,18
 319 892 319 892 327 892 c 0,0,1
173 702 m 2,19,-1
 181 702 l 2,20,21
 219 702 219 702 219 680 c 1,22,-1
 150 20 l 2,23,24
 147 -2 147 -2 108 -2 c 2,25,-1
 100 -2 l 2,26,27
 62 -2 62 -2 62 20 c 1,28,-1
 131 680 l 2,29,30
 133 702 133 702 173 702 c 2,19,-1
EndSplineSet
Position2: "'cpsp' Capital Spacing lookup 0 subtable" dx=5 dy=0 dh=10 dv=0
EndChar

StartChar: Icircumflex
Encoding: 206 206 74
Width: 282
GlyphClass: 2
Flags: MW
HStem: 682 20G<173 181 181 195.5>
VStem: 59 242<761 770.5>
AnchorPoint: "Anchor-1" 365 793 basechar 0
AnchorPoint: "Anchor-0" 101 0 basechar 0
LayerCount: 2
Fore
SplineSet
180 895 m 2,0,-1
 205 895 l 2,1,2
 237 895 237 895 249 873 c 2,3,-1
 296 785 l 2,4,5
 301 777 301 777 300 765 c 0,6,7
 299 753 299 753 275 753 c 2,8,-1
 273 753 l 2,9,10
 254 753 254 753 241 766 c 1,11,-1
 186 840 l 1,12,-1
 117 766 l 1,13,14
 101 753 101 753 82 753 c 2,15,-1
 80 753 l 2,16,17
 59 753 59 753 59 765 c 0,18,19
 59 774 59 774 66 785 c 2,20,-1
 132 873 l 2,21,22
 148 895 148 895 180 895 c 2,0,-1
173 702 m 2,23,-1
 181 702 l 2,24,25
 219 702 219 702 219 680 c 1,26,-1
 150 20 l 2,27,28
 147 -2 147 -2 108 -2 c 2,29,-1
 100 -2 l 2,30,31
 62 -2 62 -2 62 20 c 1,32,-1
 131 680 l 2,33,34
 133 702 133 702 173 702 c 2,23,-1
EndSplineSet
Position2: "'cpsp' Capital Spacing lookup 0 subtable" dx=5 dy=0 dh=10 dv=0
EndChar

StartChar: Idieresis
Encoding: 207 207 75
Width: 282
GlyphClass: 2
Flags: MW
HStem: 682 20G<173 181 181 195.5> 784 95<109 127 253 271>
VStem: 74 89<799 864> 218 89<799 864>
AnchorPoint: "Anchor-1" 200 877 basechar 0
AnchorPoint: "Anchor-0" 101 0 basechar 0
LayerCount: 2
Fore
SplineSet
79 857 m 2,0,1
 82 879 82 879 122.5 879 c 128,-1,2
 163 879 163 879 163 857 c 1,3,-1
 158 806 l 2,4,5
 155 784 155 784 114.5 784 c 128,-1,6
 74 784 74 784 74 806 c 1,7,-1
 79 857 l 2,0,1
223 857 m 2,8,9
 225 879 225 879 266 879 c 128,-1,10
 307 879 307 879 307 857 c 1,11,-1
 302 806 l 2,12,13
 299 784 299 784 258.5 784 c 128,-1,14
 218 784 218 784 218 806 c 1,15,-1
 223 857 l 2,8,9
173 702 m 2,16,-1
 181 702 l 2,17,18
 219 702 219 702 219 680 c 1,19,-1
 150 20 l 2,20,21
 147 -2 147 -2 108 -2 c 2,22,-1
 100 -2 l 2,23,24
 62 -2 62 -2 62 20 c 1,25,-1
 131 680 l 2,26,27
 133 702 133 702 173 702 c 2,16,-1
EndSplineSet
Position2: "'cpsp' Capital Spacing lookup 0 subtable" dx=5 dy=0 dh=10 dv=0
EndChar

StartChar: Idotaccent
Encoding: 304 304 76
Width: 282
GlyphClass: 2
Flags: MW
HStem: 682 20G<173 181 181 195.5> 784 95<181 199>
VStem: 146 89<799 864>
AnchorPoint: "Anchor-1" 199 877 basechar 0
AnchorPoint: "Anchor-0" 101 0 basechar 0
LayerCount: 2
Fore
SplineSet
151 857 m 2,0,1
 154 879 154 879 194.5 879 c 128,-1,2
 235 879 235 879 235 857 c 1,3,-1
 230 806 l 2,4,5
 227 784 227 784 186.5 784 c 128,-1,6
 146 784 146 784 146 806 c 1,7,-1
 151 857 l 2,0,1
173 702 m 2,8,-1
 181 702 l 2,9,10
 219 702 219 702 219 680 c 1,11,-1
 150 20 l 2,12,13
 147 -2 147 -2 108 -2 c 2,14,-1
 100 -2 l 2,15,16
 62 -2 62 -2 62 20 c 1,17,-1
 131 680 l 2,18,19
 133 702 133 702 173 702 c 2,8,-1
EndSplineSet
Position2: "'cpsp' Capital Spacing lookup 0 subtable" dx=5 dy=0 dh=10 dv=0
EndChar

StartChar: Idotbelow
Encoding: 7882 7882 77
Width: 282
GlyphClass: 2
Flags: MW
HStem: -175 95<77 95> 682 20G<173 181 181 195.5>
VStem: 42 89<-160 -95>
AnchorPoint: "Anchor-1" 95 -82 basechar 0
AnchorPoint: "Anchor-0" 80 -203 basechar 0
LayerCount: 2
Fore
SplineSet
173 702 m 2,0,-1
 181 702 l 2,1,2
 219 702 219 702 219 680 c 1,3,-1
 150 20 l 2,4,5
 147 -2 147 -2 108 -2 c 2,6,-1
 100 -2 l 2,7,8
 62 -2 62 -2 62 20 c 1,9,-1
 131 680 l 2,10,11
 133 702 133 702 173 702 c 2,0,-1
47 -102 m 2,12,13
 50 -80 50 -80 90.5 -80 c 128,-1,14
 131 -80 131 -80 131 -102 c 1,15,-1
 126 -153 l 2,16,17
 123 -175 123 -175 82.5 -175 c 128,-1,18
 42 -175 42 -175 42 -153 c 1,19,-1
 47 -102 l 2,12,13
EndSplineSet
Position2: "'cpsp' Capital Spacing lookup 0 subtable" dx=5 dy=0 dh=10 dv=0
EndChar

StartChar: Igrave
Encoding: 204 204 78
Width: 282
GlyphClass: 2
Flags: MW
HStem: 682 20G<173 181 181 195.5>
VStem: 61 168<768 897>
AnchorPoint: "Anchor-1" 201 877 basechar 0
AnchorPoint: "Anchor-0" 101 0 basechar 0
LayerCount: 2
Fore
SplineSet
109 909 m 128,-1,1
 156 909 156 909 171 883 c 0,2,3
 229 784 229 784 229 771 c 0,4,5
 229 762 229 762 199.5 762 c 0,6,7
 170 762 170 762 155 780 c 0,8,9
 67.2025249705 880.192412681 67.2025249705 880.192412681 64.1012624853 886.478755556 c 0,10,11
 61 892.765098432 61 892.765098432 61 897 c 0,12,0
 62 909 62 909 109 909 c 128,-1,1
173 702 m 2,13,-1
 181 702 l 2,14,15
 219 702 219 702 219 680 c 1,16,-1
 150 20 l 2,17,18
 147 -2 147 -2 108 -2 c 2,19,-1
 100 -2 l 2,20,21
 62 -2 62 -2 62 20 c 1,22,-1
 131 680 l 2,23,24
 133 702 133 702 173 702 c 2,13,-1
EndSplineSet
Position2: "'cpsp' Capital Spacing lookup 0 subtable" dx=5 dy=0 dh=10 dv=0
EndChar

StartChar: Ihookabove
Encoding: 7880 7880 79
Width: 282
GlyphClass: 2
Flags: MW
HStem: 682 20G<173 181 181 195.5> 876 51<185.5 200>
VStem: 224 66<825 859>
AnchorPoint: "Anchor-1" 199 877 basechar 0
AnchorPoint: "Anchor-0" 101 0 basechar 0
LayerCount: 2
Fore
SplineSet
224 851 m 0,0,1
 224 876 224 876 190 876 c 0,2,3
 165.285714286 876 165.285714286 876 154.142857143 869.5 c 128,-1,4
 143 863 143 863 142 863 c 0,5,6
 136 863 136 863 129 875.5 c 128,-1,7
 122 888 122 888 122 897 c 128,-1,8
 122 906 122 906 149.5 916.5 c 128,-1,9
 177 927 177 927 206 927 c 128,-1,10
 235 927 235 927 262.5 910 c 128,-1,11
 290 893 290 893 290 863 c 128,-1,12
 290 833 290 833 276 809.5 c 128,-1,13
 262 786 262 786 244 772 c 0,14,15
 202.857142857 740 202.857142857 740 188.928571429 740 c 128,-1,16
 175 740 175 740 163.5 745 c 128,-1,17
 152 750 152 750 152 759 c 128,-1,18
 152 768 152 768 170 780.5 c 0,19,20
 224 818 224 818 224 851 c 0,0,1
173 702 m 2,21,-1
 181 702 l 2,22,23
 219 702 219 702 219 680 c 1,24,-1
 150 20 l 2,25,26
 147 -2 147 -2 108 -2 c 2,27,-1
 100 -2 l 2,28,29
 62 -2 62 -2 62 20 c 1,30,-1
 131 680 l 2,31,32
 133 702 133 702 173 702 c 2,21,-1
EndSplineSet
Position2: "'cpsp' Capital Spacing lookup 0 subtable" dx=5 dy=0 dh=10 dv=0
EndChar

StartChar: Imacron
Encoding: 298 298 80
Width: 282
GlyphClass: 2
Flags: MW
HStem: 682 20G<173 181 181 195.5> 789 71<56 297 71 289>
VStem: 46 268<808 842>
AnchorPoint: "Anchor-1" 195 877 basechar 0
AnchorPoint: "Anchor-0" 101 0 basechar 0
LayerCount: 2
Fore
SplineSet
71 860 m 2,0,-1
 297 860 l 2,1,2
 314 860 314 860 314 834 c 0,3,4
 314 789 314 789 289 789 c 2,5,-1
 63 789 l 2,6,7
 46 789 46 789 46 816 c 0,8,9
 46 860 46 860 71 860 c 2,0,-1
173 702 m 2,10,-1
 181 702 l 2,11,12
 219 702 219 702 219 680 c 1,13,-1
 150 20 l 2,14,15
 147 -2 147 -2 108 -2 c 2,16,-1
 100 -2 l 2,17,18
 62 -2 62 -2 62 20 c 1,19,-1
 131 680 l 2,20,21
 133 702 133 702 173 702 c 2,10,-1
EndSplineSet
Position2: "'cpsp' Capital Spacing lookup 0 subtable" dx=5 dy=0 dh=10 dv=0
EndChar

StartChar: Iogonek
Encoding: 302 302 81
Width: 282
GlyphClass: 2
Flags: MW
HStem: -183 70<156 169.5> 682 20G<173 181 181 195.5>
VStem: 40 69<-90 -85>
AnchorPoint: "Anchor-1" 180 700 basechar 0
AnchorPoint: "Anchor-0" 93 -203 basechar 0
LayerCount: 2
Fore
SplineSet
231 -95 m 0,0,1
 237 -95 237 -95 237 -108 c 0,2,3
 237 -183 237 -183 148 -183 c 0,4,5
 86 -183 86 -183 63 -156 c 128,-1,6
 40 -129 40 -129 40 -101.5 c 0,7,8
 40 -74 40 -74 49 -44.5 c 128,-1,9
 58 -15 58 -15 77 1 c 1,10,11
 62 5 62 5 62 20 c 1,12,-1
 131 680 l 2,13,14
 133 702 133 702 173 702 c 2,15,-1
 181 702 l 2,16,17
 219 702 219 702 219 680 c 1,18,-1
 150 20 l 2,19,20
 148 5 148 5 128 0 c 1,21,22
 128 -6 128 -6 118.5 -30.5 c 128,-1,23
 109 -55 109 -55 109 -70 c 0,24,25
 109 -113 109 -113 167 -113 c 0,26,27
 185 -113 185 -113 207 -104 c 128,-1,28
 229 -95 229 -95 231 -95 c 0,0,1
EndSplineSet
Position2: "'cpsp' Capital Spacing lookup 0 subtable" dx=5 dy=0 dh=10 dv=0
EndChar

StartChar: Itilde
Encoding: 296 296 82
Width: 282
GlyphClass: 2
Flags: MW
HStem: 682 20G<173 181 181 195.5> 762 64<250 263> 793 64<129.5 143>
VStem: 44 305.87
AnchorPoint: "Anchor-1" 211 877 basechar 0
AnchorPoint: "Anchor-0" 101 0 basechar 0
LayerCount: 2
Fore
SplineSet
307 848 m 0,0,1
 326 862 326 862 342.5 843.5 c 0,2,3
 359 825 359 825 340 806 c 0,4,5
 292 762 292 762 249.5 762 c 0,6,7
 207 762 207 762 177 777.5 c 0,8,9
 147 793 147 793 134.5 793 c 0,10,11
 122 793 122 793 93.5 776.5 c 0,12,13
 65 760 65 760 50 781.5 c 0,14,15
 35 803 35 803 52 816 c 0,16,17
 103 857 103 857 148 857 c 0,18,19
 177 857 177 857 210.5 841.5 c 0,20,21
 244 826 244 826 261 826 c 0,22,23
 278 826 278 826 307 848 c 0,0,1
173 702 m 2,24,-1
 181 702 l 2,25,26
 219 702 219 702 219 680 c 1,27,-1
 150 20 l 2,28,29
 147 -2 147 -2 108 -2 c 2,30,-1
 100 -2 l 2,31,32
 62 -2 62 -2 62 20 c 1,33,-1
 131 680 l 2,34,35
 133 702 133 702 173 702 c 2,24,-1
EndSplineSet
Position2: "'cpsp' Capital Spacing lookup 0 subtable" dx=5 dy=0 dh=10 dv=0
EndChar

StartChar: J
Encoding: 74 74 83
Width: 402
GlyphClass: 2
Flags: MW
HStem: -6 82<55.5 116.5 50 150.5> 682 20G<308 316 316 330.5>
VStem: -11 365
AnchorPoint: "Anchor-1" 308 702 basechar 0
AnchorPoint: "Anchor-0" 0 0 basechar 0
LayerCount: 2
Fore
SplineSet
308 702 m 2,0,-1
 316 702 l 2,1,2
 354 702 354 702 354 680 c 1,3,-1
 304 205 l 2,4,5
 282 -6 282 -6 77 -6 c 0,6,7
 -11 -6 -11 -6 -11 26 c 0,8,9
 -11 85 -11 85 4 85 c 0,10,11
 5 85 5 85 25.5 80.5 c 128,-1,12
 46 76 46 76 70 76 c 0,13,14
 139 76 139 76 173.5 106 c 128,-1,15
 208 136 208 136 215 201 c 2,16,-1
 266 680 l 2,17,18
 268 702 268 702 308 702 c 2,0,-1
EndSplineSet
Position2: "'cpsp' Capital Spacing lookup 0 subtable" dx=5 dy=0 dh=10 dv=0
EndChar

StartChar: Jcircumflex
Encoding: 308 308 84
Width: 402
GlyphClass: 2
Flags: MW
HStem: -6 82<55.5 116.5 50 150.5> 682 20G<308 316 316 330.5>
VStem: -11 440
AnchorPoint: "Anchor-1" 493 795 basechar 0
AnchorPoint: "Anchor-0" 0 0 basechar 0
LayerCount: 2
Fore
SplineSet
308 897 m 2,0,-1
 333 897 l 2,1,2
 365 897 365 897 377 875 c 2,3,-1
 424 787 l 1,4,5
 429 780 429 780 428 767.5 c 0,6,7
 427 755 427 755 403 755 c 2,8,-1
 401 755 l 2,9,10
 382 755 382 755 369 768 c 1,11,-1
 314 842 l 1,12,-1
 245 768 l 1,13,14
 229 755 229 755 210 755 c 2,15,-1
 208 755 l 2,16,17
 187 755 187 755 187 767 c 0,18,19
 187 776 187 776 194 787 c 2,20,-1
 260 875 l 2,21,22
 276 897 276 897 308 897 c 2,0,-1
308 702 m 2,23,-1
 316 702 l 2,24,25
 354 702 354 702 354 680 c 1,26,-1
 304 205 l 2,27,28
 282 -6 282 -6 77 -6 c 0,29,30
 -11 -6 -11 -6 -11 26 c 0,31,32
 -11 85 -11 85 4 85 c 0,33,34
 5 85 5 85 25.5 80.5 c 128,-1,35
 46 76 46 76 70 76 c 0,36,37
 139 76 139 76 173.5 106 c 128,-1,38
 208 136 208 136 215 201 c 2,39,-1
 266 680 l 2,40,41
 268 702 268 702 308 702 c 2,23,-1
EndSplineSet
Position2: "'cpsp' Capital Spacing lookup 0 subtable" dx=5 dy=0 dh=10 dv=0
EndChar

StartChar: K
Encoding: 75 75 85
Width: 576
GlyphClass: 2
Flags: MW
HStem: 682 20G<155 163 163 177.5 505 515 515 526.5>
VStem: 44 505
AnchorPoint: "Anchor-1" 315 700 basechar 0
AnchorPoint: "Anchor-0" 260 0 basechar 0
LayerCount: 2
Fore
SplineSet
505 702 m 2,0,-1
 515 702 l 2,1,2
 549 702 549 702 549 690 c 0,3,4
 549 681 549 681 537 669 c 2,5,-1
 259 360 l 1,6,-1
 520 28 l 2,7,8
 527 19 527 19 527 12 c 0,9,10
 526 -2 526 -2 482 -2 c 2,11,-1
 475 -2 l 2,12,13
 432 -2 432 -2 421 11 c 2,14,-1
 169 333 l 1,15,-1
 165 333 l 1,16,-1
 132 20 l 2,17,18
 129 -2 129 -2 90 -2 c 2,19,-1
 82 -2 l 2,20,21
 44 -2 44 -2 44 20 c 1,22,-1
 113 680 l 2,23,24
 115 702 115 702 155 702 c 2,25,-1
 163 702 l 2,26,27
 201 702 201 702 201 680 c 1,28,-1
 169 374 l 1,29,-1
 173 374 l 1,30,-1
 450 688 l 2,31,32
 463 702 463 702 505 702 c 2,0,-1
EndSplineSet
Position2: "'cpsp' Capital Spacing lookup 0 subtable" dx=5 dy=0 dh=10 dv=0
EndChar

StartChar: Kcommaaccent
Encoding: 310 310 86
Width: 576
GlyphClass: 2
Flags: MW
HStem: 682 20G<155 163 163 177.5 505 515 515 526.5>
VStem: 210 90<-108 -73.5>
AnchorPoint: "Anchor-1" 315 700 basechar 0
AnchorPoint: "Anchor-0" 238 -203 basechar 0
LayerCount: 2
Fore
SplineSet
505 702 m 2,0,-1
 515 702 l 2,1,2
 549 702 549 702 549 690 c 0,3,4
 549 681 549 681 537 669 c 2,5,-1
 259 360 l 1,6,-1
 520 28 l 2,7,8
 527 19 527 19 527 12 c 0,9,10
 526 -2 526 -2 482 -2 c 2,11,-1
 475 -2 l 2,12,13
 432 -2 432 -2 421 11 c 2,14,-1
 169 333 l 1,15,-1
 165 333 l 1,16,-1
 132 20 l 2,17,18
 129 -2 129 -2 90 -2 c 2,19,-1
 82 -2 l 2,20,21
 44 -2 44 -2 44 20 c 1,22,-1
 113 680 l 2,23,24
 115 702 115 702 155 702 c 2,25,-1
 163 702 l 2,26,27
 201 702 201 702 201 680 c 1,28,-1
 169 374 l 1,29,-1
 173 374 l 1,30,-1
 450 688 l 2,31,32
 463 702 463 702 505 702 c 2,0,-1
254 -51 m 2,33,-1
 263 -51 l 2,34,35
 300 -51 300 -51 300 -79 c 0,36,37
 300 -120 300 -120 253.5 -177.5 c 128,-1,38
 207 -235 207 -235 180 -235 c 128,-1,39
 153 -235 153 -235 153 -220 c 0,40,41
 153 -209 153 -209 181.5 -164 c 128,-1,42
 210 -119 210 -119 210 -83 c 0,43,44
 210 -69 210 -69 222 -60 c 128,-1,45
 234 -51 234 -51 254 -51 c 2,33,-1
EndSplineSet
Position2: "'cpsp' Capital Spacing lookup 0 subtable" dx=5 dy=0 dh=10 dv=0
EndChar

StartChar: L
Encoding: 76 76 87
Width: 484
GlyphClass: 2
Flags: MW
HStem: 0 76<66 434 143 426> 682 20G<160 168 168 182.5>
VStem: 50 401<19.5 61.5>
AnchorPoint: "Anchor-1" 168 702 basechar 0
AnchorPoint: "Anchor-0" 242 0 basechar 0
LayerCount: 2
Fore
SplineSet
160 702 m 2,0,-1
 168 702 l 2,1,2
 206 702 206 702 206 680 c 1,3,-1
 143 76 l 1,4,-1
 434 76 l 2,5,6
 451 76 451 76 451 54 c 0,7,8
 451 0 451 0 426 0 c 2,9,-1
 77 0 l 2,10,11
 61 0 61 0 55.5 7 c 128,-1,12
 50 14 50 14 50 30 c 1,13,-1
 118 680 l 2,14,15
 120 702 120 702 160 702 c 2,0,-1
EndSplineSet
Position2: "'cpsp' Capital Spacing lookup 0 subtable" dx=5 dy=0 dh=10 dv=0
EndChar

StartChar: LJ
Encoding: 455 455 88
Width: 718
GlyphClass: 2
Flags: MW
HStem: -159 82<342.5 403.5 337 437.5> 0 76<66 350 143 342> 682 20G<160 168 168 182.5 611 619 619 633.5>
VStem: 50 607
LayerCount: 2
Fore
SplineSet
160 702 m 2,0,-1
 168 702 l 2,1,2
 206 702 206 702 206 680 c 1,3,-1
 143 76 l 1,4,-1
 350 76 l 2,5,6
 367 76 367 76 367 54 c 0,7,8
 367 0 367 0 342 0 c 2,9,-1
 77 0 l 2,10,11
 61 0 61 0 55.5 7 c 128,-1,12
 50 14 50 14 50 30 c 1,13,-1
 118 680 l 2,14,15
 120 702 120 702 160 702 c 2,0,-1
611 702 m 2,16,-1
 619 702 l 2,17,18
 657 702 657 702 657 680 c 1,19,-1
 591 52 l 2,20,21
 569 -159 569 -159 364 -159 c 0,22,23
 276 -159 276 -159 276 -127 c 0,24,25
 276 -68 276 -68 291 -68 c 0,26,27
 292 -68 292 -68 312.5 -72.5 c 128,-1,28
 333 -77 333 -77 357 -77 c 0,29,30
 426 -77 426 -77 460.5 -47 c 128,-1,31
 495 -17 495 -17 502 48 c 2,32,-1
 569 680 l 2,33,34
 571 702 571 702 611 702 c 2,16,-1
EndSplineSet
Position2: "'cpsp' Capital Spacing lookup 0 subtable" dx=5 dy=0 dh=10 dv=0
EndChar

StartChar: Lacute
Encoding: 313 313 89
Width: 484
GlyphClass: 2
Flags: MW
HStem: 0 76<66 434 143 426> 682 20G<160 168 168 182.5>
VStem: 50 401<19.5 61.5>
AnchorPoint: "Anchor-1" 213 879 basechar 0
AnchorPoint: "Anchor-0" 242 0 basechar 0
LayerCount: 2
Fore
SplineSet
264 911 m 128,-1,1
 311 911 311 911 311 899 c 0,2,3
 311 888 311 888 205 782 c 0,4,5
 187 764 187 764 158.5 764 c 128,-1,6
 130 764 130 764 130 773 c 0,7,8
 130 785 130 785 199 885 c 0,9,0
 217 911 217 911 264 911 c 128,-1,1
160 702 m 2,10,-1
 168 702 l 2,11,12
 206 702 206 702 206 680 c 1,13,-1
 143 76 l 1,14,-1
 434 76 l 2,15,16
 451 76 451 76 451 54 c 0,17,18
 451 0 451 0 426 0 c 2,19,-1
 77 0 l 2,20,21
 61 0 61 0 55.5 7 c 128,-1,22
 50 14 50 14 50 30 c 1,23,-1
 118 680 l 2,24,25
 120 702 120 702 160 702 c 2,10,-1
EndSplineSet
Position2: "'cpsp' Capital Spacing lookup 0 subtable" dx=5 dy=0 dh=10 dv=0
EndChar

StartChar: Lcaron
Encoding: 317 317 90
Width: 484
GlyphClass: 2
Flags: MW
HStem: 0 76<66 434 143 426> 680 20G 682 20G<160 168 168 182.5>
VStem: 352 90<647 677.5>
AnchorPoint: "Anchor-1" 168 702 basechar 0
AnchorPoint: "Anchor-0" 242 0 basechar 0
LayerCount: 2
Fore
SplineSet
160 702 m 2,0,-1
 168 702 l 2,1,2
 206 702 206 702 206 680 c 1,3,-1
 143 76 l 1,4,-1
 434 76 l 2,5,6
 451 76 451 76 451 54 c 0,7,8
 451 0 451 0 426 0 c 2,9,-1
 77 0 l 2,10,11
 61 0 61 0 55.5 7 c 128,-1,12
 50 14 50 14 50 30 c 1,13,-1
 118 680 l 2,14,15
 120 702 120 702 160 702 c 2,0,-1
396 700 m 2,16,-1
 405 700 l 2,17,18
 442 700 442 700 442 672 c 0,19,20
 442 636 442 636 406.5 586 c 128,-1,21
 371 536 371 536 352 536 c 0,22,23
 325 536 325 536 325 551 c 0,24,25
 325 561 325 561 338.5 599.5 c 128,-1,26
 352 638 352 638 352 660 c 0,27,28
 352 700 352 700 396 700 c 2,16,-1
EndSplineSet
Position2: "'cpsp' Capital Spacing lookup 0 subtable" dx=5 dy=0 dh=10 dv=0
EndChar

StartChar: Lcommaaccent
Encoding: 315 315 91
Width: 484
GlyphClass: 2
Flags: MW
HStem: 0 76<66 434 143 426> 682 20G<160 168 168 182.5>
VStem: 192 90<-108 -73.5>
AnchorPoint: "Anchor-1" 168 702 basechar 0
AnchorPoint: "Anchor-0" 220 -203 basechar 0
LayerCount: 2
Fore
SplineSet
160 702 m 2,0,-1
 168 702 l 2,1,2
 206 702 206 702 206 680 c 1,3,-1
 143 76 l 1,4,-1
 434 76 l 2,5,6
 451 76 451 76 451 54 c 0,7,8
 451 0 451 0 426 0 c 2,9,-1
 77 0 l 2,10,11
 61 0 61 0 55.5 7 c 128,-1,12
 50 14 50 14 50 30 c 1,13,-1
 118 680 l 2,14,15
 120 702 120 702 160 702 c 2,0,-1
236 -51 m 2,16,-1
 245 -51 l 2,17,18
 282 -51 282 -51 282 -79 c 0,19,20
 282 -120 282 -120 235.5 -177.5 c 128,-1,21
 189 -235 189 -235 162 -235 c 128,-1,22
 135 -235 135 -235 135 -220 c 0,23,24
 135 -209 135 -209 163.5 -164 c 128,-1,25
 192 -119 192 -119 192 -83 c 0,26,27
 192 -69 192 -69 204 -60 c 128,-1,28
 216 -51 216 -51 236 -51 c 2,16,-1
EndSplineSet
Position2: "'cpsp' Capital Spacing lookup 0 subtable" dx=5 dy=0 dh=10 dv=0
EndChar

StartChar: Ldot
Encoding: 319 319 92
Width: 484
GlyphClass: 2
Flags: MW
HStem: 0 76<66 434 143 426> 309 103<289.5 310.5> 682 20G<160 168 168 182.5>
VStem: 249 103<348.5 370.5>
AnchorPoint: "Anchor-1" 168 702 basechar 0
AnchorPoint: "Anchor-0" 242 0 basechar 0
LayerCount: 2
Fore
SplineSet
160 702 m 2,0,-1
 168 702 l 2,1,2
 206 702 206 702 206 680 c 1,3,-1
 143 76 l 1,4,-1
 434 76 l 2,5,6
 451 76 451 76 451 54 c 0,7,8
 451 0 451 0 426 0 c 2,9,-1
 77 0 l 2,10,11
 61 0 61 0 55.5 7 c 128,-1,12
 50 14 50 14 50 30 c 1,13,-1
 118 680 l 2,14,15
 120 702 120 702 160 702 c 2,0,-1
265 395.5 m 128,-1,17
 281 412 281 412 303.5 412 c 128,-1,18
 326 412 326 412 339 399 c 128,-1,19
 352 386 352 386 352 363 c 128,-1,20
 352 340 352 340 335.5 324.5 c 128,-1,21
 319 309 319 309 297 309 c 128,-1,22
 275 309 275 309 262 321.5 c 128,-1,23
 249 334 249 334 249 356.5 c 128,-1,16
 249 379 249 379 265 395.5 c 128,-1,17
EndSplineSet
Ligature2: "Ligature Substitution lookup 19 subtable" L periodcentered
Position2: "'cpsp' Capital Spacing lookup 0 subtable" dx=5 dy=0 dh=10 dv=0
EndChar

StartChar: Lj
Encoding: 456 456 93
Width: 760
GlyphClass: 2
Flags: MW
HStem: -212 72<472 499.5 466.5 520.5> 0 76<66 434 143 426> 505 20G<646 650 650 664> 649 103<647 678 666 672> 682 20G<160 168 168 182.5>
VStem: 618 98<662 738>
AnchorPoint: "Anchor-1" 168 702 basechar 0
AnchorPoint: "Anchor-0" 242 0 basechar 0
LayerCount: 2
Fore
SplineSet
666 752 m 2,0,-1
 678 752 l 2,1,2
 716 752 716 752 716 730 c 1,3,-1
 710 671 l 1,4,5
 710 649 710 649 672 649 c 2,6,-1
 660 649 l 2,7,8
 618 649 618 649 618 671 c 1,9,-1
 624 730 l 2,10,11
 627 752 627 752 666 752 c 2,0,-1
160 702 m 2,12,-1
 168 702 l 2,13,14
 206 702 206 702 206 680 c 1,15,-1
 143 76 l 1,16,-1
 434 76 l 2,17,18
 451 76 451 76 451 54 c 0,19,20
 451 0 451 0 426 0 c 2,21,-1
 77 0 l 2,22,23
 61 0 61 0 55.5 7 c 128,-1,24
 50 14 50 14 50 30 c 1,25,-1
 118 680 l 2,26,27
 120 702 120 702 160 702 c 2,12,-1
646 525 m 2,28,-1
 650 525 l 2,29,30
 688 525 688 525 688 503 c 1,31,-1
 627 -74 l 2,32,33
 619 -152 619 -152 581.5 -182 c 128,-1,34
 544 -212 544 -212 502.5 -212 c 0,35,36
 461 -212 461 -212 439 -200.5 c 128,-1,37
 417 -189 417 -189 417 -171 c 0,38,39
 417 -123 417 -123 428 -123 c 0,40,41
 429 -123 429 -123 446 -131.5 c 128,-1,42
 463 -140 463 -140 486.5 -140 c 0,43,44
 510 -140 510 -140 525 -124 c 128,-1,45
 540 -108 540 -108 544 -66 c 2,46,-1
 604 503 l 2,47,48
 607 525 607 525 646 525 c 2,28,-1
EndSplineSet
Position2: "'cpsp' Capital Spacing lookup 0 subtable" dx=5 dy=0 dh=10 dv=0
EndChar

StartChar: Lslash
Encoding: 321 321 94
Width: 486
GlyphClass: 2
Flags: MW
HStem: 0 76<67 435 144 427> 682 20G<161 169 169 183.5>
VStem: -5 457<42.5 328>
LayerCount: 2
Fore
SplineSet
161 702 m 2,0,-1
 169 702 l 2,1,2
 207 702 207 702 207 680 c 1,3,-1
 183 447 l 1,4,-1
 297 511 l 2,5,6
 305 515 305 515 308 515 c 0,7,8
 315 515 315 515 315 496 c 0,9,10
 315 477 315 477 292 465 c 2,11,-1
 178 401 l 1,12,-1
 144 76 l 1,13,-1
 435 76 l 2,14,15
 452 76 452 76 452 54 c 0,16,17
 452 0 452 0 427 0 c 2,18,-1
 78 0 l 2,19,20
 62 0 62 0 56.5 7 c 128,-1,21
 51 14 51 14 51 30 c 1,22,-1
 84 348 l 1,23,-1
 12 308 l 2,24,25
 4 304 4 304 2 304 c 0,26,27
 -5 304 -5 304 -5 322.5 c 0,28,29
 -5 341 -5 341 17 354 c 2,30,-1
 89 394 l 1,31,-1
 119 680 l 2,32,33
 121 702 121 702 161 702 c 2,0,-1
EndSplineSet
Position2: "'cpsp' Capital Spacing lookup 0 subtable" dx=5 dy=0 dh=10 dv=0
EndChar

StartChar: M
Encoding: 77 77 95
Width: 843
GlyphClass: 2
Flags: MW
HStem: 682 20G<165 201 201 213 715 748 748 762.5>
VStem: 54 732<13 687>
LayerCount: 2
Fore
SplineSet
715 702 m 2,0,-1
 748 702 l 2,1,2
 786 702 786 702 786 680 c 1,3,-1
 717 20 l 2,4,5
 714 -2 714 -2 675 -2 c 2,6,-1
 668 -2 l 2,7,8
 630 -2 630 -2 630 20 c 1,9,-1
 686 558 l 1,10,-1
 449 208 l 2,11,12
 440 195 440 195 425 195 c 2,13,-1
 385 195 l 2,14,15
 371 195 371 195 365 208 c 2,16,-1
 201 558 l 1,17,-1
 198 564 l 1,18,-1
 141 20 l 2,19,20
 138 -2 138 -2 99 -2 c 2,21,-1
 92 -2 l 2,22,23
 54 -2 54 -2 54 20 c 1,24,-1
 123 680 l 2,25,26
 125 702 125 702 165 702 c 2,27,-1
 201 702 l 2,28,29
 234 702 234 702 242 684 c 2,30,-1
 396 356 l 1,31,-1
 416 293 l 1,32,-1
 448 350 l 1,33,-1
 672 684 l 2,34,35
 683 702 683 702 715 702 c 2,0,-1
EndSplineSet
Position2: "'cpsp' Capital Spacing lookup 0 subtable" dx=5 dy=0 dh=10 dv=0
EndChar

StartChar: N
Encoding: 78 78 96
Width: 719
GlyphClass: 2
Flags: MW
HStem: 682 20G<163 184 184 195 621 628 628 642.5>
VStem: 52 614
AnchorPoint: "Anchor-1" 391 700 basechar 0
AnchorPoint: "Anchor-0" 336 0 basechar 0
LayerCount: 2
Fore
SplineSet
621 702 m 2,0,-1
 628 702 l 2,1,2
 666 702 666 702 666 680 c 1,3,-1
 597 20 l 2,4,5
 594 -2 594 -2 555 -2 c 2,6,-1
 535 -2 l 2,7,8
 509 -2 509 -2 501 12 c 2,9,-1
 217 510 l 1,10,-1
 196 561 l 1,11,-1
 139 20 l 2,12,13
 136 -2 136 -2 97 -2 c 2,14,-1
 90 -2 l 2,15,16
 52 -2 52 -2 52 20 c 1,17,-1
 121 680 l 2,18,19
 123 702 123 702 163 702 c 2,20,-1
 184 702 l 2,21,22
 213 702 213 702 224 683 c 2,23,-1
 499 201 l 1,24,-1
 523 145 l 1,25,-1
 579 680 l 2,26,27
 581 702 581 702 621 702 c 2,0,-1
EndSplineSet
Position2: "'cpsp' Capital Spacing lookup 0 subtable" dx=5 dy=0 dh=10 dv=0
EndChar

StartChar: NJ
Encoding: 458 458 97
Width: 1121
GlyphClass: 2
Flags: MW
HStem: -6 82<774.5 835.5 769 869.5> 682 20G<163 184 184 195 621 628 628 642.5 1027 1035 1035 1049.5>
VStem: 52 1021<13 687>
AnchorPoint: "Anchor-1" 1027 702 basechar 0
AnchorPoint: "Anchor-0" 336 0 basechar 0
LayerCount: 2
Fore
SplineSet
621 702 m 2,0,-1
 628 702 l 2,1,2
 666 702 666 702 666 680 c 1,3,-1
 597 20 l 2,4,5
 594 -2 594 -2 555 -2 c 2,6,-1
 535 -2 l 2,7,8
 509 -2 509 -2 501 12 c 2,9,-1
 217 510 l 1,10,-1
 196 561 l 1,11,-1
 139 20 l 2,12,13
 136 -2 136 -2 97 -2 c 2,14,-1
 90 -2 l 2,15,16
 52 -2 52 -2 52 20 c 1,17,-1
 121 680 l 2,18,19
 123 702 123 702 163 702 c 2,20,-1
 184 702 l 2,21,22
 213 702 213 702 224 683 c 2,23,-1
 499 201 l 1,24,-1
 523 145 l 1,25,-1
 579 680 l 2,26,27
 581 702 581 702 621 702 c 2,0,-1
1027 702 m 2,28,-1
 1035 702 l 2,29,30
 1073 702 1073 702 1073 680 c 1,31,-1
 1023 205 l 2,32,33
 1001 -6 1001 -6 796 -6 c 0,34,35
 708 -6 708 -6 708 26 c 0,36,37
 708 85 708 85 723 85 c 0,38,39
 724 85 724 85 744.5 80.5 c 128,-1,40
 765 76 765 76 789 76 c 0,41,42
 858 76 858 76 892.5 106 c 128,-1,43
 927 136 927 136 934 201 c 2,44,-1
 985 680 l 2,45,46
 987 702 987 702 1027 702 c 2,28,-1
EndSplineSet
Position2: "'cpsp' Capital Spacing lookup 0 subtable" dx=5 dy=0 dh=10 dv=0
EndChar

StartChar: Nacute
Encoding: 323 323 98
Width: 719
GlyphClass: 2
Flags: MW
HStem: 682 20G<163 184 184 195 621 628 628 642.5>
VStem: 52 614
AnchorPoint: "Anchor-1" 436 877 basechar 0
AnchorPoint: "Anchor-0" 336 0 basechar 0
LayerCount: 2
Fore
SplineSet
487 909 m 128,-1,1
 534 909 534 909 534 897 c 0,2,3
 534 886 534 886 428 780 c 0,4,5
 410 762 410 762 381.5 762 c 128,-1,6
 353 762 353 762 353 771 c 0,7,8
 353 783 353 783 422 883 c 0,9,0
 440 909 440 909 487 909 c 128,-1,1
621 702 m 2,10,-1
 628 702 l 2,11,12
 666 702 666 702 666 680 c 1,13,-1
 597 20 l 2,14,15
 594 -2 594 -2 555 -2 c 2,16,-1
 535 -2 l 2,17,18
 509 -2 509 -2 501 12 c 2,19,-1
 217 510 l 1,20,-1
 196 561 l 1,21,-1
 139 20 l 2,22,23
 136 -2 136 -2 97 -2 c 2,24,-1
 90 -2 l 2,25,26
 52 -2 52 -2 52 20 c 1,27,-1
 121 680 l 2,28,29
 123 702 123 702 163 702 c 2,30,-1
 184 702 l 2,31,32
 213 702 213 702 224 683 c 2,33,-1
 499 201 l 1,34,-1
 523 145 l 1,35,-1
 579 680 l 2,36,37
 581 702 581 702 621 702 c 2,10,-1
EndSplineSet
Substitution2: "'locl' Localized Forms in Latin lookup 11 subtable" Nacute.loclPLK
Substitution2: "'aalt' Access All Alternates lookup 0 subtable" Nacute.loclPLK
Position2: "'cpsp' Capital Spacing lookup 0 subtable" dx=5 dy=0 dh=10 dv=0
EndChar

StartChar: Ncaron
Encoding: 327 327 99
Width: 719
GlyphClass: 2
Flags: MW
HStem: 682 20G<163 184 184 195 621 628 628 642.5>
VStem: 52 614
AnchorPoint: "Anchor-1" 409 877 basechar 0
AnchorPoint: "Anchor-0" 336 0 basechar 0
LayerCount: 2
Fore
SplineSet
507 901 m 2,0,-1
 509 901 l 2,1,2
 531 901 531 901 531 887 c 0,3,4
 531 879 531 879 524 869 c 2,5,-1
 457 781 l 2,6,7
 441 759 441 759 409 759 c 2,8,-1
 384 759 l 2,9,10
 352 759 352 759 340 781 c 2,11,-1
 294 869 l 2,12,13
 289 878 289 878 290 889.5 c 0,14,15
 291 901 291 901 314 901 c 2,16,-1
 316 901 l 2,17,18
 336 901 336 901 349 888 c 1,19,-1
 402 814 l 1,20,-1
 473 888 l 1,21,22
 489 901 489 901 507 901 c 2,0,-1
621 702 m 2,23,-1
 628 702 l 2,24,25
 666 702 666 702 666 680 c 1,26,-1
 597 20 l 2,27,28
 594 -2 594 -2 555 -2 c 2,29,-1
 535 -2 l 2,30,31
 509 -2 509 -2 501 12 c 2,32,-1
 217 510 l 1,33,-1
 196 561 l 1,34,-1
 139 20 l 2,35,36
 136 -2 136 -2 97 -2 c 2,37,-1
 90 -2 l 2,38,39
 52 -2 52 -2 52 20 c 1,40,-1
 121 680 l 2,41,42
 123 702 123 702 163 702 c 2,43,-1
 184 702 l 2,44,45
 213 702 213 702 224 683 c 2,46,-1
 499 201 l 1,47,-1
 523 145 l 1,48,-1
 579 680 l 2,49,50
 581 702 581 702 621 702 c 2,23,-1
EndSplineSet
Position2: "'cpsp' Capital Spacing lookup 0 subtable" dx=5 dy=0 dh=10 dv=0
EndChar

StartChar: Ncommaaccent
Encoding: 325 325 100
Width: 719
GlyphClass: 2
Flags: MW
HStem: 682 20G<163 184 184 195 621 628 628 642.5>
VStem: 286 90<-108 -73.5>
AnchorPoint: "Anchor-1" 391 700 basechar 0
AnchorPoint: "Anchor-0" 314 -203 basechar 0
LayerCount: 2
Fore
SplineSet
621 702 m 2,0,-1
 628 702 l 2,1,2
 666 702 666 702 666 680 c 1,3,-1
 597 20 l 2,4,5
 594 -2 594 -2 555 -2 c 2,6,-1
 535 -2 l 2,7,8
 509 -2 509 -2 501 12 c 2,9,-1
 217 510 l 1,10,-1
 196 561 l 1,11,-1
 139 20 l 2,12,13
 136 -2 136 -2 97 -2 c 2,14,-1
 90 -2 l 2,15,16
 52 -2 52 -2 52 20 c 1,17,-1
 121 680 l 2,18,19
 123 702 123 702 163 702 c 2,20,-1
 184 702 l 2,21,22
 213 702 213 702 224 683 c 2,23,-1
 499 201 l 1,24,-1
 523 145 l 1,25,-1
 579 680 l 2,26,27
 581 702 581 702 621 702 c 2,0,-1
330 -51 m 2,28,-1
 339 -51 l 2,29,30
 376 -51 376 -51 376 -79 c 0,31,32
 376 -120 376 -120 329.5 -177.5 c 128,-1,33
 283 -235 283 -235 256 -235 c 128,-1,34
 229 -235 229 -235 229 -220 c 0,35,36
 229 -209 229 -209 257.5 -164 c 128,-1,37
 286 -119 286 -119 286 -83 c 0,38,39
 286 -69 286 -69 298 -60 c 128,-1,40
 310 -51 310 -51 330 -51 c 2,28,-1
EndSplineSet
Position2: "'cpsp' Capital Spacing lookup 0 subtable" dx=5 dy=0 dh=10 dv=0
EndChar

StartChar: Ndotaccent
Encoding: 7748 7748 101
Width: 719
GlyphClass: 2
Flags: MW
HStem: 682 20G<163 184 184 195 621 628 628 642.5> 784 95<392 410>
VStem: 357 89<799 864>
AnchorPoint: "Anchor-1" 410 877 basechar 0
AnchorPoint: "Anchor-0" 336 0 basechar 0
LayerCount: 2
Fore
SplineSet
362 857 m 2,0,1
 365 879 365 879 405.5 879 c 128,-1,2
 446 879 446 879 446 857 c 1,3,-1
 441 806 l 2,4,5
 438 784 438 784 397.5 784 c 128,-1,6
 357 784 357 784 357 806 c 1,7,-1
 362 857 l 2,0,1
621 702 m 2,8,-1
 628 702 l 2,9,10
 666 702 666 702 666 680 c 1,11,-1
 597 20 l 2,12,13
 594 -2 594 -2 555 -2 c 2,14,-1
 535 -2 l 2,15,16
 509 -2 509 -2 501 12 c 2,17,-1
 217 510 l 1,18,-1
 196 561 l 1,19,-1
 139 20 l 2,20,21
 136 -2 136 -2 97 -2 c 2,22,-1
 90 -2 l 2,23,24
 52 -2 52 -2 52 20 c 1,25,-1
 121 680 l 2,26,27
 123 702 123 702 163 702 c 2,28,-1
 184 702 l 2,29,30
 213 702 213 702 224 683 c 2,31,-1
 499 201 l 1,32,-1
 523 145 l 1,33,-1
 579 680 l 2,34,35
 581 702 581 702 621 702 c 2,8,-1
EndSplineSet
Position2: "'cpsp' Capital Spacing lookup 0 subtable" dx=5 dy=0 dh=10 dv=0
EndChar

StartChar: Eng
Encoding: 330 330 102
Width: 719
GlyphClass: 2
Flags: MW
HStem: -212 72<432 459.5 426.5 480.5> 682 20G<163 184 184 195 621 628 628 642.5>
VStem: 507.5 84.5
AnchorPoint: "Anchor-1" 609 523 basechar 0
AnchorPoint: "Anchor-0" 0 0 basechar 0
LayerCount: 2
Fore
SplineSet
648 506 m 1,0,-1
 648 503 l 1,1,-1
 603 73 l 1,2,-1
 587 -74 l 2,3,4
 579 -152 579 -152 541.5 -182 c 128,-1,5
 504 -212 504 -212 462.5 -212 c 128,-1,6
 421 -212 421 -212 399 -200.5 c 128,-1,7
 377 -189 377 -189 377 -171 c 0,8,9
 377 -123 377 -123 388 -123 c 0,10,11
 389 -123 389 -123 406 -131.5 c 128,-1,12
 423 -140 423 -140 446.5 -140 c 128,-1,13
 470 -140 470 -140 485 -124 c 128,-1,14
 500 -108 500 -108 504 -66 c 2,15,-1
 511 -4 l 1,16,-1
 217 510 l 1,17,-1
 196 561 l 1,18,-1
 139 20 l 2,19,20
 136 -2 136 -2 97 -2 c 2,21,-1
 90 -2 l 2,22,23
 52 -2 52 -2 52 20 c 1,24,-1
 121 680 l 2,25,26
 123 702 123 702 163 702 c 2,27,-1
 184 702 l 2,28,29
 213 702 213 702 224 683 c 2,30,-1
 499 201 l 1,31,-1
 523 145 l 1,32,-1
 579 680 l 2,33,34
 581 702 581 702 621 702 c 2,35,-1
 628 702 l 2,36,37
 666 702 666 702 666 680 c 1,38,-1
 648 506 l 1,0,-1
EndSplineSet
Position2: "'cpsp' Capital Spacing lookup 0 subtable" dx=5 dy=0 dh=10 dv=0
EndChar

StartChar: Nj
Encoding: 459 459 103
Width: 995
GlyphClass: 2
Flags: MW
HStem: -212 72<707 734.5 701.5 755.5> 505 20G<881 885 885 899> 649 103<882 913 901 907> 682 20G<163 184 184 195 621 628 628 642.5>
VStem: 853 98<662 738>
AnchorPoint: "Anchor-1" 391 700 basechar 0
AnchorPoint: "Anchor-0" 336 0 basechar 0
LayerCount: 2
Fore
SplineSet
901 752 m 2,0,-1
 913 752 l 2,1,2
 951 752 951 752 951 730 c 1,3,-1
 945 671 l 1,4,5
 945 649 945 649 907 649 c 2,6,-1
 895 649 l 2,7,8
 853 649 853 649 853 671 c 1,9,-1
 859 730 l 2,10,11
 862 752 862 752 901 752 c 2,0,-1
621 702 m 2,12,-1
 628 702 l 2,13,14
 666 702 666 702 666 680 c 1,15,-1
 597 20 l 2,16,17
 594 -2 594 -2 555 -2 c 2,18,-1
 535 -2 l 2,19,20
 509 -2 509 -2 501 12 c 2,21,-1
 217 510 l 1,22,-1
 196 561 l 1,23,-1
 139 20 l 2,24,25
 136 -2 136 -2 97 -2 c 2,26,-1
 90 -2 l 2,27,28
 52 -2 52 -2 52 20 c 1,29,-1
 121 680 l 2,30,31
 123 702 123 702 163 702 c 2,32,-1
 184 702 l 2,33,34
 213 702 213 702 224 683 c 2,35,-1
 499 201 l 1,36,-1
 523 145 l 1,37,-1
 579 680 l 2,38,39
 581 702 581 702 621 702 c 2,12,-1
881 525 m 2,40,-1
 885 525 l 2,41,42
 923 525 923 525 923 503 c 1,43,-1
 862 -74 l 2,44,45
 854 -152 854 -152 816.5 -182 c 128,-1,46
 779 -212 779 -212 737.5 -212 c 0,47,48
 696 -212 696 -212 674 -200.5 c 128,-1,49
 652 -189 652 -189 652 -171 c 0,50,51
 652 -123 652 -123 663 -123 c 0,52,53
 664 -123 664 -123 681 -131.5 c 128,-1,54
 698 -140 698 -140 721.5 -140 c 0,55,56
 745 -140 745 -140 760 -124 c 128,-1,57
 775 -108 775 -108 779 -66 c 2,58,-1
 839 503 l 2,59,60
 842 525 842 525 881 525 c 2,40,-1
EndSplineSet
Position2: "'cpsp' Capital Spacing lookup 0 subtable" dx=5 dy=0 dh=10 dv=0
EndChar

StartChar: Ntilde
Encoding: 209 209 104
Width: 719
GlyphClass: 2
Flags: MW
HStem: 682 20G<163 184 184 195 621 628 628 642.5> 762 64<469 483.5> 793 64<335.5 350.5>
VStem: 52 614
AnchorPoint: "Anchor-1" 426 877 basechar 0
AnchorPoint: "Anchor-0" 336 0 basechar 0
LayerCount: 2
Fore
SplineSet
533 848 m 0,0,1
 554 862 554 862 572 844 c 0,2,3
 590 826 590 826 569 806 c 0,4,5
 516 762 516 762 469 762 c 0,6,7
 422 762 422 762 388 777.5 c 0,8,9
 354 793 354 793 340 793 c 0,10,11
 326 793 326 793 294.5 776.5 c 0,12,13
 263 760 263 760 247 781.5 c 0,14,15
 231 803 231 803 249 816 c 0,16,17
 306 857 306 857 356 857 c 0,18,19
 387 857 387 857 424.5 841.5 c 0,20,21
 462 826 462 826 481 826 c 0,22,23
 500 826 500 826 533 848 c 0,0,1
621 702 m 2,24,-1
 628 702 l 2,25,26
 666 702 666 702 666 680 c 1,27,-1
 597 20 l 2,28,29
 594 -2 594 -2 555 -2 c 2,30,-1
 535 -2 l 2,31,32
 509 -2 509 -2 501 12 c 2,33,-1
 217 510 l 1,34,-1
 196 561 l 1,35,-1
 139 20 l 2,36,37
 136 -2 136 -2 97 -2 c 2,38,-1
 90 -2 l 2,39,40
 52 -2 52 -2 52 20 c 1,41,-1
 121 680 l 2,42,43
 123 702 123 702 163 702 c 2,44,-1
 184 702 l 2,45,46
 213 702 213 702 224 683 c 2,47,-1
 499 201 l 1,48,-1
 523 145 l 1,49,-1
 579 680 l 2,50,51
 581 702 581 702 621 702 c 2,24,-1
EndSplineSet
Position2: "'cpsp' Capital Spacing lookup 0 subtable" dx=5 dy=0 dh=10 dv=0
EndChar

StartChar: O
Encoding: 79 79 105
Width: 731
GlyphClass: 2
Flags: MW
HStem: -6 76<272.5 410 272.5 434> 630 76<318 456.5>
VStem: 53 91<218.5 387> 586 92<299.5 483>
AnchorPoint: "Anchor-1" 402 700 basechar 0
AnchorPoint: "Anchor-0" 327 0 basechar 0
LayerCount: 2
Fore
SplineSet
402 706 m 0,0,1
 537 706 537 706 607.5 633.5 c 128,-1,2
 678 561 678 561 678 420 c 0,3,4
 678 215 678 215 584 104.5 c 128,-1,5
 490 -6 490 -6 327 -6 c 0,6,7
 193 -6 193 -6 123 67 c 128,-1,8
 53 140 53 140 53 282 c 0,9,10
 53 418.117647059 53 418.117647059 100.5 521.5 c 0,11,12
 126 577 126 577 165 617.5 c 128,-1,13
 204 658 204 658 265 682 c 128,-1,14
 326 706 326 706 402 706 c 0,0,1
394 630 m 0,15,16
 278 630 278 630 211 543 c 128,-1,17
 144 456 144 456 144 291 c 0,18,19
 144 182 144 182 192.5 126 c 128,-1,20
 241 70 241 70 335 70 c 0,21,22
 450 70 450 70 518 158.5 c 128,-1,23
 586 247 586 247 586 410 c 0,24,25
 586 519 586 519 537 574.5 c 128,-1,26
 488 630 488 630 394 630 c 0,15,16
EndSplineSet
Substitution2: "Single Substitution lookup 20 subtable" ordmasculine
Substitution2: "'aalt' Access All Alternates lookup 0 subtable" ordmasculine
Position2: "'cpsp' Capital Spacing lookup 0 subtable" dx=5 dy=0 dh=10 dv=0
EndChar

StartChar: Oacute
Encoding: 211 211 106
Width: 731
GlyphClass: 2
Flags: MW
HStem: -6 76<272.5 410 272.5 434> 630 76<318 456.5>
VStem: 53 91<218.5 387> 586 92<299.5 483>
AnchorPoint: "Anchor-1" 447 877 basechar 0
AnchorPoint: "Anchor-0" 327 0 basechar 0
LayerCount: 2
Fore
SplineSet
498 909 m 128,-1,1
 545 909 545 909 545 897 c 0,2,3
 545 886 545 886 439 780 c 0,4,5
 421 762 421 762 392.5 762 c 128,-1,6
 364 762 364 762 364 771 c 0,7,8
 364 783 364 783 433 883 c 0,9,0
 451 909 451 909 498 909 c 128,-1,1
402 706 m 0,10,11
 537 706 537 706 607.5 633.5 c 128,-1,12
 678 561 678 561 678 420 c 0,13,14
 678 215 678 215 584 104.5 c 128,-1,15
 490 -6 490 -6 327 -6 c 0,16,17
 193 -6 193 -6 123 67 c 128,-1,18
 53 140 53 140 53 282 c 0,19,20
 53 418.117647059 53 418.117647059 100.5 521.5 c 0,21,22
 126 577 126 577 165 617.5 c 128,-1,23
 204 658 204 658 265 682 c 128,-1,24
 326 706 326 706 402 706 c 0,10,11
394 630 m 0,25,26
 278 630 278 630 211 543 c 128,-1,27
 144 456 144 456 144 291 c 0,28,29
 144 182 144 182 192.5 126 c 128,-1,30
 241 70 241 70 335 70 c 0,31,32
 450 70 450 70 518 158.5 c 128,-1,33
 586 247 586 247 586 410 c 0,34,35
 586 519 586 519 537 574.5 c 128,-1,36
 488 630 488 630 394 630 c 0,25,26
EndSplineSet
Substitution2: "'locl' Localized Forms in Latin lookup 11 subtable" Oacute.loclPLK
Substitution2: "'aalt' Access All Alternates lookup 0 subtable" Oacute.loclPLK
Position2: "'cpsp' Capital Spacing lookup 0 subtable" dx=5 dy=0 dh=10 dv=0
EndChar

StartChar: Obreve
Encoding: 334 334 107
Width: 731
GlyphClass: 2
Flags: MW
HStem: -6 76<272.5 410 272.5 434> 630 76<318 456.5> 762 66<389.5 438 389.5 440.5>
VStem: 53 91<218.5 387> 586 92<299.5 483>
AnchorPoint: "Anchor-1" 421 848 basechar 0
AnchorPoint: "Anchor-0" 327 0 basechar 0
LayerCount: 2
Fore
SplineSet
549 892 m 0,0,1
 563 892 563 892 563 880 c 0,2,3
 563 825 563 825 513.5 793.5 c 128,-1,4
 464 762 464 762 408 762 c 128,-1,5
 352 762 352 762 312.5 789 c 128,-1,6
 273 816 273 816 273 865 c 0,7,8
 273 892 273 892 290 892 c 0,9,10
 301.4 892 301.4 892 303.2 887.5 c 128,-1,11
 305 883 305 883 306.5 877 c 0,12,13
 318.75 828 318.75 828 409.375 828 c 128,-1,14
 500 828 500 828 525 867 c 0,15,16
 528 872 528 872 531 880 c 128,-1,17
 534 888 534 888 537.5 890 c 128,-1,18
 541 892 541 892 549 892 c 0,0,1
402 706 m 0,19,20
 537 706 537 706 607.5 633.5 c 128,-1,21
 678 561 678 561 678 420 c 0,22,23
 678 215 678 215 584 104.5 c 128,-1,24
 490 -6 490 -6 327 -6 c 0,25,26
 193 -6 193 -6 123 67 c 128,-1,27
 53 140 53 140 53 282 c 0,28,29
 53 418.117647059 53 418.117647059 100.5 521.5 c 0,30,31
 126 577 126 577 165 617.5 c 128,-1,32
 204 658 204 658 265 682 c 128,-1,33
 326 706 326 706 402 706 c 0,19,20
394 630 m 0,34,35
 278 630 278 630 211 543 c 128,-1,36
 144 456 144 456 144 291 c 0,37,38
 144 182 144 182 192.5 126 c 128,-1,39
 241 70 241 70 335 70 c 0,40,41
 450 70 450 70 518 158.5 c 128,-1,42
 586 247 586 247 586 410 c 0,43,44
 586 519 586 519 537 574.5 c 128,-1,45
 488 630 488 630 394 630 c 0,34,35
EndSplineSet
Position2: "'cpsp' Capital Spacing lookup 0 subtable" dx=5 dy=0 dh=10 dv=0
EndChar

StartChar: Ocircumflex
Encoding: 212 212 108
Width: 731
GlyphClass: 2
Flags: MW
HStem: -6 76<272.5 410 272.5 434> 630 76<318 456.5>
VStem: 53 91<218.5 387> 586 92<299.5 483>
AnchorPoint: "Anchor-1" 587 793 basechar 0
AnchorPoint: "Anchor-0" 327 0 basechar 0
LayerCount: 2
Fore
SplineSet
402 895 m 2,0,-1
 427 895 l 2,1,2
 459 895 459 895 471 873 c 2,3,-1
 518 785 l 2,4,5
 523 777 523 777 522 765 c 128,-1,6
 521 753 521 753 497 753 c 2,7,-1
 495 753 l 2,8,9
 476 753 476 753 463 766 c 1,10,-1
 408 840 l 1,11,-1
 339 766 l 1,12,13
 323 753 323 753 304 753 c 2,14,-1
 302 753 l 2,15,16
 281 753 281 753 281 765 c 0,17,18
 281 774 281 774 288 785 c 2,19,-1
 354 873 l 2,20,21
 370 895 370 895 402 895 c 2,0,-1
402 706 m 0,22,23
 537 706 537 706 607.5 633.5 c 128,-1,24
 678 561 678 561 678 420 c 0,25,26
 678 215 678 215 584 104.5 c 128,-1,27
 490 -6 490 -6 327 -6 c 0,28,29
 193 -6 193 -6 123 67 c 128,-1,30
 53 140 53 140 53 282 c 0,31,32
 53 418.117647059 53 418.117647059 100.5 521.5 c 0,33,34
 126 577 126 577 165 617.5 c 128,-1,35
 204 658 204 658 265 682 c 128,-1,36
 326 706 326 706 402 706 c 0,22,23
394 630 m 0,37,38
 278 630 278 630 211 543 c 128,-1,39
 144 456 144 456 144 291 c 0,40,41
 144 182 144 182 192.5 126 c 128,-1,42
 241 70 241 70 335 70 c 0,43,44
 450 70 450 70 518 158.5 c 128,-1,45
 586 247 586 247 586 410 c 0,46,47
 586 519 586 519 537 574.5 c 128,-1,48
 488 630 488 630 394 630 c 0,37,38
EndSplineSet
Position2: "'cpsp' Capital Spacing lookup 0 subtable" dx=5 dy=0 dh=10 dv=0
EndChar

StartChar: Ocircumflexacute
Encoding: 7888 7888 109
Width: 731
GlyphClass: 2
Flags: MW
HStem: -6 76<272.5 410 272.5 434> 630 76<318 456.5> 753 142<303 435 310 435 410 488 410 490>
VStem: 53 91<218.5 387> 586 92<299.5 483>
AnchorPoint: "Anchor-1" 549 829 basechar 0
AnchorPoint: "Anchor-0" 327 0 basechar 0
LayerCount: 2
Fore
SplineSet
568 935 m 0,0,1
 584 961 584 961 624.5 961 c 128,-1,2
 665 961 665 961 665 949 c 0,3,4
 665 943 665 943 573 842 c 0,5,6
 558 824 558 824 535.5 824 c 128,-1,7
 513 824 513 824 513 833 c 0,8,9
 513 847 513 847 568 935 c 0,0,1
410 895 m 2,10,-1
 435 895 l 2,11,12
 459 895 459 895 469 873 c 2,13,-1
 511 785 l 1,14,15
 516 777 516 777 515 765 c 128,-1,16
 514 753 514 753 490 753 c 2,17,-1
 488 753 l 2,18,19
 463 753 463 753 456 766 c 2,20,-1
 416 840 l 1,21,-1
 347 766 l 1,22,23
 331 753 331 753 312 753 c 2,24,-1
 310 753 l 2,25,26
 289 753 289 753 289 765 c 0,27,28
 289 774 289 774 296 785 c 2,29,-1
 362 873 l 2,30,31
 378 895 378 895 410 895 c 2,10,-1
402 706 m 0,32,33
 537 706 537 706 607.5 633.5 c 128,-1,34
 678 561 678 561 678 420 c 0,35,36
 678 215 678 215 584 104.5 c 128,-1,37
 490 -6 490 -6 327 -6 c 0,38,39
 193 -6 193 -6 123 67 c 128,-1,40
 53 140 53 140 53 282 c 0,41,42
 53 418.117647059 53 418.117647059 100.5 521.5 c 0,43,44
 126 577 126 577 165 617.5 c 128,-1,45
 204 658 204 658 265 682 c 128,-1,46
 326 706 326 706 402 706 c 0,32,33
394 630 m 0,47,48
 278 630 278 630 211 543 c 128,-1,49
 144 456 144 456 144 291 c 0,50,51
 144 182 144 182 192.5 126 c 128,-1,52
 241 70 241 70 335 70 c 0,53,54
 450 70 450 70 518 158.5 c 128,-1,55
 586 247 586 247 586 410 c 0,56,57
 586 519 586 519 537 574.5 c 128,-1,58
 488 630 488 630 394 630 c 0,47,48
EndSplineSet
Position2: "'cpsp' Capital Spacing lookup 0 subtable" dx=5 dy=0 dh=10 dv=0
EndChar

StartChar: Ocircumflexdotbelow
Encoding: 7896 7896 110
Width: 731
GlyphClass: 2
Flags: MW
HStem: -175 95<303 321> -6 76<272.5 410 272.5 434> 630 76<318 456.5>
VStem: 53 91<218.5 387> 268 89<-160 -95> 586 92<299.5 483>
AnchorPoint: "Anchor-1" 321 -82 basechar 0
AnchorPoint: "Anchor-0" 306 -203 basechar 0
LayerCount: 2
Fore
SplineSet
402 895 m 2,0,-1
 427 895 l 2,1,2
 459 895 459 895 471 873 c 2,3,-1
 518 785 l 2,4,5
 523 777 523 777 522 765 c 128,-1,6
 521 753 521 753 497 753 c 2,7,-1
 495 753 l 2,8,9
 476 753 476 753 463 766 c 1,10,-1
 408 840 l 1,11,-1
 339 766 l 1,12,13
 323 753 323 753 304 753 c 2,14,-1
 302 753 l 2,15,16
 281 753 281 753 281 765 c 0,17,18
 281 774 281 774 288 785 c 2,19,-1
 354 873 l 2,20,21
 370 895 370 895 402 895 c 2,0,-1
402 706 m 0,22,23
 537 706 537 706 607.5 633.5 c 128,-1,24
 678 561 678 561 678 420 c 0,25,26
 678 215 678 215 584 104.5 c 128,-1,27
 490 -6 490 -6 327 -6 c 0,28,29
 193 -6 193 -6 123 67 c 128,-1,30
 53 140 53 140 53 282 c 0,31,32
 53 418.117647059 53 418.117647059 100.5 521.5 c 0,33,34
 126 577 126 577 165 617.5 c 128,-1,35
 204 658 204 658 265 682 c 128,-1,36
 326 706 326 706 402 706 c 0,22,23
394 630 m 0,37,38
 278 630 278 630 211 543 c 128,-1,39
 144 456 144 456 144 291 c 0,40,41
 144 182 144 182 192.5 126 c 128,-1,42
 241 70 241 70 335 70 c 0,43,44
 450 70 450 70 518 158.5 c 128,-1,45
 586 247 586 247 586 410 c 0,46,47
 586 519 586 519 537 574.5 c 128,-1,48
 488 630 488 630 394 630 c 0,37,38
273 -102 m 2,49,50
 276 -80 276 -80 316.5 -80 c 128,-1,51
 357 -80 357 -80 357 -102 c 1,52,-1
 352 -153 l 2,53,54
 349 -175 349 -175 308.5 -175 c 128,-1,55
 268 -175 268 -175 268 -153 c 1,56,-1
 273 -102 l 2,49,50
EndSplineSet
Position2: "'cpsp' Capital Spacing lookup 0 subtable" dx=5 dy=0 dh=10 dv=0
EndChar

StartChar: Ocircumflexgrave
Encoding: 7890 7890 111
Width: 731
GlyphClass: 2
Flags: MW
HStem: -6 76<272.5 410 272.5 434> 630 76<318 456.5> 753 142<303 435 310 435 410 488 410 490>
VStem: 53 91<218.5 387> 586 92<299.5 483>
AnchorPoint: "Anchor-1" 549 829 basechar 0
AnchorPoint: "Anchor-0" 327 0 basechar 0
LayerCount: 2
Fore
SplineSet
470 952 m 0,0,1
 470 964 470 964 507.5 964 c 128,-1,2
 545 964 545 964 555 938 c 0,3,4
 592 848 592 848 592 833 c 0,5,6
 592 824 592 824 568 824 c 128,-1,7
 544 824 544 824 533 842 c 0,8,9
 471 938 471 938 470 952 c 0,0,1
410 895 m 2,10,-1
 435 895 l 2,11,12
 459 895 459 895 469 873 c 2,13,-1
 511 785 l 1,14,15
 516 777 516 777 515 765 c 128,-1,16
 514 753 514 753 490 753 c 2,17,-1
 488 753 l 2,18,19
 463 753 463 753 456 766 c 2,20,-1
 416 840 l 1,21,-1
 347 766 l 1,22,23
 331 753 331 753 312 753 c 2,24,-1
 310 753 l 2,25,26
 289 753 289 753 289 765 c 0,27,28
 289 774 289 774 296 785 c 2,29,-1
 362 873 l 2,30,31
 378 895 378 895 410 895 c 2,10,-1
402 706 m 0,32,33
 537 706 537 706 607.5 633.5 c 128,-1,34
 678 561 678 561 678 420 c 0,35,36
 678 215 678 215 584 104.5 c 128,-1,37
 490 -6 490 -6 327 -6 c 0,38,39
 193 -6 193 -6 123 67 c 128,-1,40
 53 140 53 140 53 282 c 0,41,42
 53 418.117647059 53 418.117647059 100.5 521.5 c 0,43,44
 126 577 126 577 165 617.5 c 128,-1,45
 204 658 204 658 265 682 c 128,-1,46
 326 706 326 706 402 706 c 0,32,33
394 630 m 0,47,48
 278 630 278 630 211 543 c 128,-1,49
 144 456 144 456 144 291 c 0,50,51
 144 182 144 182 192.5 126 c 128,-1,52
 241 70 241 70 335 70 c 0,53,54
 450 70 450 70 518 158.5 c 128,-1,55
 586 247 586 247 586 410 c 0,56,57
 586 519 586 519 537 574.5 c 128,-1,58
 488 630 488 630 394 630 c 0,47,48
EndSplineSet
Position2: "'cpsp' Capital Spacing lookup 0 subtable" dx=5 dy=0 dh=10 dv=0
EndChar

StartChar: Ocircumflexhookabove
Encoding: 7892 7892 112
Width: 731
GlyphClass: 2
Flags: MW
HStem: -6 76<272.5 410 272.5 434> 630 76<318 456.5> 753 142<303 435 310 435 410 488 410 490> 931 48<537.5 552>
VStem: 53 91<218.5 387> 576 58<897 913> 586 92<299.5 483>
AnchorPoint: "Anchor-1" 549 829 basechar 0
AnchorPoint: "Anchor-0" 327 0 basechar 0
LayerCount: 2
Fore
SplineSet
576 904 m 0,0,1
 576 931 576 931 542 931 c 0,2,3
 521 931 521 931 508 924.5 c 128,-1,4
 495 918 495 918 494 918 c 0,5,6
 488 918 488 918 481 930.5 c 128,-1,7
 474 943 474 943 474 952 c 128,-1,8
 474 961 474 961 501 970 c 128,-1,9
 528 979 528 979 557 979 c 128,-1,10
 586 979 586 979 610 962.5 c 128,-1,11
 634 946 634 946 634 913 c 128,-1,12
 634 880 634 880 592 847 c 0,13,14
 564 825 564 825 548.5 825 c 128,-1,15
 533 825 533 825 523.5 831.5 c 128,-1,16
 514 838 514 838 514 845.5 c 128,-1,17
 514 853 514 853 545 869 c 128,-1,18
 576 885 576 885 576 904 c 0,0,1
410 895 m 2,19,-1
 435 895 l 2,20,21
 459 895 459 895 469 873 c 2,22,-1
 511 785 l 1,23,24
 516 777 516 777 515 765 c 128,-1,25
 514 753 514 753 490 753 c 2,26,-1
 488 753 l 2,27,28
 463 753 463 753 456 766 c 2,29,-1
 416 840 l 1,30,-1
 347 766 l 1,31,32
 331 753 331 753 312 753 c 2,33,-1
 310 753 l 2,34,35
 289 753 289 753 289 765 c 0,36,37
 289 774 289 774 296 785 c 2,38,-1
 362 873 l 2,39,40
 378 895 378 895 410 895 c 2,19,-1
402 706 m 0,41,42
 537 706 537 706 607.5 633.5 c 128,-1,43
 678 561 678 561 678 420 c 0,44,45
 678 215 678 215 584 104.5 c 128,-1,46
 490 -6 490 -6 327 -6 c 0,47,48
 193 -6 193 -6 123 67 c 128,-1,49
 53 140 53 140 53 282 c 0,50,51
 53 418.117647059 53 418.117647059 100.5 521.5 c 0,52,53
 126 577 126 577 165 617.5 c 128,-1,54
 204 658 204 658 265 682 c 128,-1,55
 326 706 326 706 402 706 c 0,41,42
394 630 m 0,56,57
 278 630 278 630 211 543 c 128,-1,58
 144 456 144 456 144 291 c 0,59,60
 144 182 144 182 192.5 126 c 128,-1,61
 241 70 241 70 335 70 c 0,62,63
 450 70 450 70 518 158.5 c 128,-1,64
 586 247 586 247 586 410 c 0,65,66
 586 519 586 519 537 574.5 c 128,-1,67
 488 630 488 630 394 630 c 0,56,57
EndSplineSet
Position2: "'cpsp' Capital Spacing lookup 0 subtable" dx=5 dy=0 dh=10 dv=0
EndChar

StartChar: Ocircumflextilde
Encoding: 7894 7894 113
Width: 731
GlyphClass: 2
Flags: MW
HStem: -6 76<272.5 410 272.5 434> 630 76<318 456.5> 754 117<297 430 304 430 405 497 405 499> 903 64<481 494.5> 934 64<359.5 373>
VStem: 53 91<218.5 387> 586 92<299.5 483>
AnchorPoint: "Anchor-1" 426 877 basechar 0
AnchorPoint: "Anchor-0" 327 0 basechar 0
LayerCount: 2
Fore
SplineSet
539 989 m 0,0,1
 558 1003 558 1003 574.5 984.5 c 128,-1,2
 591 966 591 966 572 947 c 0,3,4
 524 903 524 903 481.5 903 c 128,-1,5
 439 903 439 903 408 918.5 c 128,-1,6
 377 934 377 934 364.5 934 c 128,-1,7
 352 934 352 934 323 917.5 c 128,-1,8
 294 901 294 901 279 922.5 c 128,-1,9
 264 944 264 944 281 957 c 0,10,11
 332 998 332 998 378 998 c 0,12,13
 408 998 408 998 441.5 982.5 c 128,-1,14
 475 967 475 967 492.5 967 c 128,-1,15
 510 967 510 967 539 989 c 0,0,1
405 871 m 2,16,-1
 430 871 l 2,17,18
 454 871 454 871 474 849 c 1,19,-1
 520 786 l 2,20,21
 525 778 525 778 524 766 c 128,-1,22
 523 754 523 754 499 754 c 2,23,-1
 497 754 l 2,24,25
 482 754 482 754 465 767 c 1,26,-1
 411 816 l 1,27,-1
 341 767 l 1,28,29
 319 754 319 754 306 754 c 2,30,-1
 304 754 l 2,31,32
 283 754 283 754 283 766 c 0,33,34
 283 775 283 775 290 786 c 1,35,-1
 357 849 l 1,36,37
 384 871 384 871 405 871 c 2,16,-1
402 706 m 0,38,39
 537 706 537 706 607.5 633.5 c 128,-1,40
 678 561 678 561 678 420 c 0,41,42
 678 215 678 215 584 104.5 c 128,-1,43
 490 -6 490 -6 327 -6 c 0,44,45
 193 -6 193 -6 123 67 c 128,-1,46
 53 140 53 140 53 282 c 0,47,48
 53 418.117647059 53 418.117647059 100.5 521.5 c 0,49,50
 126 577 126 577 165 617.5 c 128,-1,51
 204 658 204 658 265 682 c 128,-1,52
 326 706 326 706 402 706 c 0,38,39
394 630 m 0,53,54
 278 630 278 630 211 543 c 128,-1,55
 144 456 144 456 144 291 c 0,56,57
 144 182 144 182 192.5 126 c 128,-1,58
 241 70 241 70 335 70 c 0,59,60
 450 70 450 70 518 158.5 c 128,-1,61
 586 247 586 247 586 410 c 0,62,63
 586 519 586 519 537 574.5 c 128,-1,64
 488 630 488 630 394 630 c 0,53,54
EndSplineSet
Position2: "'cpsp' Capital Spacing lookup 0 subtable" dx=5 dy=0 dh=10 dv=0
EndChar

StartChar: Odieresis
Encoding: 214 214 114
Width: 731
GlyphClass: 2
Flags: MW
HStem: -6 76<272.5 410 272.5 434> 630 76<318 456.5> 784 95<331 349 475 493>
VStem: 53 91<218.5 387> 296 89<799 864> 440 89<799 864> 586 92<299.5 483>
AnchorPoint: "Anchor-1" 422 877 basechar 0
AnchorPoint: "Anchor-0" 327 0 basechar 0
LayerCount: 2
Fore
SplineSet
301 857 m 2,0,1
 304 879 304 879 344.5 879 c 128,-1,2
 385 879 385 879 385 857 c 1,3,-1
 380 806 l 2,4,5
 377 784 377 784 336.5 784 c 128,-1,6
 296 784 296 784 296 806 c 1,7,-1
 301 857 l 2,0,1
445 857 m 2,8,9
 447 879 447 879 488 879 c 128,-1,10
 529 879 529 879 529 857 c 1,11,-1
 524 806 l 2,12,13
 521 784 521 784 480.5 784 c 128,-1,14
 440 784 440 784 440 806 c 1,15,-1
 445 857 l 2,8,9
402 706 m 0,16,17
 537 706 537 706 607.5 633.5 c 128,-1,18
 678 561 678 561 678 420 c 0,19,20
 678 215 678 215 584 104.5 c 128,-1,21
 490 -6 490 -6 327 -6 c 0,22,23
 193 -6 193 -6 123 67 c 128,-1,24
 53 140 53 140 53 282 c 0,25,26
 53 418.117647059 53 418.117647059 100.5 521.5 c 0,27,28
 126 577 126 577 165 617.5 c 128,-1,29
 204 658 204 658 265 682 c 128,-1,30
 326 706 326 706 402 706 c 0,16,17
394 630 m 0,31,32
 278 630 278 630 211 543 c 128,-1,33
 144 456 144 456 144 291 c 0,34,35
 144 182 144 182 192.5 126 c 128,-1,36
 241 70 241 70 335 70 c 0,37,38
 450 70 450 70 518 158.5 c 128,-1,39
 586 247 586 247 586 410 c 0,40,41
 586 519 586 519 537 574.5 c 128,-1,42
 488 630 488 630 394 630 c 0,31,32
EndSplineSet
Position2: "'cpsp' Capital Spacing lookup 0 subtable" dx=5 dy=0 dh=10 dv=0
EndChar

StartChar: Odotbelow
Encoding: 7884 7884 115
Width: 731
GlyphClass: 2
Flags: MW
HStem: -175 95<303 321> -6 76<272.5 410 272.5 434> 630 76<318 456.5>
VStem: 53 91<218.5 387> 268 89<-160 -95> 586 92<299.5 483>
AnchorPoint: "Anchor-1" 321 -82 basechar 0
AnchorPoint: "Anchor-0" 306 -203 basechar 0
LayerCount: 2
Fore
SplineSet
402 706 m 0,0,1
 537 706 537 706 607.5 633.5 c 128,-1,2
 678 561 678 561 678 420 c 0,3,4
 678 215 678 215 584 104.5 c 128,-1,5
 490 -6 490 -6 327 -6 c 0,6,7
 193 -6 193 -6 123 67 c 128,-1,8
 53 140 53 140 53 282 c 0,9,10
 53 418.117647059 53 418.117647059 100.5 521.5 c 0,11,12
 126 577 126 577 165 617.5 c 128,-1,13
 204 658 204 658 265 682 c 128,-1,14
 326 706 326 706 402 706 c 0,0,1
394 630 m 0,15,16
 278 630 278 630 211 543 c 128,-1,17
 144 456 144 456 144 291 c 0,18,19
 144 182 144 182 192.5 126 c 128,-1,20
 241 70 241 70 335 70 c 0,21,22
 450 70 450 70 518 158.5 c 128,-1,23
 586 247 586 247 586 410 c 0,24,25
 586 519 586 519 537 574.5 c 128,-1,26
 488 630 488 630 394 630 c 0,15,16
273 -102 m 2,27,28
 276 -80 276 -80 316.5 -80 c 128,-1,29
 357 -80 357 -80 357 -102 c 1,30,-1
 352 -153 l 2,31,32
 349 -175 349 -175 308.5 -175 c 128,-1,33
 268 -175 268 -175 268 -153 c 1,34,-1
 273 -102 l 2,27,28
EndSplineSet
Position2: "'cpsp' Capital Spacing lookup 0 subtable" dx=5 dy=0 dh=10 dv=0
EndChar

StartChar: Ograve
Encoding: 210 210 116
Width: 731
GlyphClass: 2
Flags: MW
HStem: -6 76<272.5 410 272.5 434> 630 76<318 456.5>
VStem: 53 91<218.5 387> 586 92<299.5 483>
AnchorPoint: "Anchor-1" 423 877 basechar 0
AnchorPoint: "Anchor-0" 327 0 basechar 0
LayerCount: 2
Fore
SplineSet
331 909 m 128,-1,1
 378 909 378 909 393 883 c 0,2,3
 451 784 451 784 451 771 c 0,4,5
 451 762 451 762 421.5 762 c 128,-1,6
 392 762 392 762 377 780 c 0,7,8
 289.202524971 880.192412681 289.202524971 880.192412681 286.101262485 886.478755556 c 128,-1,9
 283 892.765098432 283 892.765098432 283 897 c 0,10,0
 284 909 284 909 331 909 c 128,-1,1
402 706 m 0,11,12
 537 706 537 706 607.5 633.5 c 128,-1,13
 678 561 678 561 678 420 c 0,14,15
 678 215 678 215 584 104.5 c 128,-1,16
 490 -6 490 -6 327 -6 c 0,17,18
 193 -6 193 -6 123 67 c 128,-1,19
 53 140 53 140 53 282 c 0,20,21
 53 418.117647059 53 418.117647059 100.5 521.5 c 0,22,23
 126 577 126 577 165 617.5 c 128,-1,24
 204 658 204 658 265 682 c 128,-1,25
 326 706 326 706 402 706 c 0,11,12
394 630 m 0,26,27
 278 630 278 630 211 543 c 128,-1,28
 144 456 144 456 144 291 c 0,29,30
 144 182 144 182 192.5 126 c 128,-1,31
 241 70 241 70 335 70 c 0,32,33
 450 70 450 70 518 158.5 c 128,-1,34
 586 247 586 247 586 410 c 0,35,36
 586 519 586 519 537 574.5 c 128,-1,37
 488 630 488 630 394 630 c 0,26,27
EndSplineSet
Position2: "'cpsp' Capital Spacing lookup 0 subtable" dx=5 dy=0 dh=10 dv=0
EndChar

StartChar: Ohookabove
Encoding: 7886 7886 117
Width: 731
GlyphClass: 2
Flags: MW
HStem: -6 76<272.5 410 272.5 434> 630 76<318 456.5> 876 51<407.5 422>
VStem: 53 91<218.5 387> 446 66<825 859> 586 92<299.5 483>
AnchorPoint: "Anchor-1" 421 877 basechar 0
AnchorPoint: "Anchor-0" 327 0 basechar 0
LayerCount: 2
Fore
SplineSet
446 851 m 0,0,1
 446 876 446 876 412 876 c 0,2,3
 387.285714286 876 387.285714286 876 376.142857143 869.5 c 128,-1,4
 365 863 365 863 364 863 c 0,5,6
 358 863 358 863 351 875.5 c 128,-1,7
 344 888 344 888 344 897 c 128,-1,8
 344 906 344 906 371.5 916.5 c 128,-1,9
 399 927 399 927 428 927 c 128,-1,10
 457 927 457 927 484.5 910 c 128,-1,11
 512 893 512 893 512 863 c 128,-1,12
 512 833 512 833 498 809.5 c 128,-1,13
 484 786 484 786 466 772 c 0,14,15
 424.857142857 740 424.857142857 740 410.928571429 740 c 128,-1,16
 397 740 397 740 385.5 745 c 128,-1,17
 374 750 374 750 374 759 c 128,-1,18
 374 768 374 768 392 780.5 c 0,19,20
 446 818 446 818 446 851 c 0,0,1
402 706 m 0,21,22
 537 706 537 706 607.5 633.5 c 128,-1,23
 678 561 678 561 678 420 c 0,24,25
 678 215 678 215 584 104.5 c 128,-1,26
 490 -6 490 -6 327 -6 c 0,27,28
 193 -6 193 -6 123 67 c 128,-1,29
 53 140 53 140 53 282 c 0,30,31
 53 418.117647059 53 418.117647059 100.5 521.5 c 0,32,33
 126 577 126 577 165 617.5 c 128,-1,34
 204 658 204 658 265 682 c 128,-1,35
 326 706 326 706 402 706 c 0,21,22
394 630 m 0,36,37
 278 630 278 630 211 543 c 128,-1,38
 144 456 144 456 144 291 c 0,39,40
 144 182 144 182 192.5 126 c 128,-1,41
 241 70 241 70 335 70 c 0,42,43
 450 70 450 70 518 158.5 c 128,-1,44
 586 247 586 247 586 410 c 0,45,46
 586 519 586 519 537 574.5 c 128,-1,47
 488 630 488 630 394 630 c 0,36,37
EndSplineSet
Position2: "'cpsp' Capital Spacing lookup 0 subtable" dx=5 dy=0 dh=10 dv=0
EndChar

StartChar: Ohorn
Encoding: 416 416 118
Width: 731
GlyphClass: 2
Flags: MW
HStem: -6 76<272.5 410 272.5 434> 630 52 630 76<318 428 270.5 456.5>
VStem: 53 91<218.5 387> 586 92<299.5 475 281 483> 597 63<726 733.5>
AnchorPoint: "Anchor-1" 415 702 basechar 0
AnchorPoint: "Anchor-0" 327 0 basechar 0
LayerCount: 2
Fore
SplineSet
584 655 m 1,0,1
 678 584 678 584 678 420 c 0,2,3
 678 215 678 215 584 104.5 c 128,-1,4
 490 -6 490 -6 327 -6 c 0,5,6
 193 -6 193 -6 123 67 c 128,-1,7
 53 140 53 140 53 282 c 0,8,9
 53 418.117647059 53 418.117647059 100.5 521.5 c 0,10,11
 126 577 126 577 165 617.5 c 128,-1,12
 204 658 204 658 265 682 c 128,-1,13
 326 706 326 706 403 706 c 128,-1,14
 480 706 480 706 536 682 c 1,15,-1
 538 682 l 2,16,17
 597 682 597 682 597 722 c 0,18,19
 597 735 597 735 586.5 753.5 c 128,-1,20
 576 772 576 772 576 779.5 c 128,-1,21
 576 787 576 787 587 793 c 2,22,-1
 613 809 l 2,23,24
 618 813 618 813 625 813 c 0,25,26
 641 813 641 813 650.5 791.5 c 128,-1,27
 660 770 660 770 660 742.5 c 128,-1,28
 660 715 660 715 640 690 c 128,-1,29
 620 665 620 665 584 655 c 1,0,1
335 70 m 0,30,31
 450 70 450 70 518 158.5 c 128,-1,32
 586 247 586 247 586 410 c 0,33,34
 586 519 586 519 537 574.5 c 128,-1,35
 488 630 488 630 394 630 c 0,36,37
 278 630 278 630 211 543 c 128,-1,38
 144 456 144 456 144 291 c 0,39,40
 144 182 144 182 192.5 126 c 128,-1,41
 241 70 241 70 335 70 c 0,30,31
EndSplineSet
Position2: "'cpsp' Capital Spacing lookup 0 subtable" dx=5 dy=0 dh=10 dv=0
EndChar

StartChar: Ohornacute
Encoding: 7898 7898 119
Width: 731
GlyphClass: 2
Flags: MW
HStem: -6 76<272.5 410 272.5 434> 630 52 630 76<318 428 270.5 456.5>
VStem: 53 91<218.5 387> 586 92<299.5 475 281 483> 597 63<726 733.5>
AnchorPoint: "Anchor-1" 415 702 basechar 0
AnchorPoint: "Anchor-0" 327 0 basechar 0
LayerCount: 2
Fore
SplineSet
511 911 m 128,-1,1
 558 911 558 911 558 899.5 c 128,-1,2
 558 888 558 888 451 781 c 0,3,4
 434 764 434 764 405.5 764 c 128,-1,5
 377 764 377 764 377 773 c 0,6,7
 377 785 377 785 446 885 c 0,8,0
 464 911 464 911 511 911 c 128,-1,1
584 655 m 1,9,10
 678 584 678 584 678 420 c 0,11,12
 678 215 678 215 584 104.5 c 128,-1,13
 490 -6 490 -6 327 -6 c 0,14,15
 193 -6 193 -6 123 67 c 128,-1,16
 53 140 53 140 53 282 c 0,17,18
 53 418.117647059 53 418.117647059 100.5 521.5 c 0,19,20
 126 577 126 577 165 617.5 c 128,-1,21
 204 658 204 658 265 682 c 128,-1,22
 326 706 326 706 403 706 c 128,-1,23
 480 706 480 706 536 682 c 1,24,-1
 538 682 l 2,25,26
 597 682 597 682 597 722 c 0,27,28
 597 735 597 735 586.5 753.5 c 128,-1,29
 576 772 576 772 576 779.5 c 128,-1,30
 576 787 576 787 587 793 c 2,31,-1
 613 809 l 2,32,33
 618 813 618 813 625 813 c 0,34,35
 641 813 641 813 650.5 791.5 c 128,-1,36
 660 770 660 770 660 742.5 c 128,-1,37
 660 715 660 715 640 690 c 128,-1,38
 620 665 620 665 584 655 c 1,9,10
335 70 m 0,39,40
 450 70 450 70 518 158.5 c 128,-1,41
 586 247 586 247 586 410 c 0,42,43
 586 519 586 519 537 574.5 c 128,-1,44
 488 630 488 630 394 630 c 0,45,46
 278 630 278 630 211 543 c 128,-1,47
 144 456 144 456 144 291 c 0,48,49
 144 182 144 182 192.5 126 c 128,-1,50
 241 70 241 70 335 70 c 0,39,40
EndSplineSet
Position2: "'cpsp' Capital Spacing lookup 0 subtable" dx=5 dy=0 dh=10 dv=0
EndChar

StartChar: Ohorndotbelow
Encoding: 7906 7906 120
Width: 731
GlyphClass: 2
Flags: MW
HStem: -175 95<303 321> -6 76<272.5 410 272.5 434> 630 52 630 76<318 428 270.5 456.5>
VStem: 53 91<218.5 387> 268 89<-160 -95> 586 92<299.5 475 281 483> 597 63<726 733.5>
AnchorPoint: "Anchor-1" 415 702 basechar 0
AnchorPoint: "Anchor-0" 306 -203 basechar 0
LayerCount: 2
Fore
SplineSet
584 655 m 1,0,1
 678 584 678 584 678 420 c 0,2,3
 678 215 678 215 584 104.5 c 128,-1,4
 490 -6 490 -6 327 -6 c 0,5,6
 193 -6 193 -6 123 67 c 128,-1,7
 53 140 53 140 53 282 c 0,8,9
 53 418.117647059 53 418.117647059 100.5 521.5 c 0,10,11
 126 577 126 577 165 617.5 c 128,-1,12
 204 658 204 658 265 682 c 128,-1,13
 326 706 326 706 403 706 c 128,-1,14
 480 706 480 706 536 682 c 1,15,-1
 538 682 l 2,16,17
 597 682 597 682 597 722 c 0,18,19
 597 735 597 735 586.5 753.5 c 128,-1,20
 576 772 576 772 576 779.5 c 128,-1,21
 576 787 576 787 587 793 c 2,22,-1
 613 809 l 2,23,24
 618 813 618 813 625 813 c 0,25,26
 641 813 641 813 650.5 791.5 c 128,-1,27
 660 770 660 770 660 742.5 c 128,-1,28
 660 715 660 715 640 690 c 128,-1,29
 620 665 620 665 584 655 c 1,0,1
335 70 m 0,30,31
 450 70 450 70 518 158.5 c 128,-1,32
 586 247 586 247 586 410 c 0,33,34
 586 519 586 519 537 574.5 c 128,-1,35
 488 630 488 630 394 630 c 0,36,37
 278 630 278 630 211 543 c 128,-1,38
 144 456 144 456 144 291 c 0,39,40
 144 182 144 182 192.5 126 c 128,-1,41
 241 70 241 70 335 70 c 0,30,31
273 -102 m 2,42,43
 276 -80 276 -80 316.5 -80 c 128,-1,44
 357 -80 357 -80 357 -102 c 1,45,-1
 352 -153 l 2,46,47
 349 -175 349 -175 308.5 -175 c 128,-1,48
 268 -175 268 -175 268 -153 c 1,49,-1
 273 -102 l 2,42,43
EndSplineSet
Position2: "'cpsp' Capital Spacing lookup 0 subtable" dx=5 dy=0 dh=10 dv=0
EndChar

StartChar: Ohorngrave
Encoding: 7900 7900 121
Width: 731
GlyphClass: 2
Flags: MW
HStem: -6 76<272.5 410 272.5 434> 630 52 630 76<318 428 270.5 456.5>
VStem: 53 91<218.5 387> 586 92<299.5 475 281 483> 597 63<726 733.5>
AnchorPoint: "Anchor-1" 415 702 basechar 0
AnchorPoint: "Anchor-0" 327 0 basechar 0
LayerCount: 2
Fore
SplineSet
464 773 m 0,0,1
 464 764 464 764 434.5 764 c 128,-1,2
 405 764 405 764 390 782 c 0,3,4
 302.202524971 882.192412681 302.202524971 882.192412681 299.101262485 888.478755556 c 128,-1,5
 296 894.765098432 296 894.765098432 296 899 c 0,6,7
 297 911 297 911 344 911 c 128,-1,8
 391 911 391 911 406 885 c 0,9,10
 464 786 464 786 464 773 c 0,0,1
584 655 m 1,11,12
 678 584 678 584 678 420 c 0,13,14
 678 215 678 215 584 104.5 c 128,-1,15
 490 -6 490 -6 327 -6 c 0,16,17
 193 -6 193 -6 123 67 c 128,-1,18
 53 140 53 140 53 282 c 0,19,20
 53 418.117647059 53 418.117647059 100.5 521.5 c 0,21,22
 126 577 126 577 165 617.5 c 128,-1,23
 204 658 204 658 265 682 c 128,-1,24
 326 706 326 706 403 706 c 128,-1,25
 480 706 480 706 536 682 c 1,26,-1
 538 682 l 2,27,28
 597 682 597 682 597 722 c 0,29,30
 597 735 597 735 586.5 753.5 c 128,-1,31
 576 772 576 772 576 779.5 c 128,-1,32
 576 787 576 787 587 793 c 2,33,-1
 613 809 l 2,34,35
 618 813 618 813 625 813 c 0,36,37
 641 813 641 813 650.5 791.5 c 128,-1,38
 660 770 660 770 660 742.5 c 128,-1,39
 660 715 660 715 640 690 c 128,-1,40
 620 665 620 665 584 655 c 1,11,12
335 70 m 0,41,42
 450 70 450 70 518 158.5 c 128,-1,43
 586 247 586 247 586 410 c 0,44,45
 586 519 586 519 537 574.5 c 128,-1,46
 488 630 488 630 394 630 c 0,47,48
 278 630 278 630 211 543 c 128,-1,49
 144 456 144 456 144 291 c 0,50,51
 144 182 144 182 192.5 126 c 128,-1,52
 241 70 241 70 335 70 c 0,41,42
EndSplineSet
Position2: "'cpsp' Capital Spacing lookup 0 subtable" dx=5 dy=0 dh=10 dv=0
EndChar

StartChar: Ohornhookabove
Encoding: 7902 7902 122
Width: 731
GlyphClass: 2
Flags: MW
HStem: -6 76<272.5 410 272.5 434> 630 52 630 76<318 428 270.5 456.5> 878 51<420.5 435>
VStem: 53 91<218.5 387> 459 66<827 861> 586 92<299.5 475 281 483> 597 63<726 733.5>
AnchorPoint: "Anchor-1" 415 702 basechar 0
AnchorPoint: "Anchor-0" 327 0 basechar 0
LayerCount: 2
Fore
SplineSet
377 865 m 0,0,1
 371 865 371 865 364 877.5 c 128,-1,2
 357 890 357 890 357 899 c 128,-1,3
 357 908 357 908 384.5 918.5 c 128,-1,4
 412 929 412 929 441 929 c 128,-1,5
 470 929 470 929 497.5 912 c 128,-1,6
 525 895 525 895 525 865 c 128,-1,7
 525 835 525 835 511 811.5 c 128,-1,8
 497 788 497 788 479 774 c 0,9,10
 437.857142857 742 437.857142857 742 423.928571429 742 c 128,-1,11
 410 742 410 742 398.5 747 c 128,-1,12
 387 752 387 752 387 761 c 128,-1,13
 387 770 387 770 405 782.5 c 0,14,15
 459 820 459 820 459 853 c 0,16,17
 459 878 459 878 425 878 c 0,18,19
 400.285714286 878 400.285714286 878 389.142857143 871.5 c 128,-1,20
 378 865 378 865 377 865 c 0,0,1
584 655 m 1,21,22
 678 584 678 584 678 420 c 0,23,24
 678 215 678 215 584 104.5 c 128,-1,25
 490 -6 490 -6 327 -6 c 0,26,27
 193 -6 193 -6 123 67 c 128,-1,28
 53 140 53 140 53 282 c 0,29,30
 53 418.117647059 53 418.117647059 100.5 521.5 c 0,31,32
 126 577 126 577 165 617.5 c 128,-1,33
 204 658 204 658 265 682 c 128,-1,34
 326 706 326 706 403 706 c 128,-1,35
 480 706 480 706 536 682 c 1,36,-1
 538 682 l 2,37,38
 597 682 597 682 597 722 c 0,39,40
 597 735 597 735 586.5 753.5 c 128,-1,41
 576 772 576 772 576 779.5 c 128,-1,42
 576 787 576 787 587 793 c 2,43,-1
 613 809 l 2,44,45
 618 813 618 813 625 813 c 0,46,47
 641 813 641 813 650.5 791.5 c 128,-1,48
 660 770 660 770 660 742.5 c 128,-1,49
 660 715 660 715 640 690 c 128,-1,50
 620 665 620 665 584 655 c 1,21,22
335 70 m 0,51,52
 450 70 450 70 518 158.5 c 128,-1,53
 586 247 586 247 586 410 c 0,54,55
 586 519 586 519 537 574.5 c 128,-1,56
 488 630 488 630 394 630 c 0,57,58
 278 630 278 630 211 543 c 128,-1,59
 144 456 144 456 144 291 c 0,60,61
 144 182 144 182 192.5 126 c 128,-1,62
 241 70 241 70 335 70 c 0,51,52
EndSplineSet
Position2: "'cpsp' Capital Spacing lookup 0 subtable" dx=5 dy=0 dh=10 dv=0
EndChar

StartChar: Ohorntilde
Encoding: 7904 7904 123
Width: 731
GlyphClass: 2
Flags: MW
HStem: -6 76<272.5 410 272.5 434> 630 52 630 76<318 428 270.5 456.5> 764 64<485 498> 795 64<364.5 378>
VStem: 53 91<218.5 387> 586 92<299.5 475 281 483> 597 63<726 733.5>
AnchorPoint: "Anchor-1" 415 702 basechar 0
AnchorPoint: "Anchor-0" 327 0 basechar 0
LayerCount: 2
Fore
SplineSet
575 808 m 0,0,1
 527 764 527 764 484.5 764 c 128,-1,2
 442 764 442 764 412 779.5 c 128,-1,3
 382 795 382 795 369.5 795 c 128,-1,4
 357 795 357 795 328.5 778.5 c 128,-1,5
 300 762 300 762 285 783.5 c 128,-1,6
 270 805 270 805 287 818 c 0,7,8
 338 859 338 859 383 859 c 0,9,10
 412 859 412 859 445.5 843.5 c 128,-1,11
 479 828 479 828 496 828 c 128,-1,12
 513 828 513 828 542 850 c 0,13,14
 561 864 561 864 577.5 845.5 c 128,-1,15
 594 827 594 827 575 808 c 0,0,1
584 655 m 1,16,17
 678 584 678 584 678 420 c 0,18,19
 678 215 678 215 584 104.5 c 128,-1,20
 490 -6 490 -6 327 -6 c 0,21,22
 193 -6 193 -6 123 67 c 128,-1,23
 53 140 53 140 53 282 c 0,24,25
 53 418.117647059 53 418.117647059 100.5 521.5 c 0,26,27
 126 577 126 577 165 617.5 c 128,-1,28
 204 658 204 658 265 682 c 128,-1,29
 326 706 326 706 403 706 c 128,-1,30
 480 706 480 706 536 682 c 1,31,-1
 538 682 l 2,32,33
 597 682 597 682 597 722 c 0,34,35
 597 735 597 735 586.5 753.5 c 128,-1,36
 576 772 576 772 576 779.5 c 128,-1,37
 576 787 576 787 587 793 c 2,38,-1
 613 809 l 2,39,40
 618 813 618 813 625 813 c 0,41,42
 641 813 641 813 650.5 791.5 c 128,-1,43
 660 770 660 770 660 742.5 c 128,-1,44
 660 715 660 715 640 690 c 128,-1,45
 620 665 620 665 584 655 c 1,16,17
335 70 m 0,46,47
 450 70 450 70 518 158.5 c 128,-1,48
 586 247 586 247 586 410 c 0,49,50
 586 519 586 519 537 574.5 c 128,-1,51
 488 630 488 630 394 630 c 0,52,53
 278 630 278 630 211 543 c 128,-1,54
 144 456 144 456 144 291 c 0,55,56
 144 182 144 182 192.5 126 c 128,-1,57
 241 70 241 70 335 70 c 0,46,47
EndSplineSet
Position2: "'cpsp' Capital Spacing lookup 0 subtable" dx=5 dy=0 dh=10 dv=0
EndChar

StartChar: Ohungarumlaut
Encoding: 336 336 124
Width: 731
GlyphClass: 2
Flags: MW
HStem: -6 76<272.5 410 272.5 434> 630 76<318 456.5>
VStem: 53 91<218.5 387> 586 92<299.5 483>
AnchorPoint: "Anchor-1" 437 877 basechar 0
AnchorPoint: "Anchor-0" 327 0 basechar 0
LayerCount: 2
Fore
SplineSet
436 909 m 128,-1,1
 483 909 483 909 483 897 c 0,2,3
 483 886 483 886 377 780 c 0,4,5
 359 762 359 762 330.5 762 c 128,-1,6
 302 762 302 762 302 771 c 0,7,8
 302 783 302 783 371 883 c 0,9,0
 389 909 389 909 436 909 c 128,-1,1
582 909 m 128,-1,11
 629 909 629 909 629 897 c 0,12,13
 629 886 629 886 523 780 c 0,14,15
 505 762 505 762 476.5 762 c 128,-1,16
 448 762 448 762 448 771 c 0,17,18
 448 783 448 783 517 883 c 0,19,10
 535 909 535 909 582 909 c 128,-1,11
402 706 m 0,20,21
 537 706 537 706 607.5 633.5 c 128,-1,22
 678 561 678 561 678 420 c 0,23,24
 678 215 678 215 584 104.5 c 128,-1,25
 490 -6 490 -6 327 -6 c 0,26,27
 193 -6 193 -6 123 67 c 128,-1,28
 53 140 53 140 53 282 c 0,29,30
 53 418.117647059 53 418.117647059 100.5 521.5 c 0,31,32
 126 577 126 577 165 617.5 c 128,-1,33
 204 658 204 658 265 682 c 128,-1,34
 326 706 326 706 402 706 c 0,20,21
394 630 m 0,35,36
 278 630 278 630 211 543 c 128,-1,37
 144 456 144 456 144 291 c 0,38,39
 144 182 144 182 192.5 126 c 128,-1,40
 241 70 241 70 335 70 c 0,41,42
 450 70 450 70 518 158.5 c 128,-1,43
 586 247 586 247 586 410 c 0,44,45
 586 519 586 519 537 574.5 c 128,-1,46
 488 630 488 630 394 630 c 0,35,36
EndSplineSet
Position2: "'cpsp' Capital Spacing lookup 0 subtable" dx=5 dy=0 dh=10 dv=0
EndChar

StartChar: Omacron
Encoding: 332 332 125
Width: 731
GlyphClass: 2
Flags: MW
HStem: -6 76<272.5 410 272.5 434> 630 76<318 456.5> 789 71<278 519 293 511>
VStem: 53 91<218.5 387> 586 92<299.5 483>
AnchorPoint: "Anchor-1" 417 877 basechar 0
AnchorPoint: "Anchor-0" 327 0 basechar 0
LayerCount: 2
Fore
SplineSet
293 860 m 2,0,-1
 519 860 l 2,1,2
 536 860 536 860 536 834 c 0,3,4
 536 789 536 789 511 789 c 2,5,-1
 285 789 l 2,6,7
 268 789 268 789 268 816 c 0,8,9
 268 860 268 860 293 860 c 2,0,-1
402 706 m 0,10,11
 537 706 537 706 607.5 633.5 c 128,-1,12
 678 561 678 561 678 420 c 0,13,14
 678 215 678 215 584 104.5 c 128,-1,15
 490 -6 490 -6 327 -6 c 0,16,17
 193 -6 193 -6 123 67 c 128,-1,18
 53 140 53 140 53 282 c 0,19,20
 53 418.117647059 53 418.117647059 100.5 521.5 c 0,21,22
 126 577 126 577 165 617.5 c 128,-1,23
 204 658 204 658 265 682 c 128,-1,24
 326 706 326 706 402 706 c 0,10,11
394 630 m 0,25,26
 278 630 278 630 211 543 c 128,-1,27
 144 456 144 456 144 291 c 0,28,29
 144 182 144 182 192.5 126 c 128,-1,30
 241 70 241 70 335 70 c 0,31,32
 450 70 450 70 518 158.5 c 128,-1,33
 586 247 586 247 586 410 c 0,34,35
 586 519 586 519 537 574.5 c 128,-1,36
 488 630 488 630 394 630 c 0,25,26
EndSplineSet
Position2: "'cpsp' Capital Spacing lookup 0 subtable" dx=5 dy=0 dh=10 dv=0
EndChar

StartChar: Oogonek
Encoding: 490 490 126
Width: 731
GlyphClass: 2
Flags: MW
HStem: -183 70<431 444.5> -6 76<272.5 327 327 345> 630 76<318 456.5>
VStem: 53 91<218.5 387> 315 69<-90 -85.5> 586 92<299.5 483>
AnchorPoint: "Anchor-1" 402 700 basechar 0
AnchorPoint: "Anchor-0" 368 -203 basechar 0
LayerCount: 2
Fore
SplineSet
678 420 m 0,0,1
 678 240 678 240 605.5 132.5 c 128,-1,2
 533 25 533 25 403 1 c 1,3,4
 403 -5 403 -5 393.5 -30 c 128,-1,5
 384 -55 384 -55 384 -70 c 0,6,7
 384 -113 384 -113 442 -113 c 0,8,9
 460 -113 460 -113 482 -104 c 128,-1,10
 504 -95 504 -95 506 -95 c 0,11,12
 512 -95 512 -95 512 -108 c 0,13,14
 512 -183 512 -183 423 -183 c 0,15,16
 361 -183 361 -183 338 -156 c 128,-1,17
 315 -129 315 -129 315 -84.5 c 128,-1,18
 315 -40 315 -40 345 -6 c 1,19,-1
 327 -6 l 2,20,21
 193 -6 193 -6 123 67 c 128,-1,22
 53 140 53 140 53 282 c 0,23,24
 53 418.117647059 53 418.117647059 100.5 521.5 c 0,25,26
 126 577 126 577 165 617.5 c 128,-1,27
 204 658 204 658 265 682 c 128,-1,28
 326 706 326 706 402 706 c 0,29,30
 537 706 537 706 607.5 633.5 c 128,-1,31
 678 561 678 561 678 420 c 0,0,1
144 291 m 0,32,33
 144 182 144 182 192.5 126 c 128,-1,34
 241 70 241 70 335 70 c 0,35,36
 450 70 450 70 518 158.5 c 128,-1,37
 586 247 586 247 586 410 c 0,38,39
 586 519 586 519 537 574.5 c 128,-1,40
 488 630 488 630 394 630 c 0,41,42
 278 630 278 630 211 543 c 128,-1,43
 144 456 144 456 144 291 c 0,32,33
EndSplineSet
Position2: "'cpsp' Capital Spacing lookup 0 subtable" dx=5 dy=0 dh=10 dv=0
EndChar

StartChar: Oslash
Encoding: 216 216 127
Width: 731
GlyphClass: 2
Flags: MW
HStem: -6 76<297.5 410 297.5 434> 630 76<318 427> 682 20G<680.5 685>
VStem: 53 91<271 387> 586 92<299.5 435>
AnchorPoint: "Anchor-1" 366 700 basechar 0
AnchorPoint: "Anchor-0" 0 0 basechar 0
LayerCount: 2
Fore
SplineSet
402 706 m 0,0,1
 538 706 538 706 607 634 c 1,2,-1
 669 695 l 2,3,4
 676 702 676 702 683 702 c 128,-1,5
 690 702 690 702 696.5 695.5 c 128,-1,6
 703 689 703 689 703 682.5 c 128,-1,7
 703 676 703 676 696 669 c 2,8,-1
 631 604 l 1,9,10
 678 534 678 534 678 420 c 0,11,12
 678 215 678 215 584 104.5 c 128,-1,13
 490 -6 490 -6 333.5 -6 c 128,-1,14
 177 -6 177 -6 108 84 c 1,15,-1
 33 9 l 2,16,17
 25 1 25 1 19 1 c 128,-1,18
 13 1 13 1 6 8 c 128,-1,19
 -1 15 -1 15 -1 21 c 128,-1,20
 -1 27 -1 27 7 35 c 2,21,-1
 88 116 l 1,22,23
 53 183 53 183 53 282 c 0,24,25
 53 418.117647059 53 418.117647059 100.5 521.5 c 0,26,27
 126 577 126 577 165 617.5 c 128,-1,28
 204 658 204 658 265 682 c 128,-1,29
 326 706 326 706 402 706 c 0,0,1
394 630 m 0,30,31
 278 630 278 630 211 543 c 128,-1,32
 144 456 144 456 144 291 c 0,33,34
 144 231 144 231 159 187 c 1,35,-1
 542 568 l 1,36,37
 492 630 492 630 394 630 c 0,30,31
562 536 m 1,38,-1
 175 150 l 1,39,40
 222 70 222 70 336 70 c 128,-1,41
 450 70 450 70 518 158.5 c 128,-1,42
 586 247 586 247 586 410 c 0,43,44
 586 486 586 486 562 536 c 1,38,-1
EndSplineSet
Position2: "'cpsp' Capital Spacing lookup 0 subtable" dx=5 dy=0 dh=10 dv=0
EndChar

StartChar: Oslashacute
Encoding: 510 510 128
Width: 731
GlyphClass: 2
Flags: MW
HStem: -6 76<297.5 410 297.5 434> 630 76<318 427> 682 20G<680.5 685>
VStem: 53 91<271 387> 586 92<299.5 435>
AnchorPoint: "Anchor-1" 411 877 basechar 0
AnchorPoint: "Anchor-0" 0 0 basechar 0
LayerCount: 2
Fore
SplineSet
462 909 m 128,-1,1
 509 909 509 909 509 897 c 0,2,3
 509 886 509 886 403 780 c 0,4,5
 385 762 385 762 356.5 762 c 128,-1,6
 328 762 328 762 328 771 c 0,7,8
 328 783 328 783 397 883 c 0,9,0
 415 909 415 909 462 909 c 128,-1,1
402 706 m 0,10,11
 538 706 538 706 607 634 c 1,12,-1
 669 695 l 2,13,14
 676 702 676 702 683 702 c 128,-1,15
 690 702 690 702 696.5 695.5 c 128,-1,16
 703 689 703 689 703 682.5 c 128,-1,17
 703 676 703 676 696 669 c 2,18,-1
 631 604 l 1,19,20
 678 534 678 534 678 420 c 0,21,22
 678 215 678 215 584 104.5 c 128,-1,23
 490 -6 490 -6 333.5 -6 c 128,-1,24
 177 -6 177 -6 108 84 c 1,25,-1
 33 9 l 2,26,27
 25 1 25 1 19 1 c 128,-1,28
 13 1 13 1 6 8 c 128,-1,29
 -1 15 -1 15 -1 21 c 128,-1,30
 -1 27 -1 27 7 35 c 2,31,-1
 88 116 l 1,32,33
 53 183 53 183 53 282 c 0,34,35
 53 418.117647059 53 418.117647059 100.5 521.5 c 0,36,37
 126 577 126 577 165 617.5 c 128,-1,38
 204 658 204 658 265 682 c 128,-1,39
 326 706 326 706 402 706 c 0,10,11
394 630 m 0,40,41
 278 630 278 630 211 543 c 128,-1,42
 144 456 144 456 144 291 c 0,43,44
 144 231 144 231 159 187 c 1,45,-1
 542 568 l 1,46,47
 492 630 492 630 394 630 c 0,40,41
562 536 m 1,48,-1
 175 150 l 1,49,50
 222 70 222 70 336 70 c 128,-1,51
 450 70 450 70 518 158.5 c 128,-1,52
 586 247 586 247 586 410 c 0,53,54
 586 486 586 486 562 536 c 1,48,-1
EndSplineSet
Position2: "'cpsp' Capital Spacing lookup 0 subtable" dx=5 dy=0 dh=10 dv=0
EndChar

StartChar: Otilde
Encoding: 213 213 129
Width: 731
GlyphClass: 2
Flags: MW
HStem: -6 76<272.5 410 272.5 434> 630 76<318 456.5> 762 64<480 494.5> 793 64<346.5 361.5>
VStem: 53 91<218.5 387> 586 92<299.5 483>
AnchorPoint: "Anchor-1" 437 877 basechar 0
AnchorPoint: "Anchor-0" 327 0 basechar 0
LayerCount: 2
Fore
SplineSet
544 848 m 0,0,1
 565 862 565 862 583 844 c 128,-1,2
 601 826 601 826 580 806 c 0,3,4
 527 762 527 762 480 762 c 128,-1,5
 433 762 433 762 399 777.5 c 128,-1,6
 365 793 365 793 351 793 c 128,-1,7
 337 793 337 793 305.5 776.5 c 128,-1,8
 274 760 274 760 258 781.5 c 128,-1,9
 242 803 242 803 260 816 c 0,10,11
 317 857 317 857 367 857 c 0,12,13
 398 857 398 857 435.5 841.5 c 128,-1,14
 473 826 473 826 492 826 c 128,-1,15
 511 826 511 826 544 848 c 0,0,1
402 706 m 0,16,17
 537 706 537 706 607.5 633.5 c 128,-1,18
 678 561 678 561 678 420 c 0,19,20
 678 215 678 215 584 104.5 c 128,-1,21
 490 -6 490 -6 327 -6 c 0,22,23
 193 -6 193 -6 123 67 c 128,-1,24
 53 140 53 140 53 282 c 0,25,26
 53 418.117647059 53 418.117647059 100.5 521.5 c 0,27,28
 126 577 126 577 165 617.5 c 128,-1,29
 204 658 204 658 265 682 c 128,-1,30
 326 706 326 706 402 706 c 0,16,17
394 630 m 0,31,32
 278 630 278 630 211 543 c 128,-1,33
 144 456 144 456 144 291 c 0,34,35
 144 182 144 182 192.5 126 c 128,-1,36
 241 70 241 70 335 70 c 0,37,38
 450 70 450 70 518 158.5 c 128,-1,39
 586 247 586 247 586 410 c 0,40,41
 586 519 586 519 537 574.5 c 128,-1,42
 488 630 488 630 394 630 c 0,31,32
EndSplineSet
Position2: "'cpsp' Capital Spacing lookup 0 subtable" dx=5 dy=0 dh=10 dv=0
EndChar

StartChar: OE
Encoding: 338 338 130
Width: 1021
GlyphClass: 2
Flags: MW
HStem: -6 76<272.5 373> 0 76<568.5 940 644 932> 320 76<677 933 669 941> 624 76<701 996 701 701> 630 76<318 447.5 294.5 456.5>
VStem: 53 91<218.5 403 218.5 422> 586 91<396 396 396 483>
AnchorPoint: "Anchor-1" 511 700 basechar 0
AnchorPoint: "Anchor-0" 0 0 basechar 0
LayerCount: 2
Fore
SplineSet
651 700 m 2,0,-1
 1004 700 l 2,1,2
 1021 700 1021 700 1021 678 c 0,3,4
 1021 624 1021 624 996 624 c 2,5,-1
 701 624 l 1,6,-1
 677 396 l 1,7,-1
 941 396 l 2,8,9
 958 396 958 396 958 374 c 0,10,11
 958 320 958 320 933 320 c 2,12,-1
 669 320 l 1,13,-1
 644 76 l 1,14,-1
 940 76 l 2,15,16
 957 76 957 76 957 54 c 0,17,18
 957 0 957 0 932 0 c 2,19,-1
 578 0 l 2,20,21
 551 0 551 0 551 24 c 0,22,23
 551 30 551 30 556 73 c 1,24,25
 468 -6 468 -6 330.5 -6 c 0,26,27
 193 -6 193 -6 123 67 c 128,-1,28
 53 140 53 140 53 282 c 0,29,30
 53 489 53 489 145.5 597.5 c 128,-1,31
 238 706 238 706 402 706 c 0,32,33
 539 706 539 706 613 629 c 1,34,-1
 618 670 l 2,35,36
 621 700 621 700 651 700 c 2,0,-1
335 70 m 0,37,38
 450 70 450 70 518 158.5 c 128,-1,39
 586 247 586 247 586 410 c 0,40,41
 586 519 586 519 537 574.5 c 128,-1,42
 488 630 488 630 394 630 c 0,43,44
 278 630 278 630 211 543 c 128,-1,45
 144 456 144 456 144 291 c 0,46,47
 144 182 144 182 192.5 126 c 128,-1,48
 241 70 241 70 335 70 c 0,37,38
EndSplineSet
Position2: "'cpsp' Capital Spacing lookup 0 subtable" dx=5 dy=0 dh=10 dv=0
EndChar

StartChar: P
Encoding: 80 80 131
Width: 570
GlyphClass: 2
Flags: MW
HStem: 298 76<175 322 167 331> 624 76<201 201 201 343>
VStem: 467 92<459 563>
LayerCount: 2
Fore
SplineSet
151 700 m 2,0,-1
 354 700 l 2,1,2
 427 700 427 700 486 670.5 c 0,3,4
 519 654 519 654 539 619 c 128,-1,5
 559 584 559 584 559 529 c 128,-1,6
 559 474 559 474 539 428.5 c 128,-1,7
 519 383 519 383 491 359 c 128,-1,8
 463 335 463 335 427.5 320.5 c 0,9,10
 372.413793103 298 372.413793103 298 322 298 c 2,11,-1
 167 298 l 1,12,-1
 138 20 l 2,13,14
 135 -2 135 -2 96 -2 c 2,15,-1
 88 -2 l 2,16,17
 50 -2 50 -2 50 20 c 1,18,-1
 118 670 l 2,19,20
 121 700 121 700 151 700 c 2,0,-1
201 624 m 1,21,-1
 175 374 l 1,22,-1
 331 374 l 2,23,24
 370.551724138 374 370.551724138 374 413.5 400.5 c 0,25,26
 437 415 437 415 452 446.5 c 128,-1,27
 467 478 467 478 467 528 c 128,-1,28
 467 578 467 578 430.5 601 c 128,-1,29
 394 624 394 624 343 624 c 2,30,-1
 201 624 l 1,21,-1
EndSplineSet
Position2: "'cpsp' Capital Spacing lookup 0 subtable" dx=5 dy=0 dh=10 dv=0
EndChar

StartChar: Thorn
Encoding: 222 222 132
Width: 567
GlyphClass: 2
Flags: MW
HStem: 176 76<162 309 154 318> 502 76<188 341 196 330> 682 20G<161 169 169 183.5>
VStem: 454 92<337 441>
LayerCount: 2
Fore
SplineSet
161 702 m 2,0,-1
 169 702 l 2,1,2
 207 702 207 702 207 680 c 1,3,-1
 196 578 l 1,4,-1
 341 578 l 2,5,6
 414 578 414 578 473 548.5 c 0,7,8
 506 532 506 532 526 497 c 128,-1,9
 546 462 546 462 546 406.5 c 128,-1,10
 546 351 546 351 527.5 306 c 128,-1,11
 509 261 509 261 482.5 237 c 128,-1,12
 456 213 456 213 421 198.5 c 0,13,14
 366.689655172 176 366.689655172 176 309 176 c 2,15,-1
 154 176 l 1,16,-1
 138 20 l 2,17,18
 135 -2 135 -2 96 -2 c 2,19,-1
 88 -2 l 2,20,21
 50 -2 50 -2 50 20 c 1,22,-1
 119 680 l 2,23,24
 122 702 122 702 161 702 c 2,0,-1
188 502 m 1,25,-1
 162 252 l 1,26,-1
 318 252 l 2,27,28
 357.551724138 252 357.551724138 252 400.5 278.5 c 0,29,30
 424 293 424 293 439 324.5 c 128,-1,31
 454 356 454 356 454 406 c 128,-1,32
 454 456 454 456 417.5 479 c 128,-1,33
 381 502 381 502 330 502 c 2,34,-1
 188 502 l 1,25,-1
EndSplineSet
Position2: "'cpsp' Capital Spacing lookup 0 subtable" dx=5 dy=0 dh=10 dv=0
EndChar

StartChar: Q
Encoding: 81 81 133
Width: 731
GlyphClass: 2
Flags: MW
HStem: -19 20G<444 444> 630 76<328 464>
VStem: 60 92<217.5 399.5 217.5 417.5> 593 92<302 477>
LayerCount: 2
Fore
SplineSet
410 706 m 0,0,1
 545 706 545 706 615 632.5 c 128,-1,2
 685 559 685 559 685 417 c 0,3,4
 685 248 685 248 620.5 141 c 128,-1,5
 556 34 556 34 444 5 c 1,6,-1
 444 1 l 1,7,-1
 638 -62 l 1,8,9
 650 -67 650 -67 650 -82 c 0,10,11
 650 -157 650 -157 629 -157 c 0,12,13
 614.32183908 -157 614.32183908 -157 418.16091954 -76.5 c 128,-1,14
 222 4 222 4 217 6 c 0,15,16
 60 67 60 67 60 275.5 c 128,-1,17
 60 484 60 484 153.5 595 c 128,-1,18
 247 706 247 706 410 706 c 0,0,1
402 630 m 0,19,20
 289 630 289 630 220.5 540.5 c 128,-1,21
 152 451 152 451 152 290 c 0,22,23
 152 182 152 182 201.5 124.5 c 128,-1,24
 251 67 251 67 343 67 c 0,25,26
 457 67 457 67 525 155.5 c 128,-1,27
 593 244 593 244 593 404 c 0,28,29
 593 514 593 514 544 572 c 128,-1,30
 495 630 495 630 402 630 c 0,19,20
EndSplineSet
Position2: "'cpsp' Capital Spacing lookup 0 subtable" dx=5 dy=0 dh=10 dv=0
EndChar

StartChar: R
Encoding: 82 82 134
Width: 610
GlyphClass: 2
Flags: MW
HStem: 308 76<176 258 168 308> 624 76<201 201 201 319 319 326>
VStem: 450 93<498 559>
AnchorPoint: "Anchor-1" 305 700 basechar 0
AnchorPoint: "Anchor-0" 275 0 basechar 0
LayerCount: 2
Fore
SplineSet
151 700 m 2,0,-1
 319 700 l 2,1,2
 430 700 430 700 486.5 663.5 c 128,-1,3
 543 627 543 627 543 551.5 c 128,-1,4
 543 476 543 476 507 427 c 128,-1,5
 471 378 471 378 409 354 c 1,6,-1
 409 350 l 1,7,8
 435 340 435 340 451.5 310.5 c 128,-1,9
 468 281 468 281 485 225 c 2,10,-1
 543 28 l 2,11,12
 545 20 545 20 545 17 c 0,13,14
 545 -2 545 -2 501 -2 c 2,15,-1
 491 -2 l 2,16,17
 456 -2 456 -2 452 14 c 2,18,-1
 397 210 l 2,19,20
 381 267 381 267 350 287.5 c 128,-1,21
 319 308 319 308 258 308 c 2,22,-1
 168 308 l 1,23,-1
 138 20 l 2,24,25
 135 -2 135 -2 96 -2 c 2,26,-1
 88 -2 l 2,27,28
 50 -2 50 -2 50 20 c 1,29,-1
 118 670 l 2,30,31
 121 700 121 700 151 700 c 2,0,-1
201 624 m 1,32,-1
 176 384 l 1,33,-1
 308 384 l 2,34,35
 367 384 367 384 408.5 426.5 c 128,-1,36
 450 469 450 469 450 522 c 0,37,38
 450 624 450 624 326 624 c 2,39,-1
 201 624 l 1,32,-1
EndSplineSet
Position2: "'cpsp' Capital Spacing lookup 0 subtable" dx=5 dy=0 dh=10 dv=0
EndChar

StartChar: Racute
Encoding: 340 340 135
Width: 610
GlyphClass: 2
Flags: MW
HStem: 308 76<176 258 168 308> 624 76<201 201 201 319 319 326>
VStem: 450 93<498 559>
AnchorPoint: "Anchor-1" 350 877 basechar 0
AnchorPoint: "Anchor-0" 275 0 basechar 0
LayerCount: 2
Fore
SplineSet
401 909 m 128,-1,1
 448 909 448 909 448 897 c 0,2,3
 448 886 448 886 342 780 c 0,4,5
 324 762 324 762 295.5 762 c 128,-1,6
 267 762 267 762 267 771 c 0,7,8
 267 783 267 783 336 883 c 0,9,0
 354 909 354 909 401 909 c 128,-1,1
151 700 m 2,10,-1
 319 700 l 2,11,12
 430 700 430 700 486.5 663.5 c 128,-1,13
 543 627 543 627 543 551.5 c 128,-1,14
 543 476 543 476 507 427 c 128,-1,15
 471 378 471 378 409 354 c 1,16,-1
 409 350 l 1,17,18
 435 340 435 340 451.5 310.5 c 128,-1,19
 468 281 468 281 485 225 c 2,20,-1
 543 28 l 2,21,22
 545 20 545 20 545 17 c 0,23,24
 545 -2 545 -2 501 -2 c 2,25,-1
 491 -2 l 2,26,27
 456 -2 456 -2 452 14 c 2,28,-1
 397 210 l 2,29,30
 381 267 381 267 350 287.5 c 128,-1,31
 319 308 319 308 258 308 c 2,32,-1
 168 308 l 1,33,-1
 138 20 l 2,34,35
 135 -2 135 -2 96 -2 c 2,36,-1
 88 -2 l 2,37,38
 50 -2 50 -2 50 20 c 1,39,-1
 118 670 l 2,40,41
 121 700 121 700 151 700 c 2,10,-1
201 624 m 1,42,-1
 176 384 l 1,43,-1
 308 384 l 2,44,45
 367 384 367 384 408.5 426.5 c 128,-1,46
 450 469 450 469 450 522 c 0,47,48
 450 624 450 624 326 624 c 2,49,-1
 201 624 l 1,42,-1
EndSplineSet
Position2: "'cpsp' Capital Spacing lookup 0 subtable" dx=5 dy=0 dh=10 dv=0
EndChar

StartChar: Rcaron
Encoding: 344 344 136
Width: 610
GlyphClass: 2
Flags: MW
HStem: 308 76<176 258 168 308> 624 76<201 201 201 319 319 326>
VStem: 450 93<498 559>
AnchorPoint: "Anchor-1" 323 877 basechar 0
AnchorPoint: "Anchor-0" 275 0 basechar 0
LayerCount: 2
Fore
SplineSet
421 901 m 2,0,-1
 423 901 l 2,1,2
 445 901 445 901 445 887 c 0,3,4
 445 879 445 879 438 869 c 2,5,-1
 371 781 l 2,6,7
 355 759 355 759 323 759 c 2,8,-1
 298 759 l 2,9,10
 266 759 266 759 254 781 c 2,11,-1
 208 869 l 2,12,13
 203 878 203 878 204 889.5 c 128,-1,14
 205 901 205 901 228 901 c 2,15,-1
 230 901 l 2,16,17
 250 901 250 901 263 888 c 1,18,-1
 316 814 l 1,19,-1
 387 888 l 1,20,21
 403 901 403 901 421 901 c 2,0,-1
151 700 m 2,22,-1
 319 700 l 2,23,24
 430 700 430 700 486.5 663.5 c 128,-1,25
 543 627 543 627 543 551.5 c 128,-1,26
 543 476 543 476 507 427 c 128,-1,27
 471 378 471 378 409 354 c 1,28,-1
 409 350 l 1,29,30
 435 340 435 340 451.5 310.5 c 128,-1,31
 468 281 468 281 485 225 c 2,32,-1
 543 28 l 2,33,34
 545 20 545 20 545 17 c 0,35,36
 545 -2 545 -2 501 -2 c 2,37,-1
 491 -2 l 2,38,39
 456 -2 456 -2 452 14 c 2,40,-1
 397 210 l 2,41,42
 381 267 381 267 350 287.5 c 128,-1,43
 319 308 319 308 258 308 c 2,44,-1
 168 308 l 1,45,-1
 138 20 l 2,46,47
 135 -2 135 -2 96 -2 c 2,48,-1
 88 -2 l 2,49,50
 50 -2 50 -2 50 20 c 1,51,-1
 118 670 l 2,52,53
 121 700 121 700 151 700 c 2,22,-1
201 624 m 1,54,-1
 176 384 l 1,55,-1
 308 384 l 2,56,57
 367 384 367 384 408.5 426.5 c 128,-1,58
 450 469 450 469 450 522 c 0,59,60
 450 624 450 624 326 624 c 2,61,-1
 201 624 l 1,54,-1
EndSplineSet
Position2: "'cpsp' Capital Spacing lookup 0 subtable" dx=5 dy=0 dh=10 dv=0
EndChar

StartChar: Rcommaaccent
Encoding: 342 342 137
Width: 610
GlyphClass: 2
Flags: MW
HStem: 308 76<176 258 168 308> 624 76<201 201 201 319 319 326>
VStem: 225 90<-108 -73.5> 450 93<498 559>
AnchorPoint: "Anchor-1" 305 700 basechar 0
AnchorPoint: "Anchor-0" 253 -203 basechar 0
LayerCount: 2
Fore
SplineSet
151 700 m 2,0,-1
 319 700 l 2,1,2
 430 700 430 700 486.5 663.5 c 128,-1,3
 543 627 543 627 543 551.5 c 128,-1,4
 543 476 543 476 507 427 c 128,-1,5
 471 378 471 378 409 354 c 1,6,-1
 409 350 l 1,7,8
 435 340 435 340 451.5 310.5 c 128,-1,9
 468 281 468 281 485 225 c 2,10,-1
 543 28 l 2,11,12
 545 20 545 20 545 17 c 0,13,14
 545 -2 545 -2 501 -2 c 2,15,-1
 491 -2 l 2,16,17
 456 -2 456 -2 452 14 c 2,18,-1
 397 210 l 2,19,20
 381 267 381 267 350 287.5 c 128,-1,21
 319 308 319 308 258 308 c 2,22,-1
 168 308 l 1,23,-1
 138 20 l 2,24,25
 135 -2 135 -2 96 -2 c 2,26,-1
 88 -2 l 2,27,28
 50 -2 50 -2 50 20 c 1,29,-1
 118 670 l 2,30,31
 121 700 121 700 151 700 c 2,0,-1
201 624 m 1,32,-1
 176 384 l 1,33,-1
 308 384 l 2,34,35
 367 384 367 384 408.5 426.5 c 128,-1,36
 450 469 450 469 450 522 c 0,37,38
 450 624 450 624 326 624 c 2,39,-1
 201 624 l 1,32,-1
269 -51 m 2,40,-1
 278 -51 l 2,41,42
 315 -51 315 -51 315 -79 c 0,43,44
 315 -120 315 -120 268.5 -177.5 c 128,-1,45
 222 -235 222 -235 195 -235 c 128,-1,46
 168 -235 168 -235 168 -220 c 0,47,48
 168 -209 168 -209 196.5 -164 c 128,-1,49
 225 -119 225 -119 225 -83 c 0,50,51
 225 -69 225 -69 237 -60 c 128,-1,52
 249 -51 249 -51 269 -51 c 2,40,-1
EndSplineSet
Position2: "'cpsp' Capital Spacing lookup 0 subtable" dx=5 dy=0 dh=10 dv=0
EndChar

StartChar: Rdotbelow
Encoding: 7770 7770 138
Width: 610
GlyphClass: 2
Flags: MW
HStem: -175 95<251 269> 308 76<176 258 168 308> 624 76<201 201 201 319 319 326>
VStem: 216 89<-160 -95> 450 93<498 559>
AnchorPoint: "Anchor-1" 269 -82 basechar 0
AnchorPoint: "Anchor-0" 254 -203 basechar 0
LayerCount: 2
Fore
SplineSet
151 700 m 2,0,-1
 319 700 l 2,1,2
 430 700 430 700 486.5 663.5 c 128,-1,3
 543 627 543 627 543 551.5 c 128,-1,4
 543 476 543 476 507 427 c 128,-1,5
 471 378 471 378 409 354 c 1,6,-1
 409 350 l 1,7,8
 435 340 435 340 451.5 310.5 c 128,-1,9
 468 281 468 281 485 225 c 2,10,-1
 543 28 l 2,11,12
 545 20 545 20 545 17 c 0,13,14
 545 -2 545 -2 501 -2 c 2,15,-1
 491 -2 l 2,16,17
 456 -2 456 -2 452 14 c 2,18,-1
 397 210 l 2,19,20
 381 267 381 267 350 287.5 c 128,-1,21
 319 308 319 308 258 308 c 2,22,-1
 168 308 l 1,23,-1
 138 20 l 2,24,25
 135 -2 135 -2 96 -2 c 2,26,-1
 88 -2 l 2,27,28
 50 -2 50 -2 50 20 c 1,29,-1
 118 670 l 2,30,31
 121 700 121 700 151 700 c 2,0,-1
201 624 m 1,32,-1
 176 384 l 1,33,-1
 308 384 l 2,34,35
 367 384 367 384 408.5 426.5 c 128,-1,36
 450 469 450 469 450 522 c 0,37,38
 450 624 450 624 326 624 c 2,39,-1
 201 624 l 1,32,-1
221 -102 m 2,40,41
 224 -80 224 -80 264.5 -80 c 128,-1,42
 305 -80 305 -80 305 -102 c 1,43,-1
 300 -153 l 2,44,45
 297 -175 297 -175 256.5 -175 c 128,-1,46
 216 -175 216 -175 216 -153 c 1,47,-1
 221 -102 l 2,40,41
EndSplineSet
Position2: "'cpsp' Capital Spacing lookup 0 subtable" dx=5 dy=0 dh=10 dv=0
EndChar

StartChar: S
Encoding: 83 83 139
Width: 500
GlyphClass: 2
Flags: MW
HStem: -6 76<183 253.5 163.5 277.5> 630 76<261.5 337 237 338.5>
VStem: 67 90<478 551 478 561.5> 359 91<162 235>
AnchorPoint: "Anchor-1" 300 700 basechar 0
AnchorPoint: "Anchor-0" 220 0 basechar 0
LayerCount: 2
Fore
SplineSet
309 706 m 0,0,1
 358 706 358 706 411 688.5 c 128,-1,2
 464 671 464 671 464 646 c 0,3,4
 464 636 464 636 448.5 614 c 128,-1,5
 433 592 433 592 426 592 c 0,6,7
 422 592 422 592 406 601.5 c 0,8,9
 358 630 358 630 298.5 630 c 128,-1,10
 239 630 239 630 198 599 c 128,-1,11
 157 568 157 568 157 511 c 0,12,13
 157 463.302325581 157 463.302325581 196.5 438.5 c 0,14,15
 223.957831325 421.259036145 223.957831325 421.259036145 272.978915663 401.629518072 c 128,-1,16
 322 382 322 382 344 371 c 128,-1,17
 366 360 366 360 394.5 338.5 c 0,18,19
 450 296.631578947 450 296.631578947 450 215 c 0,20,21
 450 114 450 114 382.5 54 c 128,-1,22
 315 -6 315 -6 206 -6 c 0,23,24
 154 -6 154 -6 95 9.5 c 128,-1,25
 36 25 36 25 36 56 c 0,26,27
 36 121 36 121 52 121 c 0,28,29
 54 121 54 121 74 108.5 c 128,-1,30
 94 96 94 96 131.5 83 c 128,-1,31
 169 70 169 70 222 70 c 128,-1,32
 275 70 275 70 317 107 c 128,-1,33
 359 144 359 144 359 201 c 0,34,35
 359 249.608695652 359 249.608695652 317 277 c 0,36,37
 281.310344828 300.275862069 281.310344828 300.275862069 238.655172414 317.137931034 c 128,-1,38
 196 334 196 334 179.5 341.5 c 128,-1,39
 163 349 163 349 138 365 c 128,-1,40
 113 381 113 381 100 398 c 0,41,42
 67 441.153846154 67 441.153846154 67 501 c 0,43,44
 67 592 67 592 134 649 c 128,-1,45
 201 706 201 706 309 706 c 0,0,1
EndSplineSet
Position2: "'cpsp' Capital Spacing lookup 0 subtable" dx=5 dy=0 dh=10 dv=0
EndChar

StartChar: Sacute
Encoding: 346 346 140
Width: 500
GlyphClass: 2
Flags: MW
HStem: -6 76<183 253.5 163.5 277.5> 630 76<261.5 337 237 338.5>
VStem: 67 90<478 551 478 561.5> 359 91<162 235>
AnchorPoint: "Anchor-1" 345 877 basechar 0
AnchorPoint: "Anchor-0" 220 0 basechar 0
LayerCount: 2
Fore
SplineSet
396 909 m 128,-1,1
 443 909 443 909 443 897 c 0,2,3
 443 886 443 886 337 780 c 0,4,5
 319 762 319 762 290.5 762 c 128,-1,6
 262 762 262 762 262 771 c 0,7,8
 262 783 262 783 331 883 c 0,9,0
 349 909 349 909 396 909 c 128,-1,1
309 706 m 0,10,11
 358 706 358 706 411 688.5 c 128,-1,12
 464 671 464 671 464 646 c 0,13,14
 464 636 464 636 448.5 614 c 128,-1,15
 433 592 433 592 426 592 c 0,16,17
 422 592 422 592 406 601.5 c 0,18,19
 358 630 358 630 298.5 630 c 128,-1,20
 239 630 239 630 198 599 c 128,-1,21
 157 568 157 568 157 511 c 0,22,23
 157 463.302325581 157 463.302325581 196.5 438.5 c 0,24,25
 223.957831325 421.259036145 223.957831325 421.259036145 272.978915663 401.629518072 c 128,-1,26
 322 382 322 382 344 371 c 128,-1,27
 366 360 366 360 394.5 338.5 c 0,28,29
 450 296.631578947 450 296.631578947 450 215 c 0,30,31
 450 114 450 114 382.5 54 c 128,-1,32
 315 -6 315 -6 206 -6 c 0,33,34
 154 -6 154 -6 95 9.5 c 128,-1,35
 36 25 36 25 36 56 c 0,36,37
 36 121 36 121 52 121 c 0,38,39
 54 121 54 121 74 108.5 c 128,-1,40
 94 96 94 96 131.5 83 c 128,-1,41
 169 70 169 70 222 70 c 128,-1,42
 275 70 275 70 317 107 c 128,-1,43
 359 144 359 144 359 201 c 0,44,45
 359 249.608695652 359 249.608695652 317 277 c 0,46,47
 281.310344828 300.275862069 281.310344828 300.275862069 238.655172414 317.137931034 c 128,-1,48
 196 334 196 334 179.5 341.5 c 128,-1,49
 163 349 163 349 138 365 c 128,-1,50
 113 381 113 381 100 398 c 0,51,52
 67 441.153846154 67 441.153846154 67 501 c 0,53,54
 67 592 67 592 134 649 c 128,-1,55
 201 706 201 706 309 706 c 0,10,11
EndSplineSet
Substitution2: "'locl' Localized Forms in Latin lookup 11 subtable" Sacute.loclPLK
Substitution2: "'aalt' Access All Alternates lookup 0 subtable" Sacute.loclPLK
Position2: "'cpsp' Capital Spacing lookup 0 subtable" dx=5 dy=0 dh=10 dv=0
EndChar

StartChar: Scaron
Encoding: 352 352 141
Width: 500
GlyphClass: 2
Flags: MW
HStem: -6 76<183 253.5 163.5 277.5> 630 76<261.5 337 237 338.5>
VStem: 67 90<478 551 478 561.5> 359 91<162 235>
AnchorPoint: "Anchor-1" 318 877 basechar 0
AnchorPoint: "Anchor-0" 220 0 basechar 0
LayerCount: 2
Fore
SplineSet
416 901 m 2,0,-1
 418 901 l 2,1,2
 440 901 440 901 440 887 c 0,3,4
 440 879 440 879 433 869 c 2,5,-1
 366 781 l 2,6,7
 350 759 350 759 318 759 c 2,8,-1
 293 759 l 2,9,10
 261 759 261 759 249 781 c 2,11,-1
 203 869 l 2,12,13
 198 878 198 878 199 889.5 c 128,-1,14
 200 901 200 901 223 901 c 2,15,-1
 225 901 l 2,16,17
 245 901 245 901 258 888 c 1,18,-1
 311 814 l 1,19,-1
 382 888 l 1,20,21
 398 901 398 901 416 901 c 2,0,-1
309 706 m 0,22,23
 358 706 358 706 411 688.5 c 128,-1,24
 464 671 464 671 464 646 c 0,25,26
 464 636 464 636 448.5 614 c 128,-1,27
 433 592 433 592 426 592 c 0,28,29
 422 592 422 592 406 601.5 c 0,30,31
 358 630 358 630 298.5 630 c 128,-1,32
 239 630 239 630 198 599 c 128,-1,33
 157 568 157 568 157 511 c 0,34,35
 157 463.302325581 157 463.302325581 196.5 438.5 c 0,36,37
 223.957831325 421.259036145 223.957831325 421.259036145 272.978915663 401.629518072 c 128,-1,38
 322 382 322 382 344 371 c 128,-1,39
 366 360 366 360 394.5 338.5 c 0,40,41
 450 296.631578947 450 296.631578947 450 215 c 0,42,43
 450 114 450 114 382.5 54 c 128,-1,44
 315 -6 315 -6 206 -6 c 0,45,46
 154 -6 154 -6 95 9.5 c 128,-1,47
 36 25 36 25 36 56 c 0,48,49
 36 121 36 121 52 121 c 0,50,51
 54 121 54 121 74 108.5 c 128,-1,52
 94 96 94 96 131.5 83 c 128,-1,53
 169 70 169 70 222 70 c 128,-1,54
 275 70 275 70 317 107 c 128,-1,55
 359 144 359 144 359 201 c 0,56,57
 359 249.608695652 359 249.608695652 317 277 c 0,58,59
 281.310344828 300.275862069 281.310344828 300.275862069 238.655172414 317.137931034 c 128,-1,60
 196 334 196 334 179.5 341.5 c 128,-1,61
 163 349 163 349 138 365 c 128,-1,62
 113 381 113 381 100 398 c 0,63,64
 67 441.153846154 67 441.153846154 67 501 c 0,65,66
 67 592 67 592 134 649 c 128,-1,67
 201 706 201 706 309 706 c 0,22,23
EndSplineSet
Position2: "'cpsp' Capital Spacing lookup 0 subtable" dx=5 dy=0 dh=10 dv=0
EndChar

